<?xml version="1.0" encoding="UTF-8"?>
<svg xmlns="http://www.w3.org/2000/svg"
     xmlns:xlink="http://www.w3.org/1999/xlink"
     version="1.2"
     width="240mm" height="80mm" viewBox="0 0 240 80"
     stroke="none"
     fill="#000000"
     stroke-width="0.3"
     font-size="3.88"
>
<defs>
  <marker id="arrow" markerWidth="15" markerHeight="7" refX="5" refY="3.5" orient="auto" markerUnits="strokeWidth">
    <path d="M0,0 L15,3.5 L0,7 z" stroke="context-stroke" fill="context-stroke"/>
  </marker>
</defs>
<g stroke-width="0.35" stroke="#3283A8" id="img-88ca3590-1">
  <g transform="translate(65.29,13.33)">
    <path fill="none" d="M30,0 L-30,0 " class="primitive"/>
  </g>
  <g transform="translate(155.29,33.33)">
    <path fill="none" d="M0,20 L0,-20 " class="primitive"/>
  </g>
  <g transform="translate(125.29,13.33)">
    <path fill="none" d="M30,0 L-30,0 " class="primitive"/>
  </g>
  <g transform="translate(95.29,53.33)">
    <path fill="none" d="M60,0 L-60,0 " class="primitive"/>
  </g>
  <g transform="translate(185.29,13.33)">
    <path fill="none" d="M30,0 L-30,0 " class="primitive"/>
  </g>
  <g transform="translate(185.29,53.33)">
    <path fill="none" d="M30,0 L-30,0 " class="primitive"/>
  </g>
</g>
<g stroke-width="0.35" stroke="#3283A8" id="img-88ca3590-2">
  <g transform="translate(155.29,53.33)">
    <path d="M0,-10.67 L0,10.67  z" class="primitive"/>
  </g>
</g>
<g stroke-width="0.35" stroke="#3283A8" id="img-88ca3590-3">
  <g transform="translate(155.29,53.33)">
    <path d="M-14.12,0 L14.12,0  z" class="primitive"/>
  </g>
</g>
<g fill="#000000" fill-opacity="0.000" stroke-width="0.35" stroke="#3283A8" id="img-88ca3590-4">
  <g transform="translate(155.29,53.33)">
    <circle cx="0" cy="0" r="14.12" class="primitive"/>
  </g>
</g>
<g stroke-width="0" fill="#3283A8" id="img-88ca3590-5">
  <g transform="translate(155.29,13.33)">
    <circle cx="0" cy="0" r="4.71" class="primitive"/>
  </g>
</g>
<g stroke-width="0.35" stroke="#3283A8" fill="#FFFFFF" id="img-88ca3590-6">
  <g transform="translate(95.29,13.33)">
    <path d="M-14.12,-10.67 L14.12,-10.67 14.12,10.67 -14.12,10.67  z" class="primitive"/>
  </g>
</g>
<g font-family="Helvetica Neue" fill="#3283A8" font-size="5.64" id="img-88ca3590-7">
  <g transform="translate(95.29,13.33)">
    <g class="primitive">
      <text text-anchor="middle" dy="0.35em">H</text>
    </g>
  </g>
</g>
</svg>
