<?xml version="1.0" encoding="UTF-8"?>
<svg xmlns="http://www.w3.org/2000/svg"
     xmlns:xlink="http://www.w3.org/1999/xlink"
     version="1.2"
     width="148.75mm" height="56.25mm" viewBox="0 0 148.75 56.25"
     stroke="none"
     fill="#000000"
     stroke-width="0.3"
     font-size="3.88"
>
<defs>
  <marker id="arrow" markerWidth="15" markerHeight="7" refX="5" refY="3.5" orient="auto" markerUnits="strokeWidth">
    <path d="M0,0 L15,3.5 L0,7 z" stroke="context-stroke" fill="context-stroke"/>
  </marker>
</defs>
<g stroke-width="0.35" stroke="#000000" id="img-f4092050-1">
  <g transform="translate(129.37,43.75)">
    <path fill="none" d="M10.62,0 L-10.62,0 " class="primitive"/>
  </g>
</g>
<g stroke-width="0.35" stroke="#000000" id="img-f4092050-2">
  <g transform="translate(140,43.75)">
    <path fill="none" d="M0,-3.75 L0,3.75 " class="primitive"/>
  </g>
</g>
<g stroke-width="0.35" stroke="#000000" id="img-f4092050-3">
  <g transform="translate(129.37,25)">
    <path fill="none" d="M10.62,0 L-10.62,0 " class="primitive"/>
  </g>
</g>
<g stroke-width="0.35" stroke="#000000" id="img-f4092050-4">
  <g transform="translate(140,25)">
    <path fill="none" d="M0,-3.75 L0,3.75 " class="primitive"/>
  </g>
</g>
<g stroke-width="0.35" stroke="#000000" id="img-f4092050-5">
  <g transform="translate(129.37,6.25)">
    <path fill="none" d="M10.62,0 L-10.62,0 " class="primitive"/>
  </g>
</g>
<g stroke-width="0.35" stroke="#000000" id="img-f4092050-6">
  <g transform="translate(140,6.25)">
    <path fill="none" d="M0,-3.75 L0,3.75 " class="primitive"/>
  </g>
</g>
<g stroke-width="0.35" stroke="#000000" id="img-f4092050-7">
  <g transform="translate(108.12,43.75)">
    <path fill="none" d="M10.62,0 L-10.62,0 " class="primitive"/>
  </g>
</g>
<g stroke-width="0.35" stroke="#000000" id="img-f4092050-8">
  <g transform="translate(108.12,25)">
    <path fill="none" d="M10.62,0 L-10.62,0 " class="primitive"/>
  </g>
</g>
<g stroke-width="0.35" stroke="#000000" id="img-f4092050-9">
  <g transform="translate(108.12,6.25)">
    <path fill="none" d="M10.62,0 L-10.62,0 " class="primitive"/>
  </g>
</g>
<g stroke-width="0.35" stroke="#000000" id="img-f4092050-10">
  <g transform="translate(118.75,25)">
    <path fill="none" d="M0,18.75 L0,-18.75 " class="primitive"/>
  </g>
</g>
<g stroke-width="0.35" stroke="#000000" id="img-f4092050-11">
  <g transform="translate(76.25,43.75)">
    <path fill="none" d="M21.25,0 L-21.25,0 " class="primitive"/>
  </g>
</g>
<g stroke-width="0.35" stroke="#000000" id="img-f4092050-12">
  <g transform="translate(86.87,25)">
    <path fill="none" d="M10.62,0 L-10.62,0 " class="primitive"/>
  </g>
</g>
<g stroke-width="0.35" stroke="#000000" id="img-f4092050-13">
  <g transform="translate(97.5,34.38)">
    <path fill="none" d="M0,9.38 L0,-9.38 " class="primitive"/>
  </g>
</g>
<g stroke-width="0.35" stroke="#000000" id="img-f4092050-14">
  <g transform="translate(86.87,6.25)">
    <path fill="none" d="M10.62,0 L-10.62,0 " class="primitive"/>
  </g>
</g>
<g stroke-width="0.35" stroke="#000000" id="img-f4092050-15">
  <g transform="translate(65.62,25)">
    <path fill="none" d="M10.62,0 L-10.62,0 " class="primitive"/>
  </g>
</g>
<g stroke-width="0.35" stroke="#000000" id="img-f4092050-16">
  <g transform="translate(44.37,6.25)">
    <path fill="none" d="M31.87,0 L-31.87,0 " class="primitive"/>
  </g>
</g>
<g stroke-width="0.35" stroke="#000000" id="img-f4092050-17">
  <g transform="translate(76.25,15.62)">
    <path fill="none" d="M0,9.38 L0,-9.38 " class="primitive"/>
  </g>
</g>
<g stroke-width="0.35" stroke="#000000" id="img-f4092050-18">
  <g transform="translate(33.75,43.75)">
    <path fill="none" d="M21.25,0 L-21.25,0 " class="primitive"/>
  </g>
</g>
<g stroke-width="0.35" stroke="#000000" id="img-f4092050-19">
  <g transform="translate(44.37,25)">
    <path fill="none" d="M10.62,0 L-10.62,0 " class="primitive"/>
  </g>
</g>
<g stroke-width="0.35" stroke="#000000" id="img-f4092050-20">
  <g transform="translate(55,34.38)">
    <path fill="none" d="M0,9.38 L0,-9.38 " class="primitive"/>
  </g>
</g>
<g stroke-width="0.35" stroke="#000000" id="img-f4092050-21">
  <g transform="translate(23.12,25)">
    <path fill="none" d="M10.62,0 L-10.62,0 " class="primitive"/>
  </g>
</g>
<g fill="#000000" id="img-f4092050-22">
  <g transform="translate(118.75,43.75)">
    <circle cx="0" cy="0" r="1.67" class="primitive"/>
  </g>
</g>
<g fill="#000000" id="img-f4092050-23">
  <g transform="translate(118.75,6.25)">
    <circle cx="0" cy="0" r="1.67" class="primitive"/>
  </g>
</g>
<g stroke-width="0.35" stroke="#000000" id="img-f4092050-24">
  <g transform="translate(97.5,43.75)">
    <path d="M0,-5 L0,5  z" class="primitive"/>
  </g>
</g>
<g stroke-width="0.35" stroke="#000000" id="img-f4092050-25">
  <g transform="translate(97.5,43.75)">
    <path d="M-5,0 L5,0  z" class="primitive"/>
  </g>
</g>
<g fill="#000000" fill-opacity="0.000" stroke-width="0.35" stroke="#000000" id="img-f4092050-26">
  <g transform="translate(97.5,43.75)">
    <circle cx="0" cy="0" r="5" class="primitive"/>
  </g>
</g>
<g fill="#000000" id="img-f4092050-27">
  <g transform="translate(97.5,25)">
    <circle cx="0" cy="0" r="1.67" class="primitive"/>
  </g>
</g>
<g stroke-width="0.35" stroke="#000000" fill="#FFFFFF" id="img-f4092050-28">
  <g transform="translate(97.5,6.25)">
    <path d="M-5,-5 L5,-5 5,5 -5,5  z" class="primitive"/>
  </g>
</g>
<g stroke-width="0.35" stroke="#000000" id="img-f4092050-29">
  <g transform="translate(76.25,25)">
    <path d="M0,-5 L0,5  z" class="primitive"/>
  </g>
</g>
<g stroke-width="0.35" stroke="#000000" id="img-f4092050-30">
  <g transform="translate(76.25,25)">
    <path d="M-5,0 L5,0  z" class="primitive"/>
  </g>
</g>
<g fill="#000000" fill-opacity="0.000" stroke-width="0.35" stroke="#000000" id="img-f4092050-31">
  <g transform="translate(76.25,25)">
    <circle cx="0" cy="0" r="5" class="primitive"/>
  </g>
</g>
<g fill="#000000" id="img-f4092050-32">
  <g transform="translate(76.25,6.25)">
    <circle cx="0" cy="0" r="1.67" class="primitive"/>
  </g>
</g>
<g stroke-width="0.35" stroke="#000000" id="img-f4092050-33">
  <g transform="translate(55,43.75)">
    <path d="M0,-5 L0,5  z" class="primitive"/>
  </g>
</g>
<g stroke-width="0.35" stroke="#000000" id="img-f4092050-34">
  <g transform="translate(55,43.75)">
    <path d="M-5,0 L5,0  z" class="primitive"/>
  </g>
</g>
<g fill="#000000" fill-opacity="0.000" stroke-width="0.35" stroke="#000000" id="img-f4092050-35">
  <g transform="translate(55,43.75)">
    <circle cx="0" cy="0" r="5" class="primitive"/>
  </g>
</g>
<g fill="#000000" id="img-f4092050-36">
  <g transform="translate(55,25)">
    <circle cx="0" cy="0" r="1.67" class="primitive"/>
  </g>
</g>
<g stroke-width="0.35" stroke="#000000" fill="#FFFFFF" id="img-f4092050-37">
  <g transform="translate(33.75,25)">
    <path d="M-5,-5 L5,-5 5,5 -5,5  z" class="primitive"/>
  </g>
</g>
<g font-family="Helvetica Neue" font-size="5.64" id="img-f4092050-38">
  <g transform="translate(97.5,6.25)">
    <g class="primitive">
      <text text-anchor="middle" dy="0.35em">H</text>
    </g>
  </g>
</g>
<g font-family="Helvetica Neue" font-size="5.64" id="img-f4092050-39">
  <g transform="translate(33.75,25)">
    <g class="primitive">
      <text text-anchor="middle" dy="0.35em">H</text>
    </g>
  </g>
</g>
</svg>
