<?xml version="1.0" encoding="UTF-8"?>
<svg xmlns="http://www.w3.org/2000/svg"
     xmlns:xlink="http://www.w3.org/1999/xlink"
     version="1.2"
     width="240mm" height="80mm" viewBox="0 0 240 80"
     stroke="none"
     fill="#000000"
     stroke-width="0.3"
     font-size="3.88"
>
<defs>
  <marker id="arrow" markerWidth="15" markerHeight="7" refX="5" refY="3.5" orient="auto" markerUnits="strokeWidth">
    <path d="M0,0 L15,3.5 L0,7 z" stroke="context-stroke" fill="context-stroke"/>
  </marker>
</defs>
<g stroke-width="0.35" stroke="#3283A8" id="img-078154d6-1">
  <g transform="translate(76.24,22.22)">
    <path fill="none" d="M0,13.33 L0,-13.33 " class="primitive"/>
  </g>
  <g transform="translate(52.24,8.89)">
    <path fill="none" d="M24,0 L-24,0 " class="primitive"/>
  </g>
  <g transform="translate(52.24,35.56)">
    <path fill="none" d="M24,0 L-24,0 " class="primitive"/>
  </g>
  <g transform="translate(100.24,8.89)">
    <path fill="none" d="M24,0 L-24,0 " class="primitive"/>
  </g>
  <g transform="translate(124.24,48.89)">
    <path fill="none" d="M0,13.33 L0,-13.33 " class="primitive"/>
  </g>
  <g transform="translate(100.24,35.56)">
    <path fill="none" d="M24,0 L-24,0 " class="primitive"/>
  </g>
  <g transform="translate(76.24,62.22)">
    <path fill="none" d="M48,0 L-48,0 " class="primitive"/>
  </g>
  <g transform="translate(172.24,35.56)">
    <path fill="none" d="M0,26.67 L0,-26.67 " class="primitive"/>
  </g>
  <g transform="translate(148.24,8.89)">
    <path fill="none" d="M24,0 L-24,0 " class="primitive"/>
  </g>
  <g transform="translate(148.24,35.56)">
    <path fill="none" d="M24,0 L-24,0 " class="primitive"/>
  </g>
  <g transform="translate(148.24,62.22)">
    <path fill="none" d="M24,0 L-24,0 " class="primitive"/>
  </g>
  <g transform="translate(196.24,8.89)">
    <path fill="none" d="M24,0 L-24,0 " class="primitive"/>
  </g>
  <g transform="translate(196.24,35.56)">
    <path fill="none" d="M24,0 L-24,0 " class="primitive"/>
  </g>
  <g transform="translate(196.24,62.22)">
    <path fill="none" d="M24,0 L-24,0 " class="primitive"/>
  </g>
</g>
<g stroke-width="0.35" stroke="#3283A8" fill="#FFFFFF" id="img-078154d6-2">
  <g transform="translate(124.24,8.89)">
    <path d="M-11.29,-7.11 L11.29,-7.11 11.29,7.11 -11.29,7.11  z" class="primitive"/>
  </g>
</g>
<g stroke-width="0.35" stroke="#3283A8" id="img-078154d6-3">
  <g transform="translate(76.24,35.56)">
    <path d="M0,-7.11 L0,7.11  z" class="primitive"/>
  </g>
  <g transform="translate(124.24,62.22)">
    <path d="M0,-7.11 L0,7.11  z" class="primitive"/>
  </g>
</g>
<g stroke-width="0.35" stroke="#3283A8" id="img-078154d6-4">
  <g transform="translate(76.24,35.56)">
    <path d="M-11.29,0 L11.29,0  z" class="primitive"/>
  </g>
  <g transform="translate(124.24,62.22)">
    <path d="M-11.29,0 L11.29,0  z" class="primitive"/>
  </g>
</g>
<g fill="#000000" fill-opacity="0.000" stroke-width="0.35" stroke="#3283A8" id="img-078154d6-5">
  <g transform="translate(76.24,35.56)">
    <circle cx="0" cy="0" r="11.29" class="primitive"/>
  </g>
  <g transform="translate(124.24,62.22)">
    <circle cx="0" cy="0" r="11.29" class="primitive"/>
  </g>
</g>
<g stroke-width="0" fill="#3283A8" id="img-078154d6-6">
  <g transform="translate(76.24,8.89)">
    <circle cx="0" cy="0" r="3.76" class="primitive"/>
  </g>
  <g transform="translate(124.24,35.56)">
    <circle cx="0" cy="0" r="3.76" class="primitive"/>
  </g>
  <g transform="translate(172.24,8.89)">
    <circle cx="0" cy="0" r="3.76" class="primitive"/>
  </g>
  <g transform="translate(172.24,62.22)">
    <circle cx="0" cy="0" r="3.76" class="primitive"/>
  </g>
</g>
<g font-family="Helvetica Neue" fill="#3283A8" font-size="5.64" id="img-078154d6-7">
  <g transform="translate(124.24,8.89)">
    <g class="primitive">
      <text text-anchor="middle" dy="0.35em">H</text>
    </g>
  </g>
</g>
</svg>
