<?xml version="1.0" encoding="UTF-8"?>
<svg xmlns="http://www.w3.org/2000/svg"
     xmlns:xlink="http://www.w3.org/1999/xlink"
     version="1.2"
     width="106.25mm" height="56.25mm" viewBox="0 0 106.25 56.25"
     stroke="none"
     fill="#000000"
     stroke-width="0.3"
     font-size="3.88"
>
<defs>
  <marker id="arrow" markerWidth="15" markerHeight="7" refX="5" refY="3.5" orient="auto" markerUnits="strokeWidth">
    <path d="M0,0 L15,3.5 L0,7 z" stroke="context-stroke" fill="context-stroke"/>
  </marker>
</defs>
<g stroke-width="0.35" stroke="#000000" id="img-9f46b6a2-1">
  <g transform="translate(86.88,43.75)">
    <path fill="none" d="M10.62,0 L-10.62,0 " class="primitive"/>
  </g>
</g>
<g stroke-width="0.35" stroke="#000000" id="img-9f46b6a2-2">
  <g transform="translate(97.5,43.75)">
    <path fill="none" d="M0,-3.75 L0,3.75 " class="primitive"/>
  </g>
</g>
<g stroke-width="0.35" stroke="#000000" id="img-9f46b6a2-3">
  <g transform="translate(86.88,25)">
    <path fill="none" d="M10.62,0 L-10.62,0 " class="primitive"/>
  </g>
</g>
<g stroke-width="0.35" stroke="#000000" id="img-9f46b6a2-4">
  <g transform="translate(97.5,25)">
    <path fill="none" d="M0,-3.75 L0,3.75 " class="primitive"/>
  </g>
</g>
<g stroke-width="0.35" stroke="#000000" id="img-9f46b6a2-5">
  <g transform="translate(86.88,6.25)">
    <path fill="none" d="M10.62,0 L-10.62,0 " class="primitive"/>
  </g>
</g>
<g stroke-width="0.35" stroke="#000000" id="img-9f46b6a2-6">
  <g transform="translate(97.5,6.25)">
    <path fill="none" d="M0,-3.75 L0,3.75 " class="primitive"/>
  </g>
</g>
<g stroke-width="0.35" stroke="#000000" id="img-9f46b6a2-7">
  <g transform="translate(65.62,43.75)">
    <path fill="none" d="M10.62,0 L-10.62,0 " class="primitive"/>
  </g>
</g>
<g stroke-width="0.35" stroke="#000000" id="img-9f46b6a2-8">
  <g transform="translate(65.62,25)">
    <path fill="none" d="M10.62,0 L-10.62,0 " class="primitive"/>
  </g>
</g>
<g stroke-width="0.35" stroke="#000000" id="img-9f46b6a2-9">
  <g transform="translate(65.62,6.25)">
    <path fill="none" d="M10.62,0 L-10.62,0 " class="primitive"/>
  </g>
</g>
<g stroke-width="0.35" stroke="#000000" id="img-9f46b6a2-10">
  <g transform="translate(76.25,25)">
    <path fill="none" d="M0,18.75 L0,-18.75 " class="primitive"/>
  </g>
</g>
<g stroke-width="0.35" stroke="#000000" id="img-9f46b6a2-11">
  <g transform="translate(33.75,43.75)">
    <path fill="none" d="M21.25,0 L-21.25,0 " class="primitive"/>
  </g>
</g>
<g stroke-width="0.35" stroke="#000000" id="img-9f46b6a2-12">
  <g transform="translate(44.38,25)">
    <path fill="none" d="M10.62,0 L-10.62,0 " class="primitive"/>
  </g>
</g>
<g stroke-width="0.35" stroke="#000000" id="img-9f46b6a2-13">
  <g transform="translate(55,34.38)">
    <path fill="none" d="M0,9.38 L0,-9.38 " class="primitive"/>
  </g>
</g>
<g stroke-width="0.35" stroke="#000000" id="img-9f46b6a2-14">
  <g transform="translate(44.38,6.25)">
    <path fill="none" d="M10.62,0 L-10.62,0 " class="primitive"/>
  </g>
</g>
<g stroke-width="0.35" stroke="#000000" id="img-9f46b6a2-15">
  <g transform="translate(23.12,25)">
    <path fill="none" d="M10.62,0 L-10.62,0 " class="primitive"/>
  </g>
</g>
<g stroke-width="0.35" stroke="#000000" id="img-9f46b6a2-16">
  <g transform="translate(23.12,6.25)">
    <path fill="none" d="M10.62,0 L-10.62,0 " class="primitive"/>
  </g>
</g>
<g stroke-width="0.35" stroke="#000000" id="img-9f46b6a2-17">
  <g transform="translate(33.75,15.62)">
    <path fill="none" d="M0,9.38 L0,-9.38 " class="primitive"/>
  </g>
</g>
<g fill="#000000" id="img-9f46b6a2-18">
  <g transform="translate(76.25,43.75)">
    <circle cx="0" cy="0" r="1.67" class="primitive"/>
  </g>
</g>
<g fill="#000000" id="img-9f46b6a2-19">
  <g transform="translate(76.25,6.25)">
    <circle cx="0" cy="0" r="1.67" class="primitive"/>
  </g>
</g>
<g stroke-width="0.35" stroke="#000000" id="img-9f46b6a2-20">
  <g transform="translate(55,43.75)">
    <path d="M0,-5 L0,5  z" class="primitive"/>
  </g>
</g>
<g stroke-width="0.35" stroke="#000000" id="img-9f46b6a2-21">
  <g transform="translate(55,43.75)">
    <path d="M-5,0 L5,0  z" class="primitive"/>
  </g>
</g>
<g fill="#000000" fill-opacity="0.000" stroke-width="0.35" stroke="#000000" id="img-9f46b6a2-22">
  <g transform="translate(55,43.75)">
    <circle cx="0" cy="0" r="5" class="primitive"/>
  </g>
</g>
<g fill="#000000" id="img-9f46b6a2-23">
  <g transform="translate(55,25)">
    <circle cx="0" cy="0" r="1.67" class="primitive"/>
  </g>
</g>
<g stroke-width="0.35" stroke="#000000" fill="#FFFFFF" id="img-9f46b6a2-24">
  <g transform="translate(55,6.25)">
    <path d="M-5,-5 L5,-5 5,5 -5,5  z" class="primitive"/>
  </g>
</g>
<g stroke-width="0.35" stroke="#000000" id="img-9f46b6a2-25">
  <g transform="translate(33.75,25)">
    <path d="M0,-5 L0,5  z" class="primitive"/>
  </g>
</g>
<g stroke-width="0.35" stroke="#000000" id="img-9f46b6a2-26">
  <g transform="translate(33.75,25)">
    <path d="M-5,0 L5,0  z" class="primitive"/>
  </g>
</g>
<g fill="#000000" fill-opacity="0.000" stroke-width="0.35" stroke="#000000" id="img-9f46b6a2-27">
  <g transform="translate(33.75,25)">
    <circle cx="0" cy="0" r="5" class="primitive"/>
  </g>
</g>
<g fill="#000000" id="img-9f46b6a2-28">
  <g transform="translate(33.75,6.25)">
    <circle cx="0" cy="0" r="1.67" class="primitive"/>
  </g>
</g>
<g font-family="Helvetica Neue" font-size="5.64" id="img-9f46b6a2-29">
  <g transform="translate(55,6.25)">
    <g class="primitive">
      <text text-anchor="middle" dy="0.35em">H</text>
    </g>
  </g>
</g>
</svg>
