<?xml version="1.0" encoding="UTF-8"?>
<svg xmlns="http://www.w3.org/2000/svg"
     xmlns:xlink="http://www.w3.org/1999/xlink"
     version="1.2"
     width="240mm" height="80mm" viewBox="0 0 240 80"
     stroke="none"
     fill="#000000"
     stroke-width="0.3"
     font-size="3.88"
>
<defs>
  <marker id="arrow" markerWidth="15" markerHeight="7" refX="5" refY="3.5" orient="auto" markerUnits="strokeWidth">
    <path d="M0,0 L15,3.5 L0,7 z" stroke="context-stroke" fill="context-stroke"/>
  </marker>
</defs>
<g stroke-width="0.35" stroke="#3283A8" id="img-d5e41001-1">
  <g transform="translate(37.31,35.56)">
    <path fill="none" d="M17.14,0 L-17.14,0 " class="primitive"/>
  </g>
  <g transform="translate(88.74,48.89)">
    <path fill="none" d="M0,13.33 L0,-13.33 " class="primitive"/>
  </g>
  <g transform="translate(71.6,35.56)">
    <path fill="none" d="M17.14,0 L-17.14,0 " class="primitive"/>
  </g>
  <g transform="translate(54.45,62.22)">
    <path fill="none" d="M34.29,0 L-34.29,0 " class="primitive"/>
  </g>
  <g transform="translate(123.03,22.22)">
    <path fill="none" d="M0,13.33 L0,-13.33 " class="primitive"/>
  </g>
  <g transform="translate(71.6,8.89)">
    <path fill="none" d="M51.43,0 L-51.43,0 " class="primitive"/>
  </g>
  <g transform="translate(105.88,35.56)">
    <path fill="none" d="M17.14,0 L-17.14,0 " class="primitive"/>
  </g>
  <g transform="translate(140.17,8.89)">
    <path fill="none" d="M17.14,0 L-17.14,0 " class="primitive"/>
  </g>
  <g transform="translate(157.31,48.89)">
    <path fill="none" d="M0,13.33 L0,-13.33 " class="primitive"/>
  </g>
  <g transform="translate(140.17,35.56)">
    <path fill="none" d="M17.14,0 L-17.14,0 " class="primitive"/>
  </g>
  <g transform="translate(123.03,62.22)">
    <path fill="none" d="M34.29,0 L-34.29,0 " class="primitive"/>
  </g>
  <g transform="translate(191.6,35.56)">
    <path fill="none" d="M0,26.67 L0,-26.67 " class="primitive"/>
  </g>
  <g transform="translate(174.45,8.89)">
    <path fill="none" d="M17.14,0 L-17.14,0 " class="primitive"/>
  </g>
  <g transform="translate(174.45,35.56)">
    <path fill="none" d="M17.14,0 L-17.14,0 " class="primitive"/>
  </g>
  <g transform="translate(174.45,62.22)">
    <path fill="none" d="M17.14,0 L-17.14,0 " class="primitive"/>
  </g>
  <g transform="translate(208.74,8.89)">
    <path fill="none" d="M17.14,0 L-17.14,0 " class="primitive"/>
  </g>
  <g transform="translate(208.74,35.56)">
    <path fill="none" d="M17.14,0 L-17.14,0 " class="primitive"/>
  </g>
  <g transform="translate(208.74,62.22)">
    <path fill="none" d="M17.14,0 L-17.14,0 " class="primitive"/>
  </g>
</g>
<g stroke-width="0.35" stroke="#3283A8" id="img-d5e41001-2">
  <g transform="translate(88.74,62.22)">
    <path d="M0,-7.11 L0,7.11  z" class="primitive"/>
  </g>
  <g transform="translate(123.03,35.56)">
    <path d="M0,-7.11 L0,7.11  z" class="primitive"/>
  </g>
  <g transform="translate(157.31,62.22)">
    <path d="M0,-7.11 L0,7.11  z" class="primitive"/>
  </g>
</g>
<g stroke-width="0.35" stroke="#3283A8" id="img-d5e41001-3">
  <g transform="translate(88.74,62.22)">
    <path d="M-8.07,0 L8.07,0  z" class="primitive"/>
  </g>
  <g transform="translate(123.03,35.56)">
    <path d="M-8.07,0 L8.07,0  z" class="primitive"/>
  </g>
  <g transform="translate(157.31,62.22)">
    <path d="M-8.07,0 L8.07,0  z" class="primitive"/>
  </g>
</g>
<g fill="#000000" fill-opacity="0.000" stroke-width="0.35" stroke="#3283A8" id="img-d5e41001-4">
  <g transform="translate(88.74,62.22)">
    <circle cx="0" cy="0" r="8.07" class="primitive"/>
  </g>
  <g transform="translate(123.03,35.56)">
    <circle cx="0" cy="0" r="8.07" class="primitive"/>
  </g>
  <g transform="translate(157.31,62.22)">
    <circle cx="0" cy="0" r="8.07" class="primitive"/>
  </g>
</g>
<g stroke-width="0" fill="#3283A8" id="img-d5e41001-5">
  <g transform="translate(88.74,35.56)">
    <circle cx="0" cy="0" r="2.69" class="primitive"/>
  </g>
  <g transform="translate(123.03,8.89)">
    <circle cx="0" cy="0" r="2.69" class="primitive"/>
  </g>
  <g transform="translate(157.31,35.56)">
    <circle cx="0" cy="0" r="2.69" class="primitive"/>
  </g>
  <g transform="translate(191.6,8.89)">
    <circle cx="0" cy="0" r="2.69" class="primitive"/>
  </g>
  <g transform="translate(191.6,62.22)">
    <circle cx="0" cy="0" r="2.69" class="primitive"/>
  </g>
</g>
<g stroke-width="0.35" stroke="#3283A8" fill="#FFFFFF" id="img-d5e41001-6">
  <g transform="translate(54.45,35.56)">
    <path d="M-8.07,-7.11 L8.07,-7.11 8.07,7.11 -8.07,7.11  z" class="primitive"/>
  </g>
  <g transform="translate(157.31,8.89)">
    <path d="M-8.07,-7.11 L8.07,-7.11 8.07,7.11 -8.07,7.11  z" class="primitive"/>
  </g>
</g>
<g font-family="Helvetica Neue" fill="#3283A8" font-size="5.64" id="img-d5e41001-7">
  <g transform="translate(54.45,35.56)">
    <g class="primitive">
      <text text-anchor="middle" dy="0.35em">H</text>
    </g>
  </g>
  <g transform="translate(157.31,8.89)">
    <g class="primitive">
      <text text-anchor="middle" dy="0.35em">H</text>
    </g>
  </g>
</g>
</svg>
