<?xml version="1.0" encoding="UTF-8"?>
<svg xmlns="http://www.w3.org/2000/svg"
     xmlns:xlink="http://www.w3.org/1999/xlink"
     version="1.2"
     width="240mm" height="80mm" viewBox="0 0 240 80"
     stroke="none"
     fill="#000000"
     stroke-width="0.3"
     font-size="3.88"
>
<defs>
  <marker id="arrow" markerWidth="15" markerHeight="7" refX="5" refY="3.5" orient="auto" markerUnits="strokeWidth">
    <path d="M0,0 L15,3.5 L0,7 z" stroke="context-stroke" fill="context-stroke"/>
  </marker>
</defs>
<g stroke-width="0.35" stroke="#000000" id="img-b06308d8-1">
  <g transform="translate(208.74,71.11)">
    <path fill="none" d="M17.14,0 L-17.14,0 " class="primitive"/>
  </g>
</g>
<g stroke-width="0.35" stroke="#000000" id="img-b06308d8-2">
  <g transform="translate(225.88,71.11)">
    <path fill="none" d="M0,-2.67 L0,2.67 " class="primitive"/>
  </g>
</g>
<g stroke-width="0.35" stroke="#000000" id="img-b06308d8-3">
  <g transform="translate(208.74,57.78)">
    <path fill="none" d="M17.14,0 L-17.14,0 " class="primitive"/>
  </g>
</g>
<g stroke-width="0.35" stroke="#000000" id="img-b06308d8-4">
  <g transform="translate(225.88,57.78)">
    <path fill="none" d="M0,-2.67 L0,2.67 " class="primitive"/>
  </g>
</g>
<g stroke-width="0.35" stroke="#000000" id="img-b06308d8-5">
  <g transform="translate(208.74,44.44)">
    <path fill="none" d="M17.14,0 L-17.14,0 " class="primitive"/>
  </g>
</g>
<g stroke-width="0.35" stroke="#000000" id="img-b06308d8-6">
  <g transform="translate(225.88,44.44)">
    <path fill="none" d="M0,-2.67 L0,2.67 " class="primitive"/>
  </g>
</g>
<g stroke-width="0.35" stroke="#000000" id="img-b06308d8-7">
  <g transform="translate(208.74,31.11)">
    <path fill="none" d="M17.14,0 L-17.14,0 " class="primitive"/>
  </g>
</g>
<g stroke-width="0.35" stroke="#000000" id="img-b06308d8-8">
  <g transform="translate(225.88,31.11)">
    <path fill="none" d="M0,-2.67 L0,2.67 " class="primitive"/>
  </g>
</g>
<g stroke-width="0.35" stroke="#000000" id="img-b06308d8-9">
  <g transform="translate(208.74,17.78)">
    <path fill="none" d="M17.14,0 L-17.14,0 " class="primitive"/>
  </g>
</g>
<g stroke-width="0.35" stroke="#000000" id="img-b06308d8-10">
  <g transform="translate(225.88,17.78)">
    <path fill="none" d="M0,-2.67 L0,2.67 " class="primitive"/>
  </g>
</g>
<g stroke-width="0.35" stroke="#000000" id="img-b06308d8-11">
  <g transform="translate(208.74,4.44)">
    <path fill="none" d="M17.14,0 L-17.14,0 " class="primitive"/>
  </g>
</g>
<g stroke-width="0.35" stroke="#000000" id="img-b06308d8-12">
  <g transform="translate(225.88,4.44)">
    <path fill="none" d="M0,-2.67 L0,2.67 " class="primitive"/>
  </g>
</g>
<g stroke-width="0.35" stroke="#000000" id="img-b06308d8-13">
  <g transform="translate(174.45,71.11)">
    <path fill="none" d="M17.14,0 L-17.14,0 " class="primitive"/>
  </g>
</g>
<g stroke-width="0.35" stroke="#000000" id="img-b06308d8-14">
  <g transform="translate(174.45,57.78)">
    <path fill="none" d="M17.14,0 L-17.14,0 " class="primitive"/>
  </g>
</g>
<g stroke-width="0.35" stroke="#000000" id="img-b06308d8-15">
  <g transform="translate(174.45,44.44)">
    <path fill="none" d="M17.14,0 L-17.14,0 " class="primitive"/>
  </g>
</g>
<g stroke-width="0.35" stroke="#000000" id="img-b06308d8-16">
  <g transform="translate(174.45,31.11)">
    <path fill="none" d="M17.14,0 L-17.14,0 " class="primitive"/>
  </g>
</g>
<g stroke-width="0.35" stroke="#000000" id="img-b06308d8-17">
  <g transform="translate(174.45,17.78)">
    <path fill="none" d="M17.14,0 L-17.14,0 " class="primitive"/>
  </g>
</g>
<g stroke-width="0.35" stroke="#000000" id="img-b06308d8-18">
  <g transform="translate(123.03,4.44)">
    <path fill="none" d="M68.57,0 L-68.57,0 " class="primitive"/>
  </g>
</g>
<g stroke-width="0.35" stroke="#000000" id="img-b06308d8-19">
  <g transform="translate(191.6,34.44)">
    <path fill="none" d="M0,30 L0,-30 " class="primitive"/>
  </g>
</g>
<g stroke-width="0.35" stroke="#000000" id="img-b06308d8-20">
  <g transform="translate(37.31,4.44)">
    <path fill="none" d="M17.14,0 L-17.14,0 " class="primitive"/>
  </g>
</g>
<g stroke-width="0.35" stroke="#000000" id="img-b06308d8-21">
  <g transform="translate(140.17,71.11)">
    <path fill="none" d="M17.14,0 L-17.14,0 " class="primitive"/>
  </g>
</g>
<g stroke-width="0.35" stroke="#000000" id="img-b06308d8-22">
  <g transform="translate(140.17,57.78)">
    <path fill="none" d="M17.14,0 L-17.14,0 " class="primitive"/>
  </g>
</g>
<g stroke-width="0.35" stroke="#000000" id="img-b06308d8-23">
  <g transform="translate(140.17,44.44)">
    <path fill="none" d="M17.14,0 L-17.14,0 " class="primitive"/>
  </g>
</g>
<g stroke-width="0.35" stroke="#000000" id="img-b06308d8-24">
  <g transform="translate(140.17,31.11)">
    <path fill="none" d="M17.14,0 L-17.14,0 " class="primitive"/>
  </g>
</g>
<g stroke-width="0.35" stroke="#000000" id="img-b06308d8-25">
  <g transform="translate(105.88,17.78)">
    <path fill="none" d="M51.43,0 L-51.43,0 " class="primitive"/>
  </g>
</g>
<g stroke-width="0.35" stroke="#000000" id="img-b06308d8-26">
  <g transform="translate(157.31,41.11)">
    <path fill="none" d="M0,23.33 L0,-23.33 " class="primitive"/>
  </g>
</g>
<g stroke-width="0.35" stroke="#000000" id="img-b06308d8-27">
  <g transform="translate(37.31,17.78)">
    <path fill="none" d="M17.14,0 L-17.14,0 " class="primitive"/>
  </g>
</g>
<g stroke-width="0.35" stroke="#000000" id="img-b06308d8-28">
  <g transform="translate(105.88,71.11)">
    <path fill="none" d="M17.14,0 L-17.14,0 " class="primitive"/>
  </g>
</g>
<g stroke-width="0.35" stroke="#000000" id="img-b06308d8-29">
  <g transform="translate(105.88,57.78)">
    <path fill="none" d="M17.14,0 L-17.14,0 " class="primitive"/>
  </g>
</g>
<g stroke-width="0.35" stroke="#000000" id="img-b06308d8-30">
  <g transform="translate(105.88,44.44)">
    <path fill="none" d="M17.14,0 L-17.14,0 " class="primitive"/>
  </g>
</g>
<g stroke-width="0.35" stroke="#000000" id="img-b06308d8-31">
  <g transform="translate(88.74,31.11)">
    <path fill="none" d="M34.29,0 L-34.29,0 " class="primitive"/>
  </g>
</g>
<g stroke-width="0.35" stroke="#000000" id="img-b06308d8-32">
  <g transform="translate(123.03,47.78)">
    <path fill="none" d="M0,16.67 L0,-16.67 " class="primitive"/>
  </g>
</g>
<g stroke-width="0.35" stroke="#000000" id="img-b06308d8-33">
  <g transform="translate(37.31,31.11)">
    <path fill="none" d="M17.14,0 L-17.14,0 " class="primitive"/>
  </g>
</g>
<g stroke-width="0.35" stroke="#000000" id="img-b06308d8-34">
  <g transform="translate(54.45,71.11)">
    <path fill="none" d="M34.29,0 L-34.29,0 " class="primitive"/>
  </g>
</g>
<g stroke-width="0.35" stroke="#000000" id="img-b06308d8-35">
  <g transform="translate(54.45,57.78)">
    <path fill="none" d="M34.29,0 L-34.29,0 " class="primitive"/>
  </g>
</g>
<g stroke-width="0.35" stroke="#000000" id="img-b06308d8-36">
  <g transform="translate(71.6,44.44)">
    <path fill="none" d="M17.14,0 L-17.14,0 " class="primitive"/>
  </g>
</g>
<g stroke-width="0.35" stroke="#000000" id="img-b06308d8-37">
  <g transform="translate(88.74,54.44)">
    <path fill="none" d="M0,10 L0,-10 " class="primitive"/>
  </g>
</g>
<g stroke-width="0.35" stroke="#000000" id="img-b06308d8-38">
  <g transform="translate(37.31,44.44)">
    <path fill="none" d="M17.14,0 L-17.14,0 " class="primitive"/>
  </g>
</g>
<g stroke-width="0.35" stroke="#000000" fill="#FFFFFF" id="img-b06308d8-39">
  <g transform="translate(191.6,64.44)">
    <path d="M-12.1,-10.22 L12.1,-10.22 12.1,10.22 -12.1,10.22  z" class="primitive"/>
  </g>
</g>
<g fill="#000000" id="img-b06308d8-40">
  <g transform="translate(191.6,4.44)">
    <circle cx="0" cy="0" r="2.69" class="primitive"/>
  </g>
</g>
<g stroke-width="0.35" stroke="#000000" fill="#FFFFFF" id="img-b06308d8-41">
  <g transform="translate(54.45,4.44)">
    <path d="M-8.07,-3.56 L8.07,-3.56 8.07,3.56 -8.07,3.56  z" class="primitive"/>
  </g>
</g>
<g stroke-width="0.35" stroke="#000000" fill="#FFFFFF" id="img-b06308d8-42">
  <g transform="translate(157.31,64.44)">
    <path d="M-12.1,-10.22 L12.1,-10.22 12.1,10.22 -12.1,10.22  z" class="primitive"/>
  </g>
</g>
<g fill="#000000" id="img-b06308d8-43">
  <g transform="translate(157.31,17.78)">
    <circle cx="0" cy="0" r="2.69" class="primitive"/>
  </g>
</g>
<g stroke-width="0.35" stroke="#000000" fill="#FFFFFF" id="img-b06308d8-44">
  <g transform="translate(54.45,17.78)">
    <path d="M-8.07,-3.56 L8.07,-3.56 8.07,3.56 -8.07,3.56  z" class="primitive"/>
  </g>
</g>
<g stroke-width="0.35" stroke="#000000" fill="#FFFFFF" id="img-b06308d8-45">
  <g transform="translate(123.03,64.44)">
    <path d="M-12.1,-10.22 L12.1,-10.22 12.1,10.22 -12.1,10.22  z" class="primitive"/>
  </g>
</g>
<g fill="#000000" id="img-b06308d8-46">
  <g transform="translate(123.03,31.11)">
    <circle cx="0" cy="0" r="2.69" class="primitive"/>
  </g>
</g>
<g stroke-width="0.35" stroke="#000000" fill="#FFFFFF" id="img-b06308d8-47">
  <g transform="translate(54.45,31.11)">
    <path d="M-8.07,-3.56 L8.07,-3.56 8.07,3.56 -8.07,3.56  z" class="primitive"/>
  </g>
</g>
<g stroke-width="0.35" stroke="#000000" fill="#FFFFFF" id="img-b06308d8-48">
  <g transform="translate(88.74,64.44)">
    <path d="M-12.1,-10.22 L12.1,-10.22 12.1,10.22 -12.1,10.22  z" class="primitive"/>
  </g>
</g>
<g fill="#000000" id="img-b06308d8-49">
  <g transform="translate(88.74,44.44)">
    <circle cx="0" cy="0" r="2.69" class="primitive"/>
  </g>
</g>
<g stroke-width="0.35" stroke="#000000" fill="#FFFFFF" id="img-b06308d8-50">
  <g transform="translate(54.45,44.44)">
    <path d="M-8.07,-3.56 L8.07,-3.56 8.07,3.56 -8.07,3.56  z" class="primitive"/>
  </g>
</g>
<g font-family="Helvetica Neue" font-size="3.53" id="img-b06308d8-51">
  <g transform="translate(191.6,64.44)">
    <g class="primitive">
      <text text-anchor="middle" dy="0.35em">U(3)</text>
    </g>
  </g>
</g>
<g font-family="Helvetica Neue" font-size="5.64" id="img-b06308d8-52">
  <g transform="translate(54.45,4.44)">
    <g class="primitive">
      <text text-anchor="middle" dy="0.35em">H</text>
    </g>
  </g>
</g>
<g font-family="Helvetica Neue" font-size="3.53" id="img-b06308d8-53">
  <g transform="translate(157.31,64.44)">
    <g class="primitive">
      <text text-anchor="middle" dy="0.35em">U(2)</text>
    </g>
  </g>
</g>
<g font-family="Helvetica Neue" font-size="5.64" id="img-b06308d8-54">
  <g transform="translate(54.45,17.78)">
    <g class="primitive">
      <text text-anchor="middle" dy="0.35em">H</text>
    </g>
  </g>
</g>
<g font-family="Helvetica Neue" font-size="3.53" id="img-b06308d8-55">
  <g transform="translate(123.03,64.44)">
    <g class="primitive">
      <text text-anchor="middle" dy="0.35em">U(1)</text>
    </g>
  </g>
</g>
<g font-family="Helvetica Neue" font-size="5.64" id="img-b06308d8-56">
  <g transform="translate(54.45,31.11)">
    <g class="primitive">
      <text text-anchor="middle" dy="0.35em">H</text>
    </g>
  </g>
</g>
<g font-family="Helvetica Neue" font-size="3.53" id="img-b06308d8-57">
  <g transform="translate(88.74,64.44)">
    <g class="primitive">
      <text text-anchor="middle" dy="0.35em">U(0)</text>
    </g>
  </g>
</g>
<g font-family="Helvetica Neue" font-size="5.64" id="img-b06308d8-58">
  <g transform="translate(54.45,44.44)">
    <g class="primitive">
      <text text-anchor="middle" dy="0.35em">H</text>
    </g>
  </g>
</g>
</svg>
