<?xml version="1.0" encoding="UTF-8"?>
<svg xmlns="http://www.w3.org/2000/svg"
     xmlns:xlink="http://www.w3.org/1999/xlink"
     version="1.2"
     width="403.75mm" height="112.5mm" viewBox="0 0 403.75 112.5"
     stroke="none"
     fill="#000000"
     stroke-width="0.3"
     font-size="3.88"
>
<defs>
  <marker id="arrow" markerWidth="15" markerHeight="7" refX="5" refY="3.5" orient="auto" markerUnits="strokeWidth">
    <path d="M0,0 L15,3.5 L0,7 z" stroke="context-stroke" fill="context-stroke"/>
  </marker>
</defs>
<g stroke-width="0.35" stroke="#000000" id="img-f4092050-1">
  <g transform="translate(256.88,100)">
    <path fill="none" d="M138.12,0 L-138.12,0 " class="primitive"/>
  </g>
</g>
<g stroke-width="0.35" stroke="#000000" id="img-f4092050-2">
  <g transform="translate(395,100)">
    <path fill="none" d="M0,-3.75 L0,3.75 " class="primitive"/>
  </g>
</g>
<g stroke-width="0.35" stroke="#000000" id="img-f4092050-3">
  <g transform="translate(256.88,81.25)">
    <path fill="none" d="M138.12,0 L-138.12,0 " class="primitive"/>
  </g>
</g>
<g stroke-width="0.35" stroke="#000000" id="img-f4092050-4">
  <g transform="translate(395,81.25)">
    <path fill="none" d="M0,-3.75 L0,3.75 " class="primitive"/>
  </g>
</g>
<g stroke-width="0.35" stroke="#000000" id="img-f4092050-5">
  <g transform="translate(352.5,62.5)">
    <path fill="none" d="M42.5,0 L-42.5,0 " class="primitive"/>
  </g>
</g>
<g stroke-width="0.35" stroke="#000000" id="img-f4092050-6">
  <g transform="translate(395,62.5)">
    <path fill="none" d="M0,-3.75 L0,3.75 " class="primitive"/>
  </g>
</g>
<g stroke-width="0.35" stroke="#000000" id="img-f4092050-7">
  <g transform="translate(363.12,43.75)">
    <path fill="none" d="M31.88,0 L-31.87,0 " class="primitive"/>
  </g>
</g>
<g stroke-width="0.35" stroke="#000000" id="img-f4092050-8">
  <g transform="translate(395,43.75)">
    <path fill="none" d="M0,-3.75 L0,3.75 " class="primitive"/>
  </g>
</g>
<g stroke-width="0.35" stroke="#000000" id="img-f4092050-9">
  <g transform="translate(373.75,25)">
    <path fill="none" d="M21.25,0 L-21.25,0 " class="primitive"/>
  </g>
</g>
<g stroke-width="0.35" stroke="#000000" id="img-f4092050-10">
  <g transform="translate(395,25)">
    <path fill="none" d="M0,-3.75 L0,3.75 " class="primitive"/>
  </g>
</g>
<g stroke-width="0.35" stroke="#000000" id="img-f4092050-11">
  <g transform="translate(384.38,6.25)">
    <path fill="none" d="M10.62,0 L-10.62,0 " class="primitive"/>
  </g>
</g>
<g stroke-width="0.35" stroke="#000000" id="img-f4092050-12">
  <g transform="translate(395,6.25)">
    <path fill="none" d="M0,-3.75 L0,3.75 " class="primitive"/>
  </g>
</g>
<g stroke-width="0.35" stroke="#000000" id="img-f4092050-13">
  <g transform="translate(363.13,6.25)">
    <path fill="none" d="M10.62,0 L-10.62,0 " class="primitive"/>
  </g>
</g>
<g stroke-width="0.35" stroke="#000000" id="img-f4092050-14">
  <g transform="translate(341.88,25)">
    <path fill="none" d="M10.62,0 L-10.62,0 " class="primitive"/>
  </g>
</g>
<g stroke-width="0.35" stroke="#000000" id="img-f4092050-15">
  <g transform="translate(341.88,6.25)">
    <path fill="none" d="M10.62,0 L-10.62,0 " class="primitive"/>
  </g>
</g>
<g stroke-width="0.35" stroke="#000000" id="img-f4092050-16">
  <g transform="translate(352.5,15.62)">
    <path fill="none" d="M0,9.38 L0,-9.38 " class="primitive"/>
  </g>
</g>
<g stroke-width="0.35" stroke="#000000" id="img-f4092050-17">
  <g transform="translate(320.63,43.75)">
    <path fill="none" d="M10.62,0 L-10.62,0 " class="primitive"/>
  </g>
</g>
<g stroke-width="0.35" stroke="#000000" id="img-f4092050-18">
  <g transform="translate(320.63,25)">
    <path fill="none" d="M10.62,0 L-10.62,0 " class="primitive"/>
  </g>
</g>
<g stroke-width="0.35" stroke="#000000" id="img-f4092050-19">
  <g transform="translate(320.63,6.25)">
    <path fill="none" d="M10.62,0 L-10.62,0 " class="primitive"/>
  </g>
</g>
<g stroke-width="0.35" stroke="#000000" id="img-f4092050-20">
  <g transform="translate(331.25,25)">
    <path fill="none" d="M0,18.75 L0,-18.75 " class="primitive"/>
  </g>
</g>
<g stroke-width="0.35" stroke="#000000" id="img-f4092050-21">
  <g transform="translate(278.13,62.5)">
    <path fill="none" d="M31.88,0 L-31.88,0 " class="primitive"/>
  </g>
</g>
<g stroke-width="0.35" stroke="#000000" id="img-f4092050-22">
  <g transform="translate(288.75,43.75)">
    <path fill="none" d="M21.25,0 L-21.25,0 " class="primitive"/>
  </g>
</g>
<g stroke-width="0.35" stroke="#000000" id="img-f4092050-23">
  <g transform="translate(299.38,25)">
    <path fill="none" d="M10.63,0 L-10.62,0 " class="primitive"/>
  </g>
</g>
<g stroke-width="0.35" stroke="#000000" id="img-f4092050-24">
  <g transform="translate(235.63,6.25)">
    <path fill="none" d="M74.38,0 L-74.38,0 " class="primitive"/>
  </g>
</g>
<g stroke-width="0.35" stroke="#000000" id="img-f4092050-25">
  <g transform="translate(310,34.38)">
    <path fill="none" d="M0,28.12 L0,-28.12 " class="primitive"/>
  </g>
</g>
<g stroke-width="0.35" stroke="#000000" id="img-f4092050-26">
  <g transform="translate(278.12,25)">
    <path fill="none" d="M10.62,0 L-10.62,0 " class="primitive"/>
  </g>
</g>
<g stroke-width="0.35" stroke="#000000" id="img-f4092050-27">
  <g transform="translate(256.88,43.75)">
    <path fill="none" d="M10.62,0 L-10.63,0 " class="primitive"/>
  </g>
</g>
<g stroke-width="0.35" stroke="#000000" id="img-f4092050-28">
  <g transform="translate(256.88,25)">
    <path fill="none" d="M10.62,0 L-10.63,0 " class="primitive"/>
  </g>
</g>
<g stroke-width="0.35" stroke="#000000" id="img-f4092050-29">
  <g transform="translate(267.5,34.38)">
    <path fill="none" d="M0,9.38 L0,-9.38 " class="primitive"/>
  </g>
</g>
<g stroke-width="0.35" stroke="#000000" id="img-f4092050-30">
  <g transform="translate(225,62.5)">
    <path fill="none" d="M21.25,0 L-21.25,0 " class="primitive"/>
  </g>
</g>
<g stroke-width="0.35" stroke="#000000" id="img-f4092050-31">
  <g transform="translate(235.63,43.75)">
    <path fill="none" d="M10.62,0 L-10.62,0 " class="primitive"/>
  </g>
</g>
<g stroke-width="0.35" stroke="#000000" id="img-f4092050-32">
  <g transform="translate(203.75,25)">
    <path fill="none" d="M42.5,0 L-42.5,0 " class="primitive"/>
  </g>
</g>
<g stroke-width="0.35" stroke="#000000" id="img-f4092050-33">
  <g transform="translate(246.25,43.75)">
    <path fill="none" d="M0,18.75 L0,-18.75 " class="primitive"/>
  </g>
</g>
<g stroke-width="0.35" stroke="#000000" id="img-f4092050-34">
  <g transform="translate(214.38,43.75)">
    <path fill="none" d="M10.63,0 L-10.62,0 " class="primitive"/>
  </g>
</g>
<g stroke-width="0.35" stroke="#000000" id="img-f4092050-35">
  <g transform="translate(193.12,62.5)">
    <path fill="none" d="M10.62,0 L-10.62,0 " class="primitive"/>
  </g>
</g>
<g stroke-width="0.35" stroke="#000000" id="img-f4092050-36">
  <g transform="translate(182.5,43.75)">
    <path fill="none" d="M21.25,0 L-21.25,0 " class="primitive"/>
  </g>
</g>
<g stroke-width="0.35" stroke="#000000" id="img-f4092050-37">
  <g transform="translate(203.75,53.12)">
    <path fill="none" d="M0,9.38 L0,-9.38 " class="primitive"/>
  </g>
</g>
<g stroke-width="0.35" stroke="#000000" id="img-f4092050-38">
  <g transform="translate(171.88,62.5)">
    <path fill="none" d="M10.62,0 L-10.62,0 " class="primitive"/>
  </g>
</g>
<g stroke-width="0.35" stroke="#000000" id="img-f4092050-39">
  <g transform="translate(140,62.5)">
    <path fill="none" d="M21.25,0 L-21.25,0 " class="primitive"/>
  </g>
</g>
<g stroke-width="0.35" stroke="#000000" id="img-f4092050-40">
  <g transform="translate(150.63,43.75)">
    <path fill="none" d="M10.62,0 L-10.62,0 " class="primitive"/>
  </g>
</g>
<g stroke-width="0.35" stroke="#000000" id="img-f4092050-41">
  <g transform="translate(150.63,25)">
    <path fill="none" d="M10.62,0 L-10.62,0 " class="primitive"/>
  </g>
</g>
<g stroke-width="0.35" stroke="#000000" id="img-f4092050-42">
  <g transform="translate(140,6.25)">
    <path fill="none" d="M21.25,0 L-21.25,0 " class="primitive"/>
  </g>
</g>
<g stroke-width="0.35" stroke="#000000" id="img-f4092050-43">
  <g transform="translate(161.25,34.38)">
    <path fill="none" d="M0,28.12 L0,-28.12 " class="primitive"/>
  </g>
</g>
<g stroke-width="0.35" stroke="#000000" id="img-f4092050-44">
  <g transform="translate(129.38,43.75)">
    <path fill="none" d="M10.62,0 L-10.63,0 " class="primitive"/>
  </g>
</g>
<g stroke-width="0.35" stroke="#000000" id="img-f4092050-45">
  <g transform="translate(129.38,25)">
    <path fill="none" d="M10.62,0 L-10.63,0 " class="primitive"/>
  </g>
</g>
<g stroke-width="0.35" stroke="#000000" id="img-f4092050-46">
  <g transform="translate(140,34.38)">
    <path fill="none" d="M0,9.38 L0,-9.38 " class="primitive"/>
  </g>
</g>
<g stroke-width="0.35" stroke="#000000" id="img-f4092050-47">
  <g transform="translate(108.13,100)">
    <path fill="none" d="M10.62,0 L-10.62,0 " class="primitive"/>
  </g>
</g>
<g stroke-width="0.35" stroke="#000000" id="img-f4092050-48">
  <g transform="translate(108.13,81.25)">
    <path fill="none" d="M10.62,0 L-10.62,0 " class="primitive"/>
  </g>
</g>
<g stroke-width="0.35" stroke="#000000" id="img-f4092050-49">
  <g transform="translate(108.13,62.5)">
    <path fill="none" d="M10.62,0 L-10.62,0 " class="primitive"/>
  </g>
</g>
<g stroke-width="0.35" stroke="#000000" id="img-f4092050-50">
  <g transform="translate(108.13,43.75)">
    <path fill="none" d="M10.62,0 L-10.62,0 " class="primitive"/>
  </g>
</g>
<g stroke-width="0.35" stroke="#000000" id="img-f4092050-51">
  <g transform="translate(108.13,25)">
    <path fill="none" d="M10.62,0 L-10.62,0 " class="primitive"/>
  </g>
</g>
<g stroke-width="0.35" stroke="#000000" id="img-f4092050-52">
  <g transform="translate(76.25,6.25)">
    <path fill="none" d="M42.5,0 L-42.5,0 " class="primitive"/>
  </g>
</g>
<g stroke-width="0.35" stroke="#000000" id="img-f4092050-53">
  <g transform="translate(118.75,48.44)">
    <path fill="none" d="M0,42.19 L0,-42.19 " class="primitive"/>
  </g>
</g>
<g stroke-width="0.35" stroke="#000000" id="img-f4092050-54">
  <g transform="translate(23.13,6.25)">
    <path fill="none" d="M10.63,0 L-10.63,0 " class="primitive"/>
  </g>
</g>
<g stroke-width="0.35" stroke="#000000" id="img-f4092050-55">
  <g transform="translate(86.88,100)">
    <path fill="none" d="M10.62,0 L-10.62,0 " class="primitive"/>
  </g>
</g>
<g stroke-width="0.35" stroke="#000000" id="img-f4092050-56">
  <g transform="translate(86.88,81.25)">
    <path fill="none" d="M10.62,0 L-10.62,0 " class="primitive"/>
  </g>
</g>
<g stroke-width="0.35" stroke="#000000" id="img-f4092050-57">
  <g transform="translate(86.88,62.5)">
    <path fill="none" d="M10.62,0 L-10.62,0 " class="primitive"/>
  </g>
</g>
<g stroke-width="0.35" stroke="#000000" id="img-f4092050-58">
  <g transform="translate(86.88,43.75)">
    <path fill="none" d="M10.62,0 L-10.62,0 " class="primitive"/>
  </g>
</g>
<g stroke-width="0.35" stroke="#000000" id="img-f4092050-59">
  <g transform="translate(65.63,25)">
    <path fill="none" d="M31.88,0 L-31.88,0 " class="primitive"/>
  </g>
</g>
<g stroke-width="0.35" stroke="#000000" id="img-f4092050-60">
  <g transform="translate(97.5,57.81)">
    <path fill="none" d="M0,32.81 L0,-32.81 " class="primitive"/>
  </g>
</g>
<g stroke-width="0.35" stroke="#000000" id="img-f4092050-61">
  <g transform="translate(23.13,25)">
    <path fill="none" d="M10.63,0 L-10.63,0 " class="primitive"/>
  </g>
</g>
<g stroke-width="0.35" stroke="#000000" id="img-f4092050-62">
  <g transform="translate(65.63,100)">
    <path fill="none" d="M10.62,0 L-10.63,0 " class="primitive"/>
  </g>
</g>
<g stroke-width="0.35" stroke="#000000" id="img-f4092050-63">
  <g transform="translate(65.63,81.25)">
    <path fill="none" d="M10.62,0 L-10.63,0 " class="primitive"/>
  </g>
</g>
<g stroke-width="0.35" stroke="#000000" id="img-f4092050-64">
  <g transform="translate(65.63,62.5)">
    <path fill="none" d="M10.62,0 L-10.63,0 " class="primitive"/>
  </g>
</g>
<g stroke-width="0.35" stroke="#000000" id="img-f4092050-65">
  <g transform="translate(55,43.75)">
    <path fill="none" d="M21.25,0 L-21.25,0 " class="primitive"/>
  </g>
</g>
<g stroke-width="0.35" stroke="#000000" id="img-f4092050-66">
  <g transform="translate(76.25,67.19)">
    <path fill="none" d="M0,23.44 L0,-23.44 " class="primitive"/>
  </g>
</g>
<g stroke-width="0.35" stroke="#000000" id="img-f4092050-67">
  <g transform="translate(23.13,43.75)">
    <path fill="none" d="M10.63,0 L-10.63,0 " class="primitive"/>
  </g>
</g>
<g stroke-width="0.35" stroke="#000000" id="img-f4092050-68">
  <g transform="translate(33.75,100)">
    <path fill="none" d="M21.25,0 L-21.25,0 " class="primitive"/>
  </g>
</g>
<g stroke-width="0.35" stroke="#000000" id="img-f4092050-69">
  <g transform="translate(33.75,81.25)">
    <path fill="none" d="M21.25,0 L-21.25,0 " class="primitive"/>
  </g>
</g>
<g stroke-width="0.35" stroke="#000000" id="img-f4092050-70">
  <g transform="translate(44.38,62.5)">
    <path fill="none" d="M10.62,0 L-10.62,0 " class="primitive"/>
  </g>
</g>
<g stroke-width="0.35" stroke="#000000" id="img-f4092050-71">
  <g transform="translate(55,76.56)">
    <path fill="none" d="M0,14.06 L0,-14.06 " class="primitive"/>
  </g>
</g>
<g stroke-width="0.35" stroke="#000000" id="img-f4092050-72">
  <g transform="translate(23.13,62.5)">
    <path fill="none" d="M10.63,0 L-10.63,0 " class="primitive"/>
  </g>
</g>
<g stroke-width="0.35" stroke="#000000" fill="#FFFFFF" id="img-f4092050-73">
  <g transform="translate(373.75,6.25)">
    <path d="M-5,-5 L5,-5 5,5 -5,5  z" class="primitive"/>
  </g>
</g>
<g fill="#000000" id="img-f4092050-74">
  <g transform="translate(352.5,25)">
    <circle cx="0" cy="0" r="1.67" class="primitive"/>
  </g>
</g>
<g stroke-width="0.35" stroke="#000000" fill="#FFFFFF" id="img-f4092050-75">
  <g transform="translate(352.5,6.25)">
    <path d="M-7.5,-5 L7.5,-5 7.5,5 -7.5,5  z" class="primitive"/>
  </g>
</g>
<g fill="#000000" id="img-f4092050-76">
  <g transform="translate(331.25,43.75)">
    <circle cx="0" cy="0" r="1.67" class="primitive"/>
  </g>
</g>
<g stroke-width="0.35" stroke="#000000" fill="#FFFFFF" id="img-f4092050-77">
  <g transform="translate(331.25,6.25)">
    <path d="M-7.5,-5 L7.5,-5 7.5,5 -7.5,5  z" class="primitive"/>
  </g>
</g>
<g fill="#000000" id="img-f4092050-78">
  <g transform="translate(310,62.5)">
    <circle cx="0" cy="0" r="1.67" class="primitive"/>
  </g>
</g>
<g stroke-width="0.35" stroke="#000000" fill="#FFFFFF" id="img-f4092050-79">
  <g transform="translate(310,6.25)">
    <path d="M-7.5,-5 L7.5,-5 7.5,5 -7.5,5  z" class="primitive"/>
  </g>
</g>
<g stroke-width="0.35" stroke="#000000" fill="#FFFFFF" id="img-f4092050-80">
  <g transform="translate(288.75,25)">
    <path d="M-5,-5 L5,-5 5,5 -5,5  z" class="primitive"/>
  </g>
</g>
<g fill="#000000" id="img-f4092050-81">
  <g transform="translate(267.5,43.75)">
    <circle cx="0" cy="0" r="1.67" class="primitive"/>
  </g>
</g>
<g stroke-width="0.35" stroke="#000000" fill="#FFFFFF" id="img-f4092050-82">
  <g transform="translate(267.5,25)">
    <path d="M-7.5,-5 L7.5,-5 7.5,5 -7.5,5  z" class="primitive"/>
  </g>
</g>
<g fill="#000000" id="img-f4092050-83">
  <g transform="translate(246.25,62.5)">
    <circle cx="0" cy="0" r="1.67" class="primitive"/>
  </g>
</g>
<g stroke-width="0.35" stroke="#000000" fill="#FFFFFF" id="img-f4092050-84">
  <g transform="translate(246.25,25)">
    <path d="M-7.5,-5 L7.5,-5 7.5,5 -7.5,5  z" class="primitive"/>
  </g>
</g>
<g stroke-width="0.35" stroke="#000000" fill="#FFFFFF" id="img-f4092050-85">
  <g transform="translate(225,43.75)">
    <path d="M-5,-5 L5,-5 5,5 -5,5  z" class="primitive"/>
  </g>
</g>
<g fill="#000000" id="img-f4092050-86">
  <g transform="translate(203.75,62.5)">
    <circle cx="0" cy="0" r="1.67" class="primitive"/>
  </g>
</g>
<g stroke-width="0.35" stroke="#000000" fill="#FFFFFF" id="img-f4092050-87">
  <g transform="translate(203.75,43.75)">
    <path d="M-7.5,-5 L7.5,-5 7.5,5 -7.5,5  z" class="primitive"/>
  </g>
</g>
<g stroke-width="0.35" stroke="#000000" fill="#FFFFFF" id="img-f4092050-88">
  <g transform="translate(182.5,62.5)">
    <path d="M-5,-5 L5,-5 5,5 -5,5  z" class="primitive"/>
  </g>
</g>
<g fill="#000000" id="img-f4092050-89">
  <g transform="translate(161.25,62.5)">
    <path d="M-0.5,0 L-3.78,-3.28 -3.28,-3.78 0,-0.5 3.28,-3.78 3.78,-3.28 0.5,0 3.78,3.28 3.28,3.78 0,0.5 -3.28,3.78 -3.78,3.28  z" class="primitive"/>
  </g>
</g>
<g fill="#000000" id="img-f4092050-90">
  <g transform="translate(161.25,6.25)">
    <path d="M-0.5,0 L-3.78,-3.28 -3.28,-3.78 0,-0.5 3.28,-3.78 3.78,-3.28 0.5,0 3.78,3.28 3.28,3.78 0,0.5 -3.28,3.78 -3.78,3.28  z" class="primitive"/>
  </g>
</g>
<g fill="#000000" id="img-f4092050-91">
  <g transform="translate(140,43.75)">
    <path d="M-0.5,0 L-3.78,-3.28 -3.28,-3.78 0,-0.5 3.28,-3.78 3.78,-3.28 0.5,0 3.78,3.28 3.28,3.78 0,0.5 -3.28,3.78 -3.78,3.28  z" class="primitive"/>
  </g>
</g>
<g fill="#000000" id="img-f4092050-92">
  <g transform="translate(140,25)">
    <path d="M-0.5,-0 L-3.78,-3.28 -3.28,-3.78 0,-0.5 3.28,-3.78 3.78,-3.28 0.5,-0 3.78,3.28 3.28,3.78 0,0.5 -3.28,3.78 -3.78,3.28  z" class="primitive"/>
  </g>
</g>
<g stroke-width="0.35" stroke="#000000" fill="#FFFFFF" id="img-f4092050-93">
  <g transform="translate(118.75,90.62)">
    <path d="M-7.5,-14.37 L7.5,-14.37 7.5,14.37 -7.5,14.37  z" class="primitive"/>
  </g>
</g>
<g fill="#000000" id="img-f4092050-94">
  <g transform="translate(118.75,6.25)">
    <circle cx="0" cy="0" r="1.67" class="primitive"/>
  </g>
</g>
<g stroke-width="0.35" stroke="#000000" fill="#FFFFFF" id="img-f4092050-95">
  <g transform="translate(33.75,6.25)">
    <path d="M-5,-5 L5,-5 5,5 -5,5  z" class="primitive"/>
  </g>
</g>
<g stroke-width="0.35" stroke="#000000" fill="#FFFFFF" id="img-f4092050-96">
  <g transform="translate(97.5,90.62)">
    <path d="M-7.5,-14.37 L7.5,-14.37 7.5,14.37 -7.5,14.37  z" class="primitive"/>
  </g>
</g>
<g fill="#000000" id="img-f4092050-97">
  <g transform="translate(97.5,25)">
    <circle cx="0" cy="0" r="1.67" class="primitive"/>
  </g>
</g>
<g stroke-width="0.35" stroke="#000000" fill="#FFFFFF" id="img-f4092050-98">
  <g transform="translate(33.75,25)">
    <path d="M-5,-5 L5,-5 5,5 -5,5  z" class="primitive"/>
  </g>
</g>
<g stroke-width="0.35" stroke="#000000" fill="#FFFFFF" id="img-f4092050-99">
  <g transform="translate(76.25,90.62)">
    <path d="M-7.5,-14.37 L7.5,-14.37 7.5,14.37 -7.5,14.37  z" class="primitive"/>
  </g>
</g>
<g fill="#000000" id="img-f4092050-100">
  <g transform="translate(76.25,43.75)">
    <circle cx="0" cy="0" r="1.67" class="primitive"/>
  </g>
</g>
<g stroke-width="0.35" stroke="#000000" fill="#FFFFFF" id="img-f4092050-101">
  <g transform="translate(33.75,43.75)">
    <path d="M-5,-5 L5,-5 5,5 -5,5  z" class="primitive"/>
  </g>
</g>
<g stroke-width="0.35" stroke="#000000" fill="#FFFFFF" id="img-f4092050-102">
  <g transform="translate(55,90.62)">
    <path d="M-7.5,-14.37 L7.5,-14.37 7.5,14.37 -7.5,14.37  z" class="primitive"/>
  </g>
</g>
<g fill="#000000" id="img-f4092050-103">
  <g transform="translate(55,62.5)">
    <circle cx="0" cy="0" r="1.67" class="primitive"/>
  </g>
</g>
<g stroke-width="0.35" stroke="#000000" fill="#FFFFFF" id="img-f4092050-104">
  <g transform="translate(33.75,62.5)">
    <path d="M-5,-5 L5,-5 5,5 -5,5  z" class="primitive"/>
  </g>
</g>
<g font-family="Helvetica Neue" font-size="5.64" id="img-f4092050-105">
  <g transform="translate(373.75,6.25)">
    <g class="primitive">
      <text text-anchor="middle" dy="0.35em">H</text>
    </g>
  </g>
</g>
<g font-family="Helvetica Neue" font-size="3.53" id="img-f4092050-106">
  <g transform="translate(352.5,6.25)">
    <g class="primitive">
      <text text-anchor="middle" dy="0.35em">R(2)†</text>
    </g>
  </g>
</g>
<g font-family="Helvetica Neue" font-size="3.53" id="img-f4092050-107">
  <g transform="translate(331.25,6.25)">
    <g class="primitive">
      <text text-anchor="middle" dy="0.35em">R(3)†</text>
    </g>
  </g>
</g>
<g font-family="Helvetica Neue" font-size="3.53" id="img-f4092050-108">
  <g transform="translate(310,6.25)">
    <g class="primitive">
      <text text-anchor="middle" dy="0.35em">R(4)†</text>
    </g>
  </g>
</g>
<g font-family="Helvetica Neue" font-size="5.64" id="img-f4092050-109">
  <g transform="translate(288.75,25)">
    <g class="primitive">
      <text text-anchor="middle" dy="0.35em">H</text>
    </g>
  </g>
</g>
<g font-family="Helvetica Neue" font-size="3.53" id="img-f4092050-110">
  <g transform="translate(267.5,25)">
    <g class="primitive">
      <text text-anchor="middle" dy="0.35em">R(2)†</text>
    </g>
  </g>
</g>
<g font-family="Helvetica Neue" font-size="3.53" id="img-f4092050-111">
  <g transform="translate(246.25,25)">
    <g class="primitive">
      <text text-anchor="middle" dy="0.35em">R(3)†</text>
    </g>
  </g>
</g>
<g font-family="Helvetica Neue" font-size="5.64" id="img-f4092050-112">
  <g transform="translate(225,43.75)">
    <g class="primitive">
      <text text-anchor="middle" dy="0.35em">H</text>
    </g>
  </g>
</g>
<g font-family="Helvetica Neue" font-size="3.53" id="img-f4092050-113">
  <g transform="translate(203.75,43.75)">
    <g class="primitive">
      <text text-anchor="middle" dy="0.35em">R(2)†</text>
    </g>
  </g>
</g>
<g font-family="Helvetica Neue" font-size="5.64" id="img-f4092050-114">
  <g transform="translate(182.5,62.5)">
    <g class="primitive">
      <text text-anchor="middle" dy="0.35em">H</text>
    </g>
  </g>
</g>
<g font-family="Helvetica Neue" font-size="3.53" id="img-f4092050-115">
  <g transform="translate(118.75,90.62)">
    <g class="primitive">
      <text text-anchor="middle" dy="0.35em">U(3)</text>
    </g>
  </g>
</g>
<g font-family="Helvetica Neue" font-size="5.64" id="img-f4092050-116">
  <g transform="translate(33.75,6.25)">
    <g class="primitive">
      <text text-anchor="middle" dy="0.35em">H</text>
    </g>
  </g>
</g>
<g font-family="Helvetica Neue" font-size="3.53" id="img-f4092050-117">
  <g transform="translate(97.5,90.62)">
    <g class="primitive">
      <text text-anchor="middle" dy="0.35em">U(2)</text>
    </g>
  </g>
</g>
<g font-family="Helvetica Neue" font-size="5.64" id="img-f4092050-118">
  <g transform="translate(33.75,25)">
    <g class="primitive">
      <text text-anchor="middle" dy="0.35em">H</text>
    </g>
  </g>
</g>
<g font-family="Helvetica Neue" font-size="3.53" id="img-f4092050-119">
  <g transform="translate(76.25,90.62)">
    <g class="primitive">
      <text text-anchor="middle" dy="0.35em">U(1)</text>
    </g>
  </g>
</g>
<g font-family="Helvetica Neue" font-size="5.64" id="img-f4092050-120">
  <g transform="translate(33.75,43.75)">
    <g class="primitive">
      <text text-anchor="middle" dy="0.35em">H</text>
    </g>
  </g>
</g>
<g font-family="Helvetica Neue" font-size="3.53" id="img-f4092050-121">
  <g transform="translate(55,90.62)">
    <g class="primitive">
      <text text-anchor="middle" dy="0.35em">U(0)</text>
    </g>
  </g>
</g>
<g font-family="Helvetica Neue" font-size="5.64" id="img-f4092050-122">
  <g transform="translate(33.75,62.5)">
    <g class="primitive">
      <text text-anchor="middle" dy="0.35em">H</text>
    </g>
  </g>
</g>
</svg>
