<?xml version="1.0" encoding="UTF-8"?>
<svg xmlns="http://www.w3.org/2000/svg"
     xmlns:xlink="http://www.w3.org/1999/xlink"
     version="1.2"
     width="240mm" height="80mm" viewBox="0 0 240 80"
     stroke="none"
     fill="#000000"
     stroke-width="0.3"
     font-size="3.88"
>
<defs>
  <marker id="arrow" markerWidth="15" markerHeight="7" refX="5" refY="3.5" orient="auto" markerUnits="strokeWidth">
    <path d="M0,0 L15,3.5 L0,7 z" stroke="context-stroke" fill="context-stroke"/>
  </marker>
</defs>
<g stroke-width="0.35" stroke="#000000" id="img-8f5c353d-1">
  <g transform="translate(222.17,69.33)">
    <path fill="none" d="M12.63,0 L-12.63,0 " class="primitive"/>
  </g>
</g>
<g stroke-width="0.35" stroke="#000000" id="img-8f5c353d-2">
  <g transform="translate(234.8,69.33)">
    <path fill="none" d="M0,-3.2 L0,3.2 " class="primitive"/>
  </g>
</g>
<g stroke-width="0.35" stroke="#000000" id="img-8f5c353d-3">
  <g transform="translate(228.48,53.33)">
    <path fill="none" d="M6.32,0 L-6.32,0 " class="primitive"/>
  </g>
</g>
<g stroke-width="0.35" stroke="#000000" id="img-8f5c353d-4">
  <g transform="translate(234.8,53.33)">
    <path fill="none" d="M0,-3.2 L0,3.2 " class="primitive"/>
  </g>
</g>
<g stroke-width="0.35" stroke="#000000" id="img-8f5c353d-5">
  <g transform="translate(228.48,37.33)">
    <path fill="none" d="M6.32,0 L-6.32,0 " class="primitive"/>
  </g>
</g>
<g stroke-width="0.35" stroke="#000000" id="img-8f5c353d-6">
  <g transform="translate(234.8,37.33)">
    <path fill="none" d="M0,-3.2 L0,3.2 " class="primitive"/>
  </g>
</g>
<g stroke-width="0.35" stroke="#000000" id="img-8f5c353d-7">
  <g transform="translate(228.48,21.33)">
    <path fill="none" d="M6.32,0 L-6.32,0 " class="primitive"/>
  </g>
</g>
<g stroke-width="0.35" stroke="#000000" id="img-8f5c353d-8">
  <g transform="translate(234.8,21.33)">
    <path fill="none" d="M0,-3.2 L0,3.2 " class="primitive"/>
  </g>
</g>
<g stroke-width="0.35" stroke="#000000" id="img-8f5c353d-9">
  <g transform="translate(222.17,5.33)">
    <path fill="none" d="M12.63,0 L-12.63,0 " class="primitive"/>
  </g>
</g>
<g stroke-width="0.35" stroke="#000000" id="img-8f5c353d-10">
  <g transform="translate(234.8,5.33)">
    <path fill="none" d="M0,-3.2 L0,3.2 " class="primitive"/>
  </g>
</g>
<g stroke-width="0.35" stroke="#000000" id="img-8f5c353d-11">
  <g transform="translate(215.85,53.33)">
    <path fill="none" d="M6.32,0 L-6.32,0 " class="primitive"/>
  </g>
</g>
<g stroke-width="0.35" stroke="#000000" id="img-8f5c353d-12">
  <g transform="translate(215.85,37.33)">
    <path fill="none" d="M6.32,0 L-6.32,0 " class="primitive"/>
  </g>
</g>
<g stroke-width="0.35" stroke="#000000" id="img-8f5c353d-13">
  <g transform="translate(215.85,21.33)">
    <path fill="none" d="M6.32,0 L-6.32,0 " class="primitive"/>
  </g>
</g>
<g stroke-width="0.35" stroke="#000000" id="img-8f5c353d-14">
  <g transform="translate(222.17,37.33)">
    <path fill="none" d="M0,16 L0,-16 " class="primitive"/>
  </g>
</g>
<g stroke-width="0.35" stroke="#000000" id="img-8f5c353d-15">
  <g transform="translate(203.22,69.33)">
    <path fill="none" d="M6.32,0 L-6.32,0 " class="primitive"/>
  </g>
</g>
<g stroke-width="0.35" stroke="#000000" id="img-8f5c353d-16">
  <g transform="translate(196.9,53.33)">
    <path fill="none" d="M12.63,0 L-12.63,0 " class="primitive"/>
  </g>
</g>
<g stroke-width="0.35" stroke="#000000" id="img-8f5c353d-17">
  <g transform="translate(184.27,37.33)">
    <path fill="none" d="M25.26,0 L-25.26,0 " class="primitive"/>
  </g>
</g>
<g stroke-width="0.35" stroke="#000000" id="img-8f5c353d-18">
  <g transform="translate(165.33,21.33)">
    <path fill="none" d="M44.21,0 L-44.21,0 " class="primitive"/>
  </g>
</g>
<g stroke-width="0.35" stroke="#000000" id="img-8f5c353d-19">
  <g transform="translate(140.06,5.33)">
    <path fill="none" d="M69.47,0 L-69.47,0 " class="primitive"/>
  </g>
</g>
<g stroke-width="0.35" stroke="#000000" id="img-8f5c353d-20">
  <g transform="translate(209.54,37.33)">
    <path fill="none" d="M0,32 L0,-32 " class="primitive"/>
  </g>
</g>
<g stroke-width="0.35" stroke="#000000" id="img-8f5c353d-21">
  <g transform="translate(190.59,69.33)">
    <path fill="none" d="M6.32,0 L-6.32,0 " class="primitive"/>
  </g>
</g>
<g stroke-width="0.35" stroke="#000000" id="img-8f5c353d-22">
  <g transform="translate(171.64,69.33)">
    <path fill="none" d="M12.63,0 L-12.63,0 " class="primitive"/>
  </g>
</g>
<g stroke-width="0.35" stroke="#000000" id="img-8f5c353d-23">
  <g transform="translate(177.96,53.33)">
    <path fill="none" d="M6.32,0 L-6.32,0 " class="primitive"/>
  </g>
</g>
<g stroke-width="0.35" stroke="#000000" id="img-8f5c353d-24">
  <g transform="translate(184.27,61.33)">
    <path fill="none" d="M0,8 L0,-8 " class="primitive"/>
  </g>
</g>
<g stroke-width="0.35" stroke="#000000" id="img-8f5c353d-25">
  <g transform="translate(165.33,53.33)">
    <path fill="none" d="M6.32,0 L-6.32,0 " class="primitive"/>
  </g>
</g>
<g stroke-width="0.35" stroke="#000000" id="img-8f5c353d-26">
  <g transform="translate(140.06,69.33)">
    <path fill="none" d="M18.95,0 L-18.95,0 " class="primitive"/>
  </g>
</g>
<g stroke-width="0.35" stroke="#000000" id="img-8f5c353d-27">
  <g transform="translate(152.69,53.33)">
    <path fill="none" d="M6.32,0 L-6.32,0 " class="primitive"/>
  </g>
</g>
<g stroke-width="0.35" stroke="#000000" id="img-8f5c353d-28">
  <g transform="translate(152.69,37.33)">
    <path fill="none" d="M6.32,0 L-6.32,0 " class="primitive"/>
  </g>
</g>
<g stroke-width="0.35" stroke="#000000" id="img-8f5c353d-29">
  <g transform="translate(159.01,53.33)">
    <path fill="none" d="M0,16 L0,-16 " class="primitive"/>
  </g>
</g>
<g stroke-width="0.35" stroke="#000000" id="img-8f5c353d-30">
  <g transform="translate(133.75,53.33)">
    <path fill="none" d="M12.63,0 L-12.63,0 " class="primitive"/>
  </g>
</g>
<g stroke-width="0.35" stroke="#000000" id="img-8f5c353d-31">
  <g transform="translate(140.06,37.33)">
    <path fill="none" d="M6.32,0 L-6.32,0 " class="primitive"/>
  </g>
</g>
<g stroke-width="0.35" stroke="#000000" id="img-8f5c353d-32">
  <g transform="translate(146.38,45.33)">
    <path fill="none" d="M0,8 L0,-8 " class="primitive"/>
  </g>
</g>
<g stroke-width="0.35" stroke="#000000" id="img-8f5c353d-33">
  <g transform="translate(127.43,37.33)">
    <path fill="none" d="M6.32,0 L-6.32,0 " class="primitive"/>
  </g>
</g>
<g stroke-width="0.35" stroke="#000000" id="img-8f5c353d-34">
  <g transform="translate(95.85,69.33)">
    <path fill="none" d="M25.26,0 L-25.26,0 " class="primitive"/>
  </g>
</g>
<g stroke-width="0.35" stroke="#000000" id="img-8f5c353d-35">
  <g transform="translate(114.8,53.33)">
    <path fill="none" d="M6.32,0 L-6.32,0 " class="primitive"/>
  </g>
</g>
<g stroke-width="0.35" stroke="#000000" id="img-8f5c353d-36">
  <g transform="translate(114.8,37.33)">
    <path fill="none" d="M6.32,0 L-6.32,0 " class="primitive"/>
  </g>
</g>
<g stroke-width="0.35" stroke="#000000" id="img-8f5c353d-37">
  <g transform="translate(114.8,21.33)">
    <path fill="none" d="M6.32,0 L-6.32,0 " class="primitive"/>
  </g>
</g>
<g stroke-width="0.35" stroke="#000000" id="img-8f5c353d-38">
  <g transform="translate(121.11,45.33)">
    <path fill="none" d="M0,24 L0,-24 " class="primitive"/>
  </g>
</g>
<g stroke-width="0.35" stroke="#000000" id="img-8f5c353d-39">
  <g transform="translate(89.54,53.33)">
    <path fill="none" d="M18.95,0 L-18.95,0 " class="primitive"/>
  </g>
</g>
<g stroke-width="0.35" stroke="#000000" id="img-8f5c353d-40">
  <g transform="translate(102.17,37.33)">
    <path fill="none" d="M6.32,0 L-6.32,0 " class="primitive"/>
  </g>
</g>
<g stroke-width="0.35" stroke="#000000" id="img-8f5c353d-41">
  <g transform="translate(102.17,21.33)">
    <path fill="none" d="M6.32,0 L-6.32,0 " class="primitive"/>
  </g>
</g>
<g stroke-width="0.35" stroke="#000000" id="img-8f5c353d-42">
  <g transform="translate(108.48,37.33)">
    <path fill="none" d="M0,16 L0,-16 " class="primitive"/>
  </g>
</g>
<g stroke-width="0.35" stroke="#000000" id="img-8f5c353d-43">
  <g transform="translate(83.22,37.33)">
    <path fill="none" d="M12.63,0 L-12.63,0 " class="primitive"/>
  </g>
</g>
<g stroke-width="0.35" stroke="#000000" id="img-8f5c353d-44">
  <g transform="translate(89.54,21.33)">
    <path fill="none" d="M6.32,0 L-6.32,0 " class="primitive"/>
  </g>
</g>
<g stroke-width="0.35" stroke="#000000" id="img-8f5c353d-45">
  <g transform="translate(95.85,29.33)">
    <path fill="none" d="M0,8 L0,-8 " class="primitive"/>
  </g>
</g>
<g stroke-width="0.35" stroke="#000000" id="img-8f5c353d-46">
  <g transform="translate(76.9,21.33)">
    <path fill="none" d="M6.32,0 L-6.32,0 " class="primitive"/>
  </g>
</g>
<g stroke-width="0.35" stroke="#000000" id="img-8f5c353d-47">
  <g transform="translate(39.01,69.33)">
    <path fill="none" d="M31.58,0 L-31.58,0 " class="primitive"/>
  </g>
</g>
<g stroke-width="0.35" stroke="#000000" id="img-8f5c353d-48">
  <g transform="translate(64.27,53.33)">
    <path fill="none" d="M6.32,0 L-6.32,0 " class="primitive"/>
  </g>
</g>
<g stroke-width="0.35" stroke="#000000" id="img-8f5c353d-49">
  <g transform="translate(64.27,37.33)">
    <path fill="none" d="M6.32,0 L-6.32,0 " class="primitive"/>
  </g>
</g>
<g stroke-width="0.35" stroke="#000000" id="img-8f5c353d-50">
  <g transform="translate(64.27,21.33)">
    <path fill="none" d="M6.32,0 L-6.32,0 " class="primitive"/>
  </g>
</g>
<g stroke-width="0.35" stroke="#000000" id="img-8f5c353d-51">
  <g transform="translate(64.27,5.33)">
    <path fill="none" d="M6.32,0 L-6.32,0 " class="primitive"/>
  </g>
</g>
<g stroke-width="0.35" stroke="#000000" id="img-8f5c353d-52">
  <g transform="translate(70.59,37.33)">
    <path fill="none" d="M0,32 L0,-32 " class="primitive"/>
  </g>
</g>
<g stroke-width="0.35" stroke="#000000" id="img-8f5c353d-53">
  <g transform="translate(32.69,53.33)">
    <path fill="none" d="M25.26,0 L-25.26,0 " class="primitive"/>
  </g>
</g>
<g stroke-width="0.35" stroke="#000000" id="img-8f5c353d-54">
  <g transform="translate(51.64,37.33)">
    <path fill="none" d="M6.32,0 L-6.32,0 " class="primitive"/>
  </g>
</g>
<g stroke-width="0.35" stroke="#000000" id="img-8f5c353d-55">
  <g transform="translate(51.64,21.33)">
    <path fill="none" d="M6.32,0 L-6.32,0 " class="primitive"/>
  </g>
</g>
<g stroke-width="0.35" stroke="#000000" id="img-8f5c353d-56">
  <g transform="translate(51.64,5.33)">
    <path fill="none" d="M6.32,0 L-6.32,0 " class="primitive"/>
  </g>
</g>
<g stroke-width="0.35" stroke="#000000" id="img-8f5c353d-57">
  <g transform="translate(57.96,29.33)">
    <path fill="none" d="M0,24 L0,-24 " class="primitive"/>
  </g>
</g>
<g stroke-width="0.35" stroke="#000000" id="img-8f5c353d-58">
  <g transform="translate(26.38,37.33)">
    <path fill="none" d="M18.95,0 L-18.95,0 " class="primitive"/>
  </g>
</g>
<g stroke-width="0.35" stroke="#000000" id="img-8f5c353d-59">
  <g transform="translate(39.01,21.33)">
    <path fill="none" d="M6.32,0 L-6.32,0 " class="primitive"/>
  </g>
</g>
<g stroke-width="0.35" stroke="#000000" id="img-8f5c353d-60">
  <g transform="translate(39.01,5.33)">
    <path fill="none" d="M6.32,0 L-6.32,0 " class="primitive"/>
  </g>
</g>
<g stroke-width="0.35" stroke="#000000" id="img-8f5c353d-61">
  <g transform="translate(45.33,21.33)">
    <path fill="none" d="M0,16 L0,-16 " class="primitive"/>
  </g>
</g>
<g stroke-width="0.35" stroke="#000000" id="img-8f5c353d-62">
  <g transform="translate(20.06,21.33)">
    <path fill="none" d="M12.63,0 L-12.63,0 " class="primitive"/>
  </g>
</g>
<g stroke-width="0.35" stroke="#000000" id="img-8f5c353d-63">
  <g transform="translate(26.38,5.33)">
    <path fill="none" d="M6.32,0 L-6.32,0 " class="primitive"/>
  </g>
</g>
<g stroke-width="0.35" stroke="#000000" id="img-8f5c353d-64">
  <g transform="translate(32.69,13.33)">
    <path fill="none" d="M0,8 L0,-8 " class="primitive"/>
  </g>
</g>
<g stroke-width="0.35" stroke="#000000" id="img-8f5c353d-65">
  <g transform="translate(13.75,5.33)">
    <path fill="none" d="M6.32,0 L-6.32,0 " class="primitive"/>
  </g>
</g>
<g fill="#000000" id="img-8f5c353d-66">
  <g transform="translate(222.17,53.33)">
    <path d="M-0.3,0 L-2.24,-2.8 -1.95,-3.22 -0,-0.43 1.95,-3.22 2.24,-2.8 0.3,0 2.24,2.8 1.95,3.22 -0,0.43 -1.95,3.22 -2.24,2.8  z" class="primitive"/>
  </g>
</g>
<g fill="#000000" id="img-8f5c353d-67">
  <g transform="translate(222.17,21.33)">
    <path d="M-0.3,0 L-2.24,-2.8 -1.95,-3.22 -0,-0.43 1.95,-3.22 2.24,-2.8 0.3,0 2.24,2.8 1.95,3.22 -0,0.43 -1.95,3.22 -2.24,2.8  z" class="primitive"/>
  </g>
</g>
<g fill="#000000" id="img-8f5c353d-68">
  <g transform="translate(209.54,69.33)">
    <path d="M-0.3,0 L-2.24,-2.8 -1.95,-3.22 -0,-0.43 1.95,-3.22 2.24,-2.8 0.3,0 2.24,2.8 1.95,3.22 -0,0.43 -1.95,3.22 -2.24,2.8  z" class="primitive"/>
  </g>
</g>
<g fill="#000000" id="img-8f5c353d-69">
  <g transform="translate(209.54,5.33)">
    <path d="M-0.3,0 L-2.24,-2.8 -1.95,-3.22 -0,-0.43 1.95,-3.22 2.24,-2.8 0.3,0 2.24,2.8 1.95,3.22 -0,0.43 -1.95,3.22 -2.24,2.8  z" class="primitive"/>
  </g>
</g>
<g stroke-width="0.35" stroke="#000000" fill="#FFFFFF" id="img-8f5c353d-70">
  <g transform="translate(196.9,69.33)">
    <path d="M-2.97,-4.27 L2.97,-4.27 2.97,4.27 -2.97,4.27  z" class="primitive"/>
  </g>
</g>
<g fill="#000000" id="img-8f5c353d-71">
  <g transform="translate(184.27,69.33)">
    <circle cx="0" cy="0" r="0.99" class="primitive"/>
  </g>
</g>
<g stroke-width="0.35" stroke="#000000" fill="#FFFFFF" id="img-8f5c353d-72">
  <g transform="translate(184.27,53.33)">
    <path d="M-4.46,-4.27 L4.46,-4.27 4.46,4.27 -4.46,4.27  z" class="primitive"/>
  </g>
</g>
<g stroke-width="0.35" stroke="#000000" fill="#FFFFFF" id="img-8f5c353d-73">
  <g transform="translate(171.64,53.33)">
    <path d="M-2.97,-4.27 L2.97,-4.27 2.97,4.27 -2.97,4.27  z" class="primitive"/>
  </g>
</g>
<g fill="#000000" id="img-8f5c353d-74">
  <g transform="translate(159.01,69.33)">
    <circle cx="0" cy="0" r="0.99" class="primitive"/>
  </g>
</g>
<g stroke-width="0.35" stroke="#000000" fill="#FFFFFF" id="img-8f5c353d-75">
  <g transform="translate(159.01,37.33)">
    <path d="M-4.46,-4.27 L4.46,-4.27 4.46,4.27 -4.46,4.27  z" class="primitive"/>
  </g>
</g>
<g fill="#000000" id="img-8f5c353d-76">
  <g transform="translate(146.38,53.33)">
    <circle cx="0" cy="0" r="0.99" class="primitive"/>
  </g>
</g>
<g stroke-width="0.35" stroke="#000000" fill="#FFFFFF" id="img-8f5c353d-77">
  <g transform="translate(146.38,37.33)">
    <path d="M-4.46,-4.27 L4.46,-4.27 4.46,4.27 -4.46,4.27  z" class="primitive"/>
  </g>
</g>
<g stroke-width="0.35" stroke="#000000" fill="#FFFFFF" id="img-8f5c353d-78">
  <g transform="translate(133.75,37.33)">
    <path d="M-2.97,-4.27 L2.97,-4.27 2.97,4.27 -2.97,4.27  z" class="primitive"/>
  </g>
</g>
<g fill="#000000" id="img-8f5c353d-79">
  <g transform="translate(121.11,69.33)">
    <circle cx="0" cy="0" r="0.99" class="primitive"/>
  </g>
</g>
<g stroke-width="0.35" stroke="#000000" fill="#FFFFFF" id="img-8f5c353d-80">
  <g transform="translate(121.11,21.33)">
    <path d="M-4.46,-4.27 L4.46,-4.27 4.46,4.27 -4.46,4.27  z" class="primitive"/>
  </g>
</g>
<g fill="#000000" id="img-8f5c353d-81">
  <g transform="translate(108.48,53.33)">
    <circle cx="0" cy="0" r="0.99" class="primitive"/>
  </g>
</g>
<g stroke-width="0.35" stroke="#000000" fill="#FFFFFF" id="img-8f5c353d-82">
  <g transform="translate(108.48,21.33)">
    <path d="M-4.46,-4.27 L4.46,-4.27 4.46,4.27 -4.46,4.27  z" class="primitive"/>
  </g>
</g>
<g fill="#000000" id="img-8f5c353d-83">
  <g transform="translate(95.85,37.33)">
    <circle cx="0" cy="0" r="0.99" class="primitive"/>
  </g>
</g>
<g stroke-width="0.35" stroke="#000000" fill="#FFFFFF" id="img-8f5c353d-84">
  <g transform="translate(95.85,21.33)">
    <path d="M-4.46,-4.27 L4.46,-4.27 4.46,4.27 -4.46,4.27  z" class="primitive"/>
  </g>
</g>
<g stroke-width="0.35" stroke="#000000" fill="#FFFFFF" id="img-8f5c353d-85">
  <g transform="translate(83.22,21.33)">
    <path d="M-2.97,-4.27 L2.97,-4.27 2.97,4.27 -2.97,4.27  z" class="primitive"/>
  </g>
</g>
<g fill="#000000" id="img-8f5c353d-86">
  <g transform="translate(70.59,69.33)">
    <circle cx="0" cy="0" r="0.99" class="primitive"/>
  </g>
</g>
<g stroke-width="0.35" stroke="#000000" fill="#FFFFFF" id="img-8f5c353d-87">
  <g transform="translate(70.59,5.33)">
    <path d="M-4.46,-4.27 L4.46,-4.27 4.46,4.27 -4.46,4.27  z" class="primitive"/>
  </g>
</g>
<g fill="#000000" id="img-8f5c353d-88">
  <g transform="translate(57.96,53.33)">
    <circle cx="0" cy="0" r="0.99" class="primitive"/>
  </g>
</g>
<g stroke-width="0.35" stroke="#000000" fill="#FFFFFF" id="img-8f5c353d-89">
  <g transform="translate(57.96,5.33)">
    <path d="M-4.46,-4.27 L4.46,-4.27 4.46,4.27 -4.46,4.27  z" class="primitive"/>
  </g>
</g>
<g fill="#000000" id="img-8f5c353d-90">
  <g transform="translate(45.33,37.33)">
    <circle cx="0" cy="0" r="0.99" class="primitive"/>
  </g>
</g>
<g stroke-width="0.35" stroke="#000000" fill="#FFFFFF" id="img-8f5c353d-91">
  <g transform="translate(45.33,5.33)">
    <path d="M-4.46,-4.27 L4.46,-4.27 4.46,4.27 -4.46,4.27  z" class="primitive"/>
  </g>
</g>
<g fill="#000000" id="img-8f5c353d-92">
  <g transform="translate(32.69,21.33)">
    <circle cx="0" cy="0" r="0.99" class="primitive"/>
  </g>
</g>
<g stroke-width="0.35" stroke="#000000" fill="#FFFFFF" id="img-8f5c353d-93">
  <g transform="translate(32.69,5.33)">
    <path d="M-4.46,-4.27 L4.46,-4.27 4.46,4.27 -4.46,4.27  z" class="primitive"/>
  </g>
</g>
<g stroke-width="0.35" stroke="#000000" fill="#FFFFFF" id="img-8f5c353d-94">
  <g transform="translate(20.06,5.33)">
    <path d="M-2.97,-4.27 L2.97,-4.27 2.97,4.27 -2.97,4.27  z" class="primitive"/>
  </g>
</g>
<g font-family="Helvetica Neue" font-size="5.64" id="img-8f5c353d-95">
  <g transform="translate(196.9,69.33)">
    <g class="primitive">
      <text text-anchor="middle" dy="0.35em">H</text>
    </g>
  </g>
</g>
<g font-family="Helvetica Neue" font-size="3.53" id="img-8f5c353d-96">
  <g transform="translate(184.27,53.33)">
    <g class="primitive">
      <text text-anchor="middle" dy="0.35em">R(2)</text>
    </g>
  </g>
</g>
<g font-family="Helvetica Neue" font-size="5.64" id="img-8f5c353d-97">
  <g transform="translate(171.64,53.33)">
    <g class="primitive">
      <text text-anchor="middle" dy="0.35em">H</text>
    </g>
  </g>
</g>
<g font-family="Helvetica Neue" font-size="3.53" id="img-8f5c353d-98">
  <g transform="translate(159.01,37.33)">
    <g class="primitive">
      <text text-anchor="middle" dy="0.35em">R(3)</text>
    </g>
  </g>
</g>
<g font-family="Helvetica Neue" font-size="3.53" id="img-8f5c353d-99">
  <g transform="translate(146.38,37.33)">
    <g class="primitive">
      <text text-anchor="middle" dy="0.35em">R(2)</text>
    </g>
  </g>
</g>
<g font-family="Helvetica Neue" font-size="5.64" id="img-8f5c353d-100">
  <g transform="translate(133.75,37.33)">
    <g class="primitive">
      <text text-anchor="middle" dy="0.35em">H</text>
    </g>
  </g>
</g>
<g font-family="Helvetica Neue" font-size="3.53" id="img-8f5c353d-101">
  <g transform="translate(121.11,21.33)">
    <g class="primitive">
      <text text-anchor="middle" dy="0.35em">R(4)</text>
    </g>
  </g>
</g>
<g font-family="Helvetica Neue" font-size="3.53" id="img-8f5c353d-102">
  <g transform="translate(108.48,21.33)">
    <g class="primitive">
      <text text-anchor="middle" dy="0.35em">R(3)</text>
    </g>
  </g>
</g>
<g font-family="Helvetica Neue" font-size="3.53" id="img-8f5c353d-103">
  <g transform="translate(95.85,21.33)">
    <g class="primitive">
      <text text-anchor="middle" dy="0.35em">R(2)</text>
    </g>
  </g>
</g>
<g font-family="Helvetica Neue" font-size="5.64" id="img-8f5c353d-104">
  <g transform="translate(83.22,21.33)">
    <g class="primitive">
      <text text-anchor="middle" dy="0.35em">H</text>
    </g>
  </g>
</g>
<g font-family="Helvetica Neue" font-size="3.53" id="img-8f5c353d-105">
  <g transform="translate(70.59,5.33)">
    <g class="primitive">
      <text text-anchor="middle" dy="0.35em">R(5)</text>
    </g>
  </g>
</g>
<g font-family="Helvetica Neue" font-size="3.53" id="img-8f5c353d-106">
  <g transform="translate(57.96,5.33)">
    <g class="primitive">
      <text text-anchor="middle" dy="0.35em">R(4)</text>
    </g>
  </g>
</g>
<g font-family="Helvetica Neue" font-size="3.53" id="img-8f5c353d-107">
  <g transform="translate(45.33,5.33)">
    <g class="primitive">
      <text text-anchor="middle" dy="0.35em">R(3)</text>
    </g>
  </g>
</g>
<g font-family="Helvetica Neue" font-size="3.53" id="img-8f5c353d-108">
  <g transform="translate(32.69,5.33)">
    <g class="primitive">
      <text text-anchor="middle" dy="0.35em">R(2)</text>
    </g>
  </g>
</g>
<g font-family="Helvetica Neue" font-size="5.64" id="img-8f5c353d-109">
  <g transform="translate(20.06,5.33)">
    <g class="primitive">
      <text text-anchor="middle" dy="0.35em">H</text>
    </g>
  </g>
</g>
</svg>
