<?xml version="1.0" encoding="utf-8"?>
<svg xmlns="http://www.w3.org/2000/svg" xmlns:xlink="http://www.w3.org/1999/xlink" width="600" height="400" viewBox="0 0 2400 1600">
<defs>
  <clipPath id="clip140">
    <rect x="0" y="0" width="2400" height="1600"/>
  </clipPath>
</defs>
<path clip-path="url(#clip140)" d="
M0 1600 L2400 1600 L2400 0 L0 0  Z
  " fill="#ffffff" fill-rule="evenodd" fill-opacity="1"/>
<defs>
  <clipPath id="clip141">
    <rect x="480" y="0" width="1681" height="1600"/>
  </clipPath>
</defs>
<path clip-path="url(#clip140)" d="
M202.177 1486.45 L2352.76 1486.45 L2352.76 47.2441 L202.177 47.2441  Z
  " fill="#ffffff" fill-rule="evenodd" fill-opacity="1"/>
<defs>
  <clipPath id="clip142">
    <rect x="202" y="47" width="2152" height="1440"/>
  </clipPath>
</defs>
<polyline clip-path="url(#clip142)" style="stroke:#000000; stroke-width:2; stroke-opacity:0.1; fill:none" points="
  368.918,1486.45 368.918,47.2441 
  "/>
<polyline clip-path="url(#clip142)" style="stroke:#000000; stroke-width:2; stroke-opacity:0.1; fill:none" points="
  974.617,1486.45 974.617,47.2441 
  "/>
<polyline clip-path="url(#clip142)" style="stroke:#000000; stroke-width:2; stroke-opacity:0.1; fill:none" points="
  1580.32,1486.45 1580.32,47.2441 
  "/>
<polyline clip-path="url(#clip142)" style="stroke:#000000; stroke-width:2; stroke-opacity:0.1; fill:none" points="
  2186.01,1486.45 2186.01,47.2441 
  "/>
<polyline clip-path="url(#clip140)" style="stroke:#000000; stroke-width:4; stroke-opacity:1; fill:none" points="
  202.177,1486.45 2352.76,1486.45 
  "/>
<polyline clip-path="url(#clip140)" style="stroke:#000000; stroke-width:4; stroke-opacity:1; fill:none" points="
  368.918,1486.45 368.918,1469.18 
  "/>
<polyline clip-path="url(#clip140)" style="stroke:#000000; stroke-width:4; stroke-opacity:1; fill:none" points="
  974.617,1486.45 974.617,1469.18 
  "/>
<polyline clip-path="url(#clip140)" style="stroke:#000000; stroke-width:4; stroke-opacity:1; fill:none" points="
  1580.32,1486.45 1580.32,1469.18 
  "/>
<polyline clip-path="url(#clip140)" style="stroke:#000000; stroke-width:4; stroke-opacity:1; fill:none" points="
  2186.01,1486.45 2186.01,1469.18 
  "/>
<path clip-path="url(#clip140)" d="M 0 0 M368.918 1515.64 Q365.307 1515.64 363.478 1519.2 Q361.673 1522.75 361.673 1529.87 Q361.673 1536.98 363.478 1540.55 Q365.307 1544.09 368.918 1544.09 Q372.553 1544.09 374.358 1540.55 Q376.187 1536.98 376.187 1529.87 Q376.187 1522.75 374.358 1519.2 Q372.553 1515.64 368.918 1515.64 M368.918 1511.93 Q374.728 1511.93 377.784 1516.54 Q380.863 1521.12 380.863 1529.87 Q380.863 1538.6 377.784 1543.21 Q374.728 1547.79 368.918 1547.79 Q363.108 1547.79 360.029 1543.21 Q356.974 1538.6 356.974 1529.87 Q356.974 1521.12 360.029 1516.54 Q363.108 1511.93 368.918 1511.93 Z" fill="#000000" fill-rule="evenodd" fill-opacity="1" /><path clip-path="url(#clip140)" d="M 0 0 M964.895 1512.56 L983.251 1512.56 L983.251 1516.5 L969.177 1516.5 L969.177 1524.97 Q970.196 1524.62 971.214 1524.46 Q972.233 1524.27 973.251 1524.27 Q979.038 1524.27 982.418 1527.44 Q985.797 1530.62 985.797 1536.03 Q985.797 1541.61 982.325 1544.71 Q978.853 1547.79 972.534 1547.79 Q970.358 1547.79 968.089 1547.42 Q965.844 1547.05 963.436 1546.31 L963.436 1541.61 Q965.52 1542.74 967.742 1543.3 Q969.964 1543.86 972.441 1543.86 Q976.446 1543.86 978.784 1541.75 Q981.122 1539.64 981.122 1536.03 Q981.122 1532.42 978.784 1530.31 Q976.446 1528.21 972.441 1528.21 Q970.566 1528.21 968.691 1528.62 Q966.839 1529.04 964.895 1529.92 L964.895 1512.56 Z" fill="#000000" fill-rule="evenodd" fill-opacity="1" /><path clip-path="url(#clip140)" d="M 0 0 M1555 1543.18 L1562.64 1543.18 L1562.64 1516.82 L1554.33 1518.49 L1554.33 1514.23 L1562.6 1512.56 L1567.27 1512.56 L1567.27 1543.18 L1574.91 1543.18 L1574.91 1547.12 L1555 1547.12 L1555 1543.18 Z" fill="#000000" fill-rule="evenodd" fill-opacity="1" /><path clip-path="url(#clip140)" d="M 0 0 M1594.35 1515.64 Q1590.74 1515.64 1588.92 1519.2 Q1587.11 1522.75 1587.11 1529.87 Q1587.11 1536.98 1588.92 1540.55 Q1590.74 1544.09 1594.35 1544.09 Q1597.99 1544.09 1599.79 1540.55 Q1601.62 1536.98 1601.62 1529.87 Q1601.62 1522.75 1599.79 1519.2 Q1597.99 1515.64 1594.35 1515.64 M1594.35 1511.93 Q1600.17 1511.93 1603.22 1516.54 Q1606.3 1521.12 1606.3 1529.87 Q1606.3 1538.6 1603.22 1543.21 Q1600.17 1547.79 1594.35 1547.79 Q1588.54 1547.79 1585.47 1543.21 Q1582.41 1538.6 1582.41 1529.87 Q1582.41 1521.12 1585.47 1516.54 Q1588.54 1511.93 1594.35 1511.93 Z" fill="#000000" fill-rule="evenodd" fill-opacity="1" /><path clip-path="url(#clip140)" d="M 0 0 M2161.2 1543.18 L2168.84 1543.18 L2168.84 1516.82 L2160.53 1518.49 L2160.53 1514.23 L2168.79 1512.56 L2173.47 1512.56 L2173.47 1543.18 L2181.11 1543.18 L2181.11 1547.12 L2161.2 1547.12 L2161.2 1543.18 Z" fill="#000000" fill-rule="evenodd" fill-opacity="1" /><path clip-path="url(#clip140)" d="M 0 0 M2190.6 1512.56 L2208.95 1512.56 L2208.95 1516.5 L2194.88 1516.5 L2194.88 1524.97 Q2195.9 1524.62 2196.92 1524.46 Q2197.94 1524.27 2198.95 1524.27 Q2204.74 1524.27 2208.12 1527.44 Q2211.5 1530.62 2211.5 1536.03 Q2211.5 1541.61 2208.03 1544.71 Q2204.56 1547.79 2198.24 1547.79 Q2196.06 1547.79 2193.79 1547.42 Q2191.55 1547.05 2189.14 1546.31 L2189.14 1541.61 Q2191.22 1542.74 2193.44 1543.3 Q2195.67 1543.86 2198.14 1543.86 Q2202.15 1543.86 2204.49 1541.75 Q2206.82 1539.64 2206.82 1536.03 Q2206.82 1532.42 2204.49 1530.31 Q2202.15 1528.21 2198.14 1528.21 Q2196.27 1528.21 2194.39 1528.62 Q2192.54 1529.04 2190.6 1529.92 L2190.6 1512.56 Z" fill="#000000" fill-rule="evenodd" fill-opacity="1" /><polyline clip-path="url(#clip142)" style="stroke:#000000; stroke-width:2; stroke-opacity:0.1; fill:none" points="
  202.177,1445.72 2352.76,1445.72 
  "/>
<polyline clip-path="url(#clip142)" style="stroke:#000000; stroke-width:2; stroke-opacity:0.1; fill:none" points="
  202.177,1142.78 2352.76,1142.78 
  "/>
<polyline clip-path="url(#clip142)" style="stroke:#000000; stroke-width:2; stroke-opacity:0.1; fill:none" points="
  202.177,839.852 2352.76,839.852 
  "/>
<polyline clip-path="url(#clip142)" style="stroke:#000000; stroke-width:2; stroke-opacity:0.1; fill:none" points="
  202.177,536.921 2352.76,536.921 
  "/>
<polyline clip-path="url(#clip142)" style="stroke:#000000; stroke-width:2; stroke-opacity:0.1; fill:none" points="
  202.177,233.989 2352.76,233.989 
  "/>
<polyline clip-path="url(#clip140)" style="stroke:#000000; stroke-width:4; stroke-opacity:1; fill:none" points="
  202.177,1486.45 202.177,47.2441 
  "/>
<polyline clip-path="url(#clip140)" style="stroke:#000000; stroke-width:4; stroke-opacity:1; fill:none" points="
  202.177,1445.72 227.984,1445.72 
  "/>
<polyline clip-path="url(#clip140)" style="stroke:#000000; stroke-width:4; stroke-opacity:1; fill:none" points="
  202.177,1142.78 227.984,1142.78 
  "/>
<polyline clip-path="url(#clip140)" style="stroke:#000000; stroke-width:4; stroke-opacity:1; fill:none" points="
  202.177,839.852 227.984,839.852 
  "/>
<polyline clip-path="url(#clip140)" style="stroke:#000000; stroke-width:4; stroke-opacity:1; fill:none" points="
  202.177,536.921 227.984,536.921 
  "/>
<polyline clip-path="url(#clip140)" style="stroke:#000000; stroke-width:4; stroke-opacity:1; fill:none" points="
  202.177,233.989 227.984,233.989 
  "/>
<path clip-path="url(#clip140)" d="M 0 0 M154.232 1431.51 Q150.621 1431.51 148.793 1435.08 Q146.987 1438.62 146.987 1445.75 Q146.987 1452.86 148.793 1456.42 Q150.621 1459.96 154.232 1459.96 Q157.867 1459.96 159.672 1456.42 Q161.501 1452.86 161.501 1445.75 Q161.501 1438.62 159.672 1435.08 Q157.867 1431.51 154.232 1431.51 M154.232 1427.81 Q160.042 1427.81 163.098 1432.42 Q166.177 1437 166.177 1445.75 Q166.177 1454.48 163.098 1459.08 Q160.042 1463.67 154.232 1463.67 Q148.422 1463.67 145.343 1459.08 Q142.288 1454.48 142.288 1445.75 Q142.288 1437 145.343 1432.42 Q148.422 1427.81 154.232 1427.81 Z" fill="#000000" fill-rule="evenodd" fill-opacity="1" /><path clip-path="url(#clip140)" d="M 0 0 M54.5569 1156.13 L62.1958 1156.13 L62.1958 1129.76 L53.8856 1131.43 L53.8856 1127.17 L62.1495 1125.5 L66.8254 1125.5 L66.8254 1156.13 L74.4642 1156.13 L74.4642 1160.06 L54.5569 1160.06 L54.5569 1156.13 Z" fill="#000000" fill-rule="evenodd" fill-opacity="1" /><path clip-path="url(#clip140)" d="M 0 0 M93.9086 1128.58 Q90.2975 1128.58 88.4688 1132.15 Q86.6632 1135.69 86.6632 1142.82 Q86.6632 1149.93 88.4688 1153.49 Q90.2975 1157.03 93.9086 1157.03 Q97.5428 1157.03 99.3483 1153.49 Q101.177 1149.93 101.177 1142.82 Q101.177 1135.69 99.3483 1132.15 Q97.5428 1128.58 93.9086 1128.58 M93.9086 1124.88 Q99.7187 1124.88 102.774 1129.49 Q105.853 1134.07 105.853 1142.82 Q105.853 1151.55 102.774 1156.15 Q99.7187 1160.74 93.9086 1160.74 Q88.0984 1160.74 85.0197 1156.15 Q81.9642 1151.55 81.9642 1142.82 Q81.9642 1134.07 85.0197 1129.49 Q88.0984 1124.88 93.9086 1124.88 Z" fill="#000000" fill-rule="evenodd" fill-opacity="1" /><path clip-path="url(#clip140)" d="M 0 0 M124.07 1128.58 Q120.459 1128.58 118.631 1132.15 Q116.825 1135.69 116.825 1142.82 Q116.825 1149.93 118.631 1153.49 Q120.459 1157.03 124.07 1157.03 Q127.705 1157.03 129.51 1153.49 Q131.339 1149.93 131.339 1142.82 Q131.339 1135.69 129.51 1132.15 Q127.705 1128.58 124.07 1128.58 M124.07 1124.88 Q129.881 1124.88 132.936 1129.49 Q136.015 1134.07 136.015 1142.82 Q136.015 1151.55 132.936 1156.15 Q129.881 1160.74 124.07 1160.74 Q118.26 1160.74 115.182 1156.15 Q112.126 1151.55 112.126 1142.82 Q112.126 1134.07 115.182 1129.49 Q118.26 1124.88 124.07 1124.88 Z" fill="#000000" fill-rule="evenodd" fill-opacity="1" /><path clip-path="url(#clip140)" d="M 0 0 M154.232 1128.58 Q150.621 1128.58 148.793 1132.15 Q146.987 1135.69 146.987 1142.82 Q146.987 1149.93 148.793 1153.49 Q150.621 1157.03 154.232 1157.03 Q157.867 1157.03 159.672 1153.49 Q161.501 1149.93 161.501 1142.82 Q161.501 1135.69 159.672 1132.15 Q157.867 1128.58 154.232 1128.58 M154.232 1124.88 Q160.042 1124.88 163.098 1129.49 Q166.177 1134.07 166.177 1142.82 Q166.177 1151.55 163.098 1156.15 Q160.042 1160.74 154.232 1160.74 Q148.422 1160.74 145.343 1156.15 Q142.288 1151.55 142.288 1142.82 Q142.288 1134.07 145.343 1129.49 Q148.422 1124.88 154.232 1124.88 Z" fill="#000000" fill-rule="evenodd" fill-opacity="1" /><path clip-path="url(#clip140)" d="M 0 0 M57.7745 853.197 L74.0939 853.197 L74.0939 857.132 L52.1495 857.132 L52.1495 853.197 Q54.8115 850.443 59.3949 845.813 Q64.0013 841.16 65.1819 839.818 Q67.4272 837.295 68.3068 835.559 Q69.2096 833.799 69.2096 832.109 Q69.2096 829.355 67.2652 827.619 Q65.3439 825.883 62.2421 825.883 Q60.043 825.883 57.5893 826.647 Q55.1588 827.41 52.381 828.961 L52.381 824.239 Q55.2051 823.105 57.6588 822.526 Q60.1124 821.948 62.1495 821.948 Q67.5198 821.948 70.7142 824.633 Q73.9087 827.318 73.9087 831.809 Q73.9087 833.938 73.0985 835.859 Q72.3115 837.758 70.205 840.35 Q69.6263 841.021 66.5245 844.239 Q63.4226 847.433 57.7745 853.197 Z" fill="#000000" fill-rule="evenodd" fill-opacity="1" /><path clip-path="url(#clip140)" d="M 0 0 M93.9086 825.651 Q90.2975 825.651 88.4688 829.216 Q86.6632 832.758 86.6632 839.887 Q86.6632 846.994 88.4688 850.558 Q90.2975 854.1 93.9086 854.1 Q97.5428 854.1 99.3483 850.558 Q101.177 846.994 101.177 839.887 Q101.177 832.758 99.3483 829.216 Q97.5428 825.651 93.9086 825.651 M93.9086 821.948 Q99.7187 821.948 102.774 826.554 Q105.853 831.137 105.853 839.887 Q105.853 848.614 102.774 853.22 Q99.7187 857.804 93.9086 857.804 Q88.0984 857.804 85.0197 853.22 Q81.9642 848.614 81.9642 839.887 Q81.9642 831.137 85.0197 826.554 Q88.0984 821.948 93.9086 821.948 Z" fill="#000000" fill-rule="evenodd" fill-opacity="1" /><path clip-path="url(#clip140)" d="M 0 0 M124.07 825.651 Q120.459 825.651 118.631 829.216 Q116.825 832.758 116.825 839.887 Q116.825 846.994 118.631 850.558 Q120.459 854.1 124.07 854.1 Q127.705 854.1 129.51 850.558 Q131.339 846.994 131.339 839.887 Q131.339 832.758 129.51 829.216 Q127.705 825.651 124.07 825.651 M124.07 821.948 Q129.881 821.948 132.936 826.554 Q136.015 831.137 136.015 839.887 Q136.015 848.614 132.936 853.22 Q129.881 857.804 124.07 857.804 Q118.26 857.804 115.182 853.22 Q112.126 848.614 112.126 839.887 Q112.126 831.137 115.182 826.554 Q118.26 821.948 124.07 821.948 Z" fill="#000000" fill-rule="evenodd" fill-opacity="1" /><path clip-path="url(#clip140)" d="M 0 0 M154.232 825.651 Q150.621 825.651 148.793 829.216 Q146.987 832.758 146.987 839.887 Q146.987 846.994 148.793 850.558 Q150.621 854.1 154.232 854.1 Q157.867 854.1 159.672 850.558 Q161.501 846.994 161.501 839.887 Q161.501 832.758 159.672 829.216 Q157.867 825.651 154.232 825.651 M154.232 821.948 Q160.042 821.948 163.098 826.554 Q166.177 831.137 166.177 839.887 Q166.177 848.614 163.098 853.22 Q160.042 857.804 154.232 857.804 Q148.422 857.804 145.343 853.22 Q142.288 848.614 142.288 839.887 Q142.288 831.137 145.343 826.554 Q148.422 821.948 154.232 821.948 Z" fill="#000000" fill-rule="evenodd" fill-opacity="1" /><path clip-path="url(#clip140)" d="M 0 0 M67.9133 535.567 Q71.2698 536.284 73.1448 538.553 Q75.0429 540.821 75.0429 544.155 Q75.0429 549.27 71.5244 552.071 Q68.0059 554.872 61.5245 554.872 Q59.3486 554.872 57.0338 554.432 Q54.7421 554.016 52.2884 553.159 L52.2884 548.645 Q54.2328 549.78 56.5477 550.358 Q58.8625 550.937 61.3856 550.937 Q65.7837 550.937 68.0754 549.201 Q70.3902 547.465 70.3902 544.155 Q70.3902 541.099 68.2374 539.386 Q66.1078 537.65 62.2884 537.65 L58.2606 537.65 L58.2606 533.807 L62.4735 533.807 Q65.9226 533.807 67.7513 532.442 Q69.58 531.053 69.58 528.46 Q69.58 525.798 67.6819 524.386 Q65.8069 522.951 62.2884 522.951 Q60.3671 522.951 58.168 523.368 Q55.969 523.784 53.3301 524.664 L53.3301 520.497 Q55.9921 519.757 58.3069 519.386 Q60.6449 519.016 62.705 519.016 Q68.0291 519.016 71.1309 521.446 Q74.2327 523.854 74.2327 527.974 Q74.2327 530.845 72.5892 532.835 Q70.9457 534.803 67.9133 535.567 Z" fill="#000000" fill-rule="evenodd" fill-opacity="1" /><path clip-path="url(#clip140)" d="M 0 0 M93.9086 522.72 Q90.2975 522.72 88.4688 526.284 Q86.6632 529.826 86.6632 536.956 Q86.6632 544.062 88.4688 547.627 Q90.2975 551.169 93.9086 551.169 Q97.5428 551.169 99.3483 547.627 Q101.177 544.062 101.177 536.956 Q101.177 529.826 99.3483 526.284 Q97.5428 522.72 93.9086 522.72 M93.9086 519.016 Q99.7187 519.016 102.774 523.622 Q105.853 528.206 105.853 536.956 Q105.853 545.682 102.774 550.289 Q99.7187 554.872 93.9086 554.872 Q88.0984 554.872 85.0197 550.289 Q81.9642 545.682 81.9642 536.956 Q81.9642 528.206 85.0197 523.622 Q88.0984 519.016 93.9086 519.016 Z" fill="#000000" fill-rule="evenodd" fill-opacity="1" /><path clip-path="url(#clip140)" d="M 0 0 M124.07 522.72 Q120.459 522.72 118.631 526.284 Q116.825 529.826 116.825 536.956 Q116.825 544.062 118.631 547.627 Q120.459 551.169 124.07 551.169 Q127.705 551.169 129.51 547.627 Q131.339 544.062 131.339 536.956 Q131.339 529.826 129.51 526.284 Q127.705 522.72 124.07 522.72 M124.07 519.016 Q129.881 519.016 132.936 523.622 Q136.015 528.206 136.015 536.956 Q136.015 545.682 132.936 550.289 Q129.881 554.872 124.07 554.872 Q118.26 554.872 115.182 550.289 Q112.126 545.682 112.126 536.956 Q112.126 528.206 115.182 523.622 Q118.26 519.016 124.07 519.016 Z" fill="#000000" fill-rule="evenodd" fill-opacity="1" /><path clip-path="url(#clip140)" d="M 0 0 M154.232 522.72 Q150.621 522.72 148.793 526.284 Q146.987 529.826 146.987 536.956 Q146.987 544.062 148.793 547.627 Q150.621 551.169 154.232 551.169 Q157.867 551.169 159.672 547.627 Q161.501 544.062 161.501 536.956 Q161.501 529.826 159.672 526.284 Q157.867 522.72 154.232 522.72 M154.232 519.016 Q160.042 519.016 163.098 523.622 Q166.177 528.206 166.177 536.956 Q166.177 545.682 163.098 550.289 Q160.042 554.872 154.232 554.872 Q148.422 554.872 145.343 550.289 Q142.288 545.682 142.288 536.956 Q142.288 528.206 145.343 523.622 Q148.422 519.016 154.232 519.016 Z" fill="#000000" fill-rule="evenodd" fill-opacity="1" /><path clip-path="url(#clip140)" d="M 0 0 M66.5939 220.783 L54.7884 239.232 L66.5939 239.232 L66.5939 220.783 M65.367 216.709 L71.2466 216.709 L71.2466 239.232 L76.1772 239.232 L76.1772 243.121 L71.2466 243.121 L71.2466 251.269 L66.5939 251.269 L66.5939 243.121 L50.9921 243.121 L50.9921 238.607 L65.367 216.709 Z" fill="#000000" fill-rule="evenodd" fill-opacity="1" /><path clip-path="url(#clip140)" d="M 0 0 M93.9086 219.788 Q90.2975 219.788 88.4688 223.353 Q86.6632 226.894 86.6632 234.024 Q86.6632 241.13 88.4688 244.695 Q90.2975 248.237 93.9086 248.237 Q97.5428 248.237 99.3483 244.695 Q101.177 241.13 101.177 234.024 Q101.177 226.894 99.3483 223.353 Q97.5428 219.788 93.9086 219.788 M93.9086 216.084 Q99.7187 216.084 102.774 220.691 Q105.853 225.274 105.853 234.024 Q105.853 242.751 102.774 247.357 Q99.7187 251.941 93.9086 251.941 Q88.0984 251.941 85.0197 247.357 Q81.9642 242.751 81.9642 234.024 Q81.9642 225.274 85.0197 220.691 Q88.0984 216.084 93.9086 216.084 Z" fill="#000000" fill-rule="evenodd" fill-opacity="1" /><path clip-path="url(#clip140)" d="M 0 0 M124.07 219.788 Q120.459 219.788 118.631 223.353 Q116.825 226.894 116.825 234.024 Q116.825 241.13 118.631 244.695 Q120.459 248.237 124.07 248.237 Q127.705 248.237 129.51 244.695 Q131.339 241.13 131.339 234.024 Q131.339 226.894 129.51 223.353 Q127.705 219.788 124.07 219.788 M124.07 216.084 Q129.881 216.084 132.936 220.691 Q136.015 225.274 136.015 234.024 Q136.015 242.751 132.936 247.357 Q129.881 251.941 124.07 251.941 Q118.26 251.941 115.182 247.357 Q112.126 242.751 112.126 234.024 Q112.126 225.274 115.182 220.691 Q118.26 216.084 124.07 216.084 Z" fill="#000000" fill-rule="evenodd" fill-opacity="1" /><path clip-path="url(#clip140)" d="M 0 0 M154.232 219.788 Q150.621 219.788 148.793 223.353 Q146.987 226.894 146.987 234.024 Q146.987 241.13 148.793 244.695 Q150.621 248.237 154.232 248.237 Q157.867 248.237 159.672 244.695 Q161.501 241.13 161.501 234.024 Q161.501 226.894 159.672 223.353 Q157.867 219.788 154.232 219.788 M154.232 216.084 Q160.042 216.084 163.098 220.691 Q166.177 225.274 166.177 234.024 Q166.177 242.751 163.098 247.357 Q160.042 251.941 154.232 251.941 Q148.422 251.941 145.343 247.357 Q142.288 242.751 142.288 234.024 Q142.288 225.274 145.343 220.691 Q148.422 216.084 154.232 216.084 Z" fill="#000000" fill-rule="evenodd" fill-opacity="1" /><path clip-path="url(#clip142)" d="
M320.462 1056.75 L320.462 1445.72 L417.374 1445.72 L417.374 1056.75 L320.462 1056.75 L320.462 1056.75  Z
  " fill="#009af9" fill-rule="evenodd" fill-opacity="1"/>
<polyline clip-path="url(#clip142)" style="stroke:#000000; stroke-width:4; stroke-opacity:1; fill:none" points="
  320.462,1056.75 320.462,1445.72 417.374,1445.72 417.374,1056.75 320.462,1056.75 
  "/>
<path clip-path="url(#clip142)" d="
M1289.58 1445.72 L1289.58 1445.72 L1386.49 1445.72 L1386.49 1445.72 L1289.58 1445.72 L1289.58 1445.72  Z
  " fill="#009af9" fill-rule="evenodd" fill-opacity="1"/>
<polyline clip-path="url(#clip142)" style="stroke:#000000; stroke-width:4; stroke-opacity:1; fill:none" points="
  1289.58,1445.72 1289.58,1445.72 1386.49,1445.72 1289.58,1445.72 
  "/>
<path clip-path="url(#clip142)" d="
M805.021 1445.72 L805.021 1445.72 L901.933 1445.72 L901.933 1445.72 L805.021 1445.72 L805.021 1445.72  Z
  " fill="#009af9" fill-rule="evenodd" fill-opacity="1"/>
<polyline clip-path="url(#clip142)" style="stroke:#000000; stroke-width:4; stroke-opacity:1; fill:none" points="
  805.021,1445.72 805.021,1445.72 901.933,1445.72 805.021,1445.72 
  "/>
<path clip-path="url(#clip142)" d="
M1774.14 1445.72 L1774.14 1445.72 L1871.05 1445.72 L1871.05 1445.72 L1774.14 1445.72 L1774.14 1445.72  Z
  " fill="#009af9" fill-rule="evenodd" fill-opacity="1"/>
<polyline clip-path="url(#clip142)" style="stroke:#000000; stroke-width:4; stroke-opacity:1; fill:none" points="
  1774.14,1445.72 1774.14,1445.72 1871.05,1445.72 1774.14,1445.72 
  "/>
<path clip-path="url(#clip142)" d="
M562.742 1309.7 L562.742 1445.72 L659.654 1445.72 L659.654 1309.7 L562.742 1309.7 L562.742 1309.7  Z
  " fill="#009af9" fill-rule="evenodd" fill-opacity="1"/>
<polyline clip-path="url(#clip142)" style="stroke:#000000; stroke-width:4; stroke-opacity:1; fill:none" points="
  562.742,1309.7 562.742,1445.72 659.654,1445.72 659.654,1309.7 562.742,1309.7 
  "/>
<path clip-path="url(#clip142)" d="
M1531.86 87.9763 L1531.86 1445.72 L1628.77 1445.72 L1628.77 87.9763 L1531.86 87.9763 L1531.86 87.9763  Z
  " fill="#009af9" fill-rule="evenodd" fill-opacity="1"/>
<polyline clip-path="url(#clip142)" style="stroke:#000000; stroke-width:4; stroke-opacity:1; fill:none" points="
  1531.86,87.9763 1531.86,1445.72 1628.77,1445.72 1628.77,87.9763 1531.86,87.9763 
  "/>
<path clip-path="url(#clip142)" d="
M1047.3 1445.72 L1047.3 1445.72 L1144.21 1445.72 L1144.21 1445.72 L1047.3 1445.72 L1047.3 1445.72  Z
  " fill="#009af9" fill-rule="evenodd" fill-opacity="1"/>
<polyline clip-path="url(#clip142)" style="stroke:#000000; stroke-width:4; stroke-opacity:1; fill:none" points="
  1047.3,1445.72 1047.3,1445.72 1144.21,1445.72 1047.3,1445.72 
  "/>
<path clip-path="url(#clip142)" d="
M2016.42 1445.72 L2016.42 1445.72 L2113.33 1445.72 L2113.33 1445.72 L2016.42 1445.72 L2016.42 1445.72  Z
  " fill="#009af9" fill-rule="evenodd" fill-opacity="1"/>
<polyline clip-path="url(#clip142)" style="stroke:#000000; stroke-width:4; stroke-opacity:1; fill:none" points="
  2016.42,1445.72 2016.42,1445.72 2113.33,1445.72 2016.42,1445.72 
  "/>
<path clip-path="url(#clip142)" d="
M441.602 1445.72 L441.602 1445.72 L538.514 1445.72 L538.514 1445.72 L441.602 1445.72 L441.602 1445.72  Z
  " fill="#009af9" fill-rule="evenodd" fill-opacity="1"/>
<polyline clip-path="url(#clip142)" style="stroke:#000000; stroke-width:4; stroke-opacity:1; fill:none" points="
  441.602,1445.72 441.602,1445.72 538.514,1445.72 441.602,1445.72 
  "/>
<path clip-path="url(#clip142)" d="
M1410.72 1445.72 L1410.72 1445.72 L1507.63 1445.72 L1507.63 1445.72 L1410.72 1445.72 L1410.72 1445.72  Z
  " fill="#009af9" fill-rule="evenodd" fill-opacity="1"/>
<polyline clip-path="url(#clip142)" style="stroke:#000000; stroke-width:4; stroke-opacity:1; fill:none" points="
  1410.72,1445.72 1410.72,1445.72 1507.63,1445.72 1410.72,1445.72 
  "/>
<path clip-path="url(#clip142)" d="
M926.161 1445.72 L926.161 1445.72 L1023.07 1445.72 L1023.07 1445.72 L926.161 1445.72 L926.161 1445.72  Z
  " fill="#009af9" fill-rule="evenodd" fill-opacity="1"/>
<polyline clip-path="url(#clip142)" style="stroke:#000000; stroke-width:4; stroke-opacity:1; fill:none" points="
  926.161,1445.72 926.161,1445.72 1023.07,1445.72 926.161,1445.72 
  "/>
<path clip-path="url(#clip142)" d="
M1895.28 1445.72 L1895.28 1445.72 L1992.19 1445.72 L1992.19 1445.72 L1895.28 1445.72 L1895.28 1445.72  Z
  " fill="#009af9" fill-rule="evenodd" fill-opacity="1"/>
<polyline clip-path="url(#clip142)" style="stroke:#000000; stroke-width:4; stroke-opacity:1; fill:none" points="
  1895.28,1445.72 1895.28,1445.72 1992.19,1445.72 1895.28,1445.72 
  "/>
<path clip-path="url(#clip142)" d="
M683.882 1445.72 L683.882 1445.72 L780.793 1445.72 L780.793 1445.72 L683.882 1445.72 L683.882 1445.72  Z
  " fill="#009af9" fill-rule="evenodd" fill-opacity="1"/>
<polyline clip-path="url(#clip142)" style="stroke:#000000; stroke-width:4; stroke-opacity:1; fill:none" points="
  683.882,1445.72 683.882,1445.72 780.793,1445.72 683.882,1445.72 
  "/>
<path clip-path="url(#clip142)" d="
M1653 1445.72 L1653 1445.72 L1749.91 1445.72 L1749.91 1445.72 L1653 1445.72 L1653 1445.72  Z
  " fill="#009af9" fill-rule="evenodd" fill-opacity="1"/>
<polyline clip-path="url(#clip142)" style="stroke:#000000; stroke-width:4; stroke-opacity:1; fill:none" points="
  1653,1445.72 1653,1445.72 1749.91,1445.72 1653,1445.72 
  "/>
<path clip-path="url(#clip142)" d="
M1168.44 1445.72 L1168.44 1445.72 L1265.35 1445.72 L1265.35 1445.72 L1168.44 1445.72 L1168.44 1445.72  Z
  " fill="#009af9" fill-rule="evenodd" fill-opacity="1"/>
<polyline clip-path="url(#clip142)" style="stroke:#000000; stroke-width:4; stroke-opacity:1; fill:none" points="
  1168.44,1445.72 1168.44,1445.72 1265.35,1445.72 1168.44,1445.72 
  "/>
<path clip-path="url(#clip142)" d="
M2137.56 299.12 L2137.56 1445.72 L2234.47 1445.72 L2234.47 299.12 L2137.56 299.12 L2137.56 299.12  Z
  " fill="#009af9" fill-rule="evenodd" fill-opacity="1"/>
<polyline clip-path="url(#clip142)" style="stroke:#000000; stroke-width:4; stroke-opacity:1; fill:none" points="
  2137.56,299.12 2137.56,1445.72 2234.47,1445.72 2234.47,299.12 2137.56,299.12 
  "/>
</svg>
