<?xml version="1.0" encoding="UTF-8"?>
<svg xmlns="http://www.w3.org/2000/svg"
     xmlns:xlink="http://www.w3.org/1999/xlink"
     version="1.2"
     width="240mm" height="80mm" viewBox="0 0 240 80"
     stroke="none"
     fill="#000000"
     stroke-width="0.3"
     font-size="3.88"
>
<defs>
  <marker id="arrow" markerWidth="15" markerHeight="7" refX="5" refY="3.5" orient="auto" markerUnits="strokeWidth">
    <path d="M0,0 L15,3.5 L0,7 z" stroke="context-stroke" fill="context-stroke"/>
  </marker>
</defs>
<g stroke-width="0.35" stroke="#3283A8" id="img-88ca3590-1">
  <g transform="translate(13.75,5.33)">
    <path fill="none" d="M6.32,0 L-6.32,0 " class="primitive"/>
  </g>
  <g transform="translate(32.69,13.33)">
    <path fill="none" d="M0,8 L0,-8 " class="primitive"/>
  </g>
  <g transform="translate(26.38,5.33)">
    <path fill="none" d="M6.32,0 L-6.32,0 " class="primitive"/>
  </g>
  <g transform="translate(20.06,21.33)">
    <path fill="none" d="M12.63,0 L-12.63,0 " class="primitive"/>
  </g>
  <g transform="translate(45.33,21.33)">
    <path fill="none" d="M0,16 L0,-16 " class="primitive"/>
  </g>
  <g transform="translate(39.01,5.33)">
    <path fill="none" d="M6.32,0 L-6.32,0 " class="primitive"/>
  </g>
  <g transform="translate(39.01,21.33)">
    <path fill="none" d="M6.32,0 L-6.32,0 " class="primitive"/>
  </g>
  <g transform="translate(26.38,37.33)">
    <path fill="none" d="M18.95,0 L-18.95,0 " class="primitive"/>
  </g>
  <g transform="translate(57.96,29.33)">
    <path fill="none" d="M0,24 L0,-24 " class="primitive"/>
  </g>
  <g transform="translate(51.64,5.33)">
    <path fill="none" d="M6.32,0 L-6.32,0 " class="primitive"/>
  </g>
  <g transform="translate(51.64,21.33)">
    <path fill="none" d="M6.32,0 L-6.32,0 " class="primitive"/>
  </g>
  <g transform="translate(51.64,37.33)">
    <path fill="none" d="M6.32,0 L-6.32,0 " class="primitive"/>
  </g>
  <g transform="translate(32.69,53.33)">
    <path fill="none" d="M25.26,0 L-25.26,0 " class="primitive"/>
  </g>
  <g transform="translate(70.59,37.33)">
    <path fill="none" d="M0,32 L0,-32 " class="primitive"/>
  </g>
  <g transform="translate(64.27,5.33)">
    <path fill="none" d="M6.32,0 L-6.32,0 " class="primitive"/>
  </g>
  <g transform="translate(64.27,21.33)">
    <path fill="none" d="M6.32,0 L-6.32,0 " class="primitive"/>
  </g>
  <g transform="translate(64.27,37.33)">
    <path fill="none" d="M6.32,0 L-6.32,0 " class="primitive"/>
  </g>
  <g transform="translate(64.27,53.33)">
    <path fill="none" d="M6.32,0 L-6.32,0 " class="primitive"/>
  </g>
  <g transform="translate(39.01,69.33)">
    <path fill="none" d="M31.58,0 L-31.58,0 " class="primitive"/>
  </g>
  <g transform="translate(76.9,21.33)">
    <path fill="none" d="M6.32,0 L-6.32,0 " class="primitive"/>
  </g>
  <g transform="translate(95.85,29.33)">
    <path fill="none" d="M0,8 L0,-8 " class="primitive"/>
  </g>
  <g transform="translate(89.54,21.33)">
    <path fill="none" d="M6.32,0 L-6.32,0 " class="primitive"/>
  </g>
  <g transform="translate(83.22,37.33)">
    <path fill="none" d="M12.63,0 L-12.63,0 " class="primitive"/>
  </g>
  <g transform="translate(108.48,37.33)">
    <path fill="none" d="M0,16 L0,-16 " class="primitive"/>
  </g>
  <g transform="translate(102.17,21.33)">
    <path fill="none" d="M6.32,0 L-6.32,0 " class="primitive"/>
  </g>
  <g transform="translate(102.17,37.33)">
    <path fill="none" d="M6.32,0 L-6.32,0 " class="primitive"/>
  </g>
  <g transform="translate(89.54,53.33)">
    <path fill="none" d="M18.95,0 L-18.95,0 " class="primitive"/>
  </g>
  <g transform="translate(121.11,45.33)">
    <path fill="none" d="M0,24 L0,-24 " class="primitive"/>
  </g>
  <g transform="translate(114.8,21.33)">
    <path fill="none" d="M6.32,0 L-6.32,0 " class="primitive"/>
  </g>
  <g transform="translate(114.8,37.33)">
    <path fill="none" d="M6.32,0 L-6.32,0 " class="primitive"/>
  </g>
  <g transform="translate(114.8,53.33)">
    <path fill="none" d="M6.32,0 L-6.32,0 " class="primitive"/>
  </g>
  <g transform="translate(95.85,69.33)">
    <path fill="none" d="M25.26,0 L-25.26,0 " class="primitive"/>
  </g>
  <g transform="translate(127.43,37.33)">
    <path fill="none" d="M6.32,0 L-6.32,0 " class="primitive"/>
  </g>
  <g transform="translate(146.38,45.33)">
    <path fill="none" d="M0,8 L0,-8 " class="primitive"/>
  </g>
  <g transform="translate(140.06,37.33)">
    <path fill="none" d="M6.32,0 L-6.32,0 " class="primitive"/>
  </g>
  <g transform="translate(133.75,53.33)">
    <path fill="none" d="M12.63,0 L-12.63,0 " class="primitive"/>
  </g>
  <g transform="translate(159.01,53.33)">
    <path fill="none" d="M0,16 L0,-16 " class="primitive"/>
  </g>
  <g transform="translate(152.69,37.33)">
    <path fill="none" d="M6.32,0 L-6.32,0 " class="primitive"/>
  </g>
  <g transform="translate(152.69,53.33)">
    <path fill="none" d="M6.32,0 L-6.32,0 " class="primitive"/>
  </g>
  <g transform="translate(140.06,69.33)">
    <path fill="none" d="M18.95,0 L-18.95,0 " class="primitive"/>
  </g>
  <g transform="translate(165.33,53.33)">
    <path fill="none" d="M6.32,0 L-6.32,0 " class="primitive"/>
  </g>
  <g transform="translate(184.27,61.33)">
    <path fill="none" d="M0,8 L0,-8 " class="primitive"/>
  </g>
  <g transform="translate(177.96,53.33)">
    <path fill="none" d="M6.32,0 L-6.32,0 " class="primitive"/>
  </g>
  <g transform="translate(171.64,69.33)">
    <path fill="none" d="M12.63,0 L-12.63,0 " class="primitive"/>
  </g>
  <g transform="translate(190.59,69.33)">
    <path fill="none" d="M6.32,0 L-6.32,0 " class="primitive"/>
  </g>
  <g transform="translate(209.54,37.33)">
    <path fill="none" d="M0,32 L0,-32 " class="primitive"/>
  </g>
  <g transform="translate(140.06,5.33)">
    <path fill="none" d="M69.47,0 L-69.47,0 " class="primitive"/>
  </g>
  <g transform="translate(165.33,21.33)">
    <path fill="none" d="M44.21,0 L-44.21,0 " class="primitive"/>
  </g>
  <g transform="translate(184.27,37.33)">
    <path fill="none" d="M25.26,0 L-25.26,0 " class="primitive"/>
  </g>
  <g transform="translate(196.9,53.33)">
    <path fill="none" d="M12.63,0 L-12.63,0 " class="primitive"/>
  </g>
  <g transform="translate(203.22,69.33)">
    <path fill="none" d="M6.32,0 L-6.32,0 " class="primitive"/>
  </g>
  <g transform="translate(222.17,37.33)">
    <path fill="none" d="M0,16 L0,-16 " class="primitive"/>
  </g>
  <g transform="translate(215.85,21.33)">
    <path fill="none" d="M6.32,0 L-6.32,0 " class="primitive"/>
  </g>
  <g transform="translate(215.85,37.33)">
    <path fill="none" d="M6.32,0 L-6.32,0 " class="primitive"/>
  </g>
  <g transform="translate(215.85,53.33)">
    <path fill="none" d="M6.32,0 L-6.32,0 " class="primitive"/>
  </g>
  <g transform="translate(222.17,5.33)">
    <path fill="none" d="M12.63,0 L-12.63,0 " class="primitive"/>
  </g>
  <g transform="translate(228.48,21.33)">
    <path fill="none" d="M6.32,0 L-6.32,0 " class="primitive"/>
  </g>
  <g transform="translate(228.48,37.33)">
    <path fill="none" d="M6.32,0 L-6.32,0 " class="primitive"/>
  </g>
  <g transform="translate(228.48,53.33)">
    <path fill="none" d="M6.32,0 L-6.32,0 " class="primitive"/>
  </g>
  <g transform="translate(222.17,69.33)">
    <path fill="none" d="M12.63,0 L-12.63,0 " class="primitive"/>
  </g>
</g>
<g stroke-width="0" fill="#3283A8" id="img-88ca3590-2">
  <g transform="translate(209.54,5.33)">
    <path d="M-0.3,0 L-2.24,-2.8 -1.95,-3.22 -0,-0.43 1.95,-3.22 2.24,-2.8 0.3,0 2.24,2.8 1.95,3.22 -0,0.43 -1.95,3.22 -2.24,2.8  z" class="primitive"/>
  </g>
  <g transform="translate(209.54,69.33)">
    <path d="M-0.3,0 L-2.24,-2.8 -1.95,-3.22 -0,-0.43 1.95,-3.22 2.24,-2.8 0.3,0 2.24,2.8 1.95,3.22 -0,0.43 -1.95,3.22 -2.24,2.8  z" class="primitive"/>
  </g>
  <g transform="translate(222.17,21.33)">
    <path d="M-0.3,0 L-2.24,-2.8 -1.95,-3.22 -0,-0.43 1.95,-3.22 2.24,-2.8 0.3,0 2.24,2.8 1.95,3.22 -0,0.43 -1.95,3.22 -2.24,2.8  z" class="primitive"/>
  </g>
  <g transform="translate(222.17,53.33)">
    <path d="M-0.3,0 L-2.24,-2.8 -1.95,-3.22 -0,-0.43 1.95,-3.22 2.24,-2.8 0.3,0 2.24,2.8 1.95,3.22 -0,0.43 -1.95,3.22 -2.24,2.8  z" class="primitive"/>
  </g>
</g>
<g stroke-width="0.35" stroke="#3283A8" fill="#FFFFFF" id="img-88ca3590-3">
  <g transform="translate(184.27,53.33)">
    <path d="M-4.46,-4.27 L4.46,-4.27 4.46,4.27 -4.46,4.27  z" class="primitive"/>
  </g>
</g>
<g stroke-width="0.35" stroke="#3283A8" fill="#FFFFFF" id="img-88ca3590-4">
  <g transform="translate(159.01,37.33)">
    <path d="M-4.46,-4.27 L4.46,-4.27 4.46,4.27 -4.46,4.27  z" class="primitive"/>
  </g>
</g>
<g stroke-width="0.35" stroke="#3283A8" fill="#FFFFFF" id="img-88ca3590-5">
  <g transform="translate(146.38,37.33)">
    <path d="M-4.46,-4.27 L4.46,-4.27 4.46,4.27 -4.46,4.27  z" class="primitive"/>
  </g>
</g>
<g stroke-width="0.35" stroke="#3283A8" fill="#FFFFFF" id="img-88ca3590-6">
  <g transform="translate(121.11,21.33)">
    <path d="M-4.46,-4.27 L4.46,-4.27 4.46,4.27 -4.46,4.27  z" class="primitive"/>
  </g>
</g>
<g stroke-width="0.35" stroke="#3283A8" fill="#FFFFFF" id="img-88ca3590-7">
  <g transform="translate(108.48,21.33)">
    <path d="M-4.46,-4.27 L4.46,-4.27 4.46,4.27 -4.46,4.27  z" class="primitive"/>
  </g>
</g>
<g stroke-width="0.35" stroke="#3283A8" fill="#FFFFFF" id="img-88ca3590-8">
  <g transform="translate(95.85,21.33)">
    <path d="M-4.46,-4.27 L4.46,-4.27 4.46,4.27 -4.46,4.27  z" class="primitive"/>
  </g>
</g>
<g stroke-width="0.35" stroke="#3283A8" fill="#FFFFFF" id="img-88ca3590-9">
  <g transform="translate(70.59,5.33)">
    <path d="M-4.46,-4.27 L4.46,-4.27 4.46,4.27 -4.46,4.27  z" class="primitive"/>
  </g>
</g>
<g stroke-width="0.35" stroke="#3283A8" fill="#FFFFFF" id="img-88ca3590-10">
  <g transform="translate(57.96,5.33)">
    <path d="M-4.46,-4.27 L4.46,-4.27 4.46,4.27 -4.46,4.27  z" class="primitive"/>
  </g>
</g>
<g stroke-width="0.35" stroke="#3283A8" fill="#FFFFFF" id="img-88ca3590-11">
  <g transform="translate(45.33,5.33)">
    <path d="M-4.46,-4.27 L4.46,-4.27 4.46,4.27 -4.46,4.27  z" class="primitive"/>
  </g>
</g>
<g stroke-width="0" fill="#3283A8" id="img-88ca3590-12">
  <g transform="translate(32.69,21.33)">
    <circle cx="0" cy="0" r="0.99" class="primitive"/>
  </g>
  <g transform="translate(45.33,37.33)">
    <circle cx="0" cy="0" r="0.99" class="primitive"/>
  </g>
  <g transform="translate(57.96,53.33)">
    <circle cx="0" cy="0" r="0.99" class="primitive"/>
  </g>
  <g transform="translate(70.59,69.33)">
    <circle cx="0" cy="0" r="0.99" class="primitive"/>
  </g>
  <g transform="translate(95.85,37.33)">
    <circle cx="0" cy="0" r="0.99" class="primitive"/>
  </g>
  <g transform="translate(108.48,53.33)">
    <circle cx="0" cy="0" r="0.99" class="primitive"/>
  </g>
  <g transform="translate(121.11,69.33)">
    <circle cx="0" cy="0" r="0.99" class="primitive"/>
  </g>
  <g transform="translate(146.38,53.33)">
    <circle cx="0" cy="0" r="0.99" class="primitive"/>
  </g>
  <g transform="translate(159.01,69.33)">
    <circle cx="0" cy="0" r="0.99" class="primitive"/>
  </g>
  <g transform="translate(184.27,69.33)">
    <circle cx="0" cy="0" r="0.99" class="primitive"/>
  </g>
</g>
<g stroke-width="0.35" stroke="#3283A8" fill="#FFFFFF" id="img-88ca3590-13">
  <g transform="translate(32.69,5.33)">
    <path d="M-4.46,-4.27 L4.46,-4.27 4.46,4.27 -4.46,4.27  z" class="primitive"/>
  </g>
</g>
<g stroke-width="0.35" stroke="#3283A8" fill="#FFFFFF" id="img-88ca3590-14">
  <g transform="translate(20.06,5.33)">
    <path d="M-2.97,-4.27 L2.97,-4.27 2.97,4.27 -2.97,4.27  z" class="primitive"/>
  </g>
  <g transform="translate(83.22,21.33)">
    <path d="M-2.97,-4.27 L2.97,-4.27 2.97,4.27 -2.97,4.27  z" class="primitive"/>
  </g>
  <g transform="translate(133.75,37.33)">
    <path d="M-2.97,-4.27 L2.97,-4.27 2.97,4.27 -2.97,4.27  z" class="primitive"/>
  </g>
  <g transform="translate(171.64,53.33)">
    <path d="M-2.97,-4.27 L2.97,-4.27 2.97,4.27 -2.97,4.27  z" class="primitive"/>
  </g>
  <g transform="translate(196.9,69.33)">
    <path d="M-2.97,-4.27 L2.97,-4.27 2.97,4.27 -2.97,4.27  z" class="primitive"/>
  </g>
</g>
<g font-family="Helvetica Neue" fill="#3283A8" font-size="3.53" id="img-88ca3590-15">
  <g transform="translate(32.69,5.33)">
    <g class="primitive">
      <text text-anchor="middle" dy="0.35em">R(2)</text>
    </g>
  </g>
  <g transform="translate(45.33,5.33)">
    <g class="primitive">
      <text text-anchor="middle" dy="0.35em">R(3)</text>
    </g>
  </g>
  <g transform="translate(57.96,5.33)">
    <g class="primitive">
      <text text-anchor="middle" dy="0.35em">R(4)</text>
    </g>
  </g>
  <g transform="translate(70.59,5.33)">
    <g class="primitive">
      <text text-anchor="middle" dy="0.35em">R(5)</text>
    </g>
  </g>
  <g transform="translate(95.85,21.33)">
    <g class="primitive">
      <text text-anchor="middle" dy="0.35em">R(2)</text>
    </g>
  </g>
  <g transform="translate(108.48,21.33)">
    <g class="primitive">
      <text text-anchor="middle" dy="0.35em">R(3)</text>
    </g>
  </g>
  <g transform="translate(121.11,21.33)">
    <g class="primitive">
      <text text-anchor="middle" dy="0.35em">R(4)</text>
    </g>
  </g>
  <g transform="translate(146.38,37.33)">
    <g class="primitive">
      <text text-anchor="middle" dy="0.35em">R(2)</text>
    </g>
  </g>
  <g transform="translate(159.01,37.33)">
    <g class="primitive">
      <text text-anchor="middle" dy="0.35em">R(3)</text>
    </g>
  </g>
  <g transform="translate(184.27,53.33)">
    <g class="primitive">
      <text text-anchor="middle" dy="0.35em">R(2)</text>
    </g>
  </g>
</g>
<g font-family="Helvetica Neue" fill="#3283A8" font-size="5.64" id="img-88ca3590-16">
  <g transform="translate(20.06,5.33)">
    <g class="primitive">
      <text text-anchor="middle" dy="0.35em">H</text>
    </g>
  </g>
  <g transform="translate(83.22,21.33)">
    <g class="primitive">
      <text text-anchor="middle" dy="0.35em">H</text>
    </g>
  </g>
  <g transform="translate(133.75,37.33)">
    <g class="primitive">
      <text text-anchor="middle" dy="0.35em">H</text>
    </g>
  </g>
  <g transform="translate(171.64,53.33)">
    <g class="primitive">
      <text text-anchor="middle" dy="0.35em">H</text>
    </g>
  </g>
  <g transform="translate(196.9,69.33)">
    <g class="primitive">
      <text text-anchor="middle" dy="0.35em">H</text>
    </g>
  </g>
</g>
</svg>
