<?xml version="1.0" encoding="utf-8"?>
<svg xmlns="http://www.w3.org/2000/svg" xmlns:xlink="http://www.w3.org/1999/xlink" width="600" height="400" viewBox="0 0 2400 1600">
<defs>
  <clipPath id="clip340">
    <rect x="0" y="0" width="2400" height="1600"/>
  </clipPath>
</defs>
<path clip-path="url(#clip340)" d="
M0 1600 L2400 1600 L2400 0 L0 0  Z
  " fill="#ffffff" fill-rule="evenodd" fill-opacity="1"/>
<defs>
  <clipPath id="clip341">
    <rect x="480" y="0" width="1681" height="1600"/>
  </clipPath>
</defs>
<path clip-path="url(#clip340)" d="
M202.177 1486.45 L2352.76 1486.45 L2352.76 47.2441 L202.177 47.2441  Z
  " fill="#ffffff" fill-rule="evenodd" fill-opacity="1"/>
<defs>
  <clipPath id="clip342">
    <rect x="202" y="47" width="2152" height="1440"/>
  </clipPath>
</defs>
<polyline clip-path="url(#clip342)" style="stroke:#000000; stroke-width:2; stroke-opacity:0.1; fill:none" points="
  368.918,1486.45 368.918,47.2441 
  "/>
<polyline clip-path="url(#clip342)" style="stroke:#000000; stroke-width:2; stroke-opacity:0.1; fill:none" points="
  974.617,1486.45 974.617,47.2441 
  "/>
<polyline clip-path="url(#clip342)" style="stroke:#000000; stroke-width:2; stroke-opacity:0.1; fill:none" points="
  1580.32,1486.45 1580.32,47.2441 
  "/>
<polyline clip-path="url(#clip342)" style="stroke:#000000; stroke-width:2; stroke-opacity:0.1; fill:none" points="
  2186.01,1486.45 2186.01,47.2441 
  "/>
<polyline clip-path="url(#clip340)" style="stroke:#000000; stroke-width:4; stroke-opacity:1; fill:none" points="
  202.177,1486.45 2352.76,1486.45 
  "/>
<polyline clip-path="url(#clip340)" style="stroke:#000000; stroke-width:4; stroke-opacity:1; fill:none" points="
  368.918,1486.45 368.918,1469.18 
  "/>
<polyline clip-path="url(#clip340)" style="stroke:#000000; stroke-width:4; stroke-opacity:1; fill:none" points="
  974.617,1486.45 974.617,1469.18 
  "/>
<polyline clip-path="url(#clip340)" style="stroke:#000000; stroke-width:4; stroke-opacity:1; fill:none" points="
  1580.32,1486.45 1580.32,1469.18 
  "/>
<polyline clip-path="url(#clip340)" style="stroke:#000000; stroke-width:4; stroke-opacity:1; fill:none" points="
  2186.01,1486.45 2186.01,1469.18 
  "/>
<path clip-path="url(#clip340)" d="M 0 0 M368.918 1515.64 Q365.307 1515.64 363.478 1519.2 Q361.673 1522.75 361.673 1529.87 Q361.673 1536.98 363.478 1540.55 Q365.307 1544.09 368.918 1544.09 Q372.553 1544.09 374.358 1540.55 Q376.187 1536.98 376.187 1529.87 Q376.187 1522.75 374.358 1519.2 Q372.553 1515.64 368.918 1515.64 M368.918 1511.93 Q374.728 1511.93 377.784 1516.54 Q380.863 1521.12 380.863 1529.87 Q380.863 1538.6 377.784 1543.21 Q374.728 1547.79 368.918 1547.79 Q363.108 1547.79 360.029 1543.21 Q356.974 1538.6 356.974 1529.87 Q356.974 1521.12 360.029 1516.54 Q363.108 1511.93 368.918 1511.93 Z" fill="#000000" fill-rule="evenodd" fill-opacity="1" /><path clip-path="url(#clip340)" d="M 0 0 M964.895 1512.56 L983.251 1512.56 L983.251 1516.5 L969.177 1516.5 L969.177 1524.97 Q970.196 1524.62 971.214 1524.46 Q972.233 1524.27 973.251 1524.27 Q979.038 1524.27 982.418 1527.44 Q985.797 1530.62 985.797 1536.03 Q985.797 1541.61 982.325 1544.71 Q978.853 1547.79 972.534 1547.79 Q970.358 1547.79 968.089 1547.42 Q965.844 1547.05 963.436 1546.31 L963.436 1541.61 Q965.52 1542.74 967.742 1543.3 Q969.964 1543.86 972.441 1543.86 Q976.446 1543.86 978.784 1541.75 Q981.122 1539.64 981.122 1536.03 Q981.122 1532.42 978.784 1530.31 Q976.446 1528.21 972.441 1528.21 Q970.566 1528.21 968.691 1528.62 Q966.839 1529.04 964.895 1529.92 L964.895 1512.56 Z" fill="#000000" fill-rule="evenodd" fill-opacity="1" /><path clip-path="url(#clip340)" d="M 0 0 M1555 1543.18 L1562.64 1543.18 L1562.64 1516.82 L1554.33 1518.49 L1554.33 1514.23 L1562.6 1512.56 L1567.27 1512.56 L1567.27 1543.18 L1574.91 1543.18 L1574.91 1547.12 L1555 1547.12 L1555 1543.18 Z" fill="#000000" fill-rule="evenodd" fill-opacity="1" /><path clip-path="url(#clip340)" d="M 0 0 M1594.35 1515.64 Q1590.74 1515.64 1588.92 1519.2 Q1587.11 1522.75 1587.11 1529.87 Q1587.11 1536.98 1588.92 1540.55 Q1590.74 1544.09 1594.35 1544.09 Q1597.99 1544.09 1599.79 1540.55 Q1601.62 1536.98 1601.62 1529.87 Q1601.62 1522.75 1599.79 1519.2 Q1597.99 1515.64 1594.35 1515.64 M1594.35 1511.93 Q1600.17 1511.93 1603.22 1516.54 Q1606.3 1521.12 1606.3 1529.87 Q1606.3 1538.6 1603.22 1543.21 Q1600.17 1547.79 1594.35 1547.79 Q1588.54 1547.79 1585.47 1543.21 Q1582.41 1538.6 1582.41 1529.87 Q1582.41 1521.12 1585.47 1516.54 Q1588.54 1511.93 1594.35 1511.93 Z" fill="#000000" fill-rule="evenodd" fill-opacity="1" /><path clip-path="url(#clip340)" d="M 0 0 M2161.2 1543.18 L2168.84 1543.18 L2168.84 1516.82 L2160.53 1518.49 L2160.53 1514.23 L2168.79 1512.56 L2173.47 1512.56 L2173.47 1543.18 L2181.11 1543.18 L2181.11 1547.12 L2161.2 1547.12 L2161.2 1543.18 Z" fill="#000000" fill-rule="evenodd" fill-opacity="1" /><path clip-path="url(#clip340)" d="M 0 0 M2190.6 1512.56 L2208.95 1512.56 L2208.95 1516.5 L2194.88 1516.5 L2194.88 1524.97 Q2195.9 1524.62 2196.92 1524.46 Q2197.94 1524.27 2198.95 1524.27 Q2204.74 1524.27 2208.12 1527.44 Q2211.5 1530.62 2211.5 1536.03 Q2211.5 1541.61 2208.03 1544.71 Q2204.56 1547.79 2198.24 1547.79 Q2196.06 1547.79 2193.79 1547.42 Q2191.55 1547.05 2189.14 1546.31 L2189.14 1541.61 Q2191.22 1542.74 2193.44 1543.3 Q2195.67 1543.86 2198.14 1543.86 Q2202.15 1543.86 2204.49 1541.75 Q2206.82 1539.64 2206.82 1536.03 Q2206.82 1532.42 2204.49 1530.31 Q2202.15 1528.21 2198.14 1528.21 Q2196.27 1528.21 2194.39 1528.62 Q2192.54 1529.04 2190.6 1529.92 L2190.6 1512.56 Z" fill="#000000" fill-rule="evenodd" fill-opacity="1" /><polyline clip-path="url(#clip342)" style="stroke:#000000; stroke-width:2; stroke-opacity:0.1; fill:none" points="
  202.177,1445.72 2352.76,1445.72 
  "/>
<polyline clip-path="url(#clip342)" style="stroke:#000000; stroke-width:2; stroke-opacity:0.1; fill:none" points="
  202.177,1122.52 2352.76,1122.52 
  "/>
<polyline clip-path="url(#clip342)" style="stroke:#000000; stroke-width:2; stroke-opacity:0.1; fill:none" points="
  202.177,799.327 2352.76,799.327 
  "/>
<polyline clip-path="url(#clip342)" style="stroke:#000000; stroke-width:2; stroke-opacity:0.1; fill:none" points="
  202.177,476.133 2352.76,476.133 
  "/>
<polyline clip-path="url(#clip342)" style="stroke:#000000; stroke-width:2; stroke-opacity:0.1; fill:none" points="
  202.177,152.938 2352.76,152.938 
  "/>
<polyline clip-path="url(#clip340)" style="stroke:#000000; stroke-width:4; stroke-opacity:1; fill:none" points="
  202.177,1486.45 202.177,47.2441 
  "/>
<polyline clip-path="url(#clip340)" style="stroke:#000000; stroke-width:4; stroke-opacity:1; fill:none" points="
  202.177,1445.72 227.984,1445.72 
  "/>
<polyline clip-path="url(#clip340)" style="stroke:#000000; stroke-width:4; stroke-opacity:1; fill:none" points="
  202.177,1122.52 227.984,1122.52 
  "/>
<polyline clip-path="url(#clip340)" style="stroke:#000000; stroke-width:4; stroke-opacity:1; fill:none" points="
  202.177,799.327 227.984,799.327 
  "/>
<polyline clip-path="url(#clip340)" style="stroke:#000000; stroke-width:4; stroke-opacity:1; fill:none" points="
  202.177,476.133 227.984,476.133 
  "/>
<polyline clip-path="url(#clip340)" style="stroke:#000000; stroke-width:4; stroke-opacity:1; fill:none" points="
  202.177,152.938 227.984,152.938 
  "/>
<path clip-path="url(#clip340)" d="M 0 0 M154.232 1431.51 Q150.621 1431.51 148.793 1435.08 Q146.987 1438.62 146.987 1445.75 Q146.987 1452.86 148.793 1456.42 Q150.621 1459.96 154.232 1459.96 Q157.867 1459.96 159.672 1456.42 Q161.501 1452.86 161.501 1445.75 Q161.501 1438.62 159.672 1435.08 Q157.867 1431.51 154.232 1431.51 M154.232 1427.81 Q160.042 1427.81 163.098 1432.42 Q166.177 1437 166.177 1445.75 Q166.177 1454.48 163.098 1459.08 Q160.042 1463.67 154.232 1463.67 Q148.422 1463.67 145.343 1459.08 Q142.288 1454.48 142.288 1445.75 Q142.288 1437 145.343 1432.42 Q148.422 1427.81 154.232 1427.81 Z" fill="#000000" fill-rule="evenodd" fill-opacity="1" /><path clip-path="url(#clip340)" d="M 0 0 M54.5569 1135.87 L62.1958 1135.87 L62.1958 1109.5 L53.8856 1111.17 L53.8856 1106.91 L62.1495 1105.24 L66.8254 1105.24 L66.8254 1135.87 L74.4642 1135.87 L74.4642 1139.8 L54.5569 1139.8 L54.5569 1135.87 Z" fill="#000000" fill-rule="evenodd" fill-opacity="1" /><path clip-path="url(#clip340)" d="M 0 0 M93.9086 1108.32 Q90.2975 1108.32 88.4688 1111.88 Q86.6632 1115.43 86.6632 1122.56 Q86.6632 1129.66 88.4688 1133.23 Q90.2975 1136.77 93.9086 1136.77 Q97.5428 1136.77 99.3483 1133.23 Q101.177 1129.66 101.177 1122.56 Q101.177 1115.43 99.3483 1111.88 Q97.5428 1108.32 93.9086 1108.32 M93.9086 1104.62 Q99.7187 1104.62 102.774 1109.22 Q105.853 1113.81 105.853 1122.56 Q105.853 1131.28 102.774 1135.89 Q99.7187 1140.47 93.9086 1140.47 Q88.0984 1140.47 85.0197 1135.89 Q81.9642 1131.28 81.9642 1122.56 Q81.9642 1113.81 85.0197 1109.22 Q88.0984 1104.62 93.9086 1104.62 Z" fill="#000000" fill-rule="evenodd" fill-opacity="1" /><path clip-path="url(#clip340)" d="M 0 0 M124.07 1108.32 Q120.459 1108.32 118.631 1111.88 Q116.825 1115.43 116.825 1122.56 Q116.825 1129.66 118.631 1133.23 Q120.459 1136.77 124.07 1136.77 Q127.705 1136.77 129.51 1133.23 Q131.339 1129.66 131.339 1122.56 Q131.339 1115.43 129.51 1111.88 Q127.705 1108.32 124.07 1108.32 M124.07 1104.62 Q129.881 1104.62 132.936 1109.22 Q136.015 1113.81 136.015 1122.56 Q136.015 1131.28 132.936 1135.89 Q129.881 1140.47 124.07 1140.47 Q118.26 1140.47 115.182 1135.89 Q112.126 1131.28 112.126 1122.56 Q112.126 1113.81 115.182 1109.22 Q118.26 1104.62 124.07 1104.62 Z" fill="#000000" fill-rule="evenodd" fill-opacity="1" /><path clip-path="url(#clip340)" d="M 0 0 M154.232 1108.32 Q150.621 1108.32 148.793 1111.88 Q146.987 1115.43 146.987 1122.56 Q146.987 1129.66 148.793 1133.23 Q150.621 1136.77 154.232 1136.77 Q157.867 1136.77 159.672 1133.23 Q161.501 1129.66 161.501 1122.56 Q161.501 1115.43 159.672 1111.88 Q157.867 1108.32 154.232 1108.32 M154.232 1104.62 Q160.042 1104.62 163.098 1109.22 Q166.177 1113.81 166.177 1122.56 Q166.177 1131.28 163.098 1135.89 Q160.042 1140.47 154.232 1140.47 Q148.422 1140.47 145.343 1135.89 Q142.288 1131.28 142.288 1122.56 Q142.288 1113.81 145.343 1109.22 Q148.422 1104.62 154.232 1104.62 Z" fill="#000000" fill-rule="evenodd" fill-opacity="1" /><path clip-path="url(#clip340)" d="M 0 0 M57.7745 812.672 L74.0939 812.672 L74.0939 816.607 L52.1495 816.607 L52.1495 812.672 Q54.8115 809.917 59.3949 805.288 Q64.0013 800.635 65.1819 799.292 Q67.4272 796.769 68.3068 795.033 Q69.2096 793.274 69.2096 791.584 Q69.2096 788.829 67.2652 787.093 Q65.3439 785.357 62.2421 785.357 Q60.043 785.357 57.5893 786.121 Q55.1588 786.885 52.381 788.436 L52.381 783.714 Q55.2051 782.579 57.6588 782.001 Q60.1124 781.422 62.1495 781.422 Q67.5198 781.422 70.7142 784.107 Q73.9087 786.792 73.9087 791.283 Q73.9087 793.413 73.0985 795.334 Q72.3115 797.232 70.205 799.825 Q69.6263 800.496 66.5245 803.714 Q63.4226 806.908 57.7745 812.672 Z" fill="#000000" fill-rule="evenodd" fill-opacity="1" /><path clip-path="url(#clip340)" d="M 0 0 M93.9086 785.126 Q90.2975 785.126 88.4688 788.69 Q86.6632 792.232 86.6632 799.362 Q86.6632 806.468 88.4688 810.033 Q90.2975 813.575 93.9086 813.575 Q97.5428 813.575 99.3483 810.033 Q101.177 806.468 101.177 799.362 Q101.177 792.232 99.3483 788.69 Q97.5428 785.126 93.9086 785.126 M93.9086 781.422 Q99.7187 781.422 102.774 786.028 Q105.853 790.612 105.853 799.362 Q105.853 808.089 102.774 812.695 Q99.7187 817.278 93.9086 817.278 Q88.0984 817.278 85.0197 812.695 Q81.9642 808.089 81.9642 799.362 Q81.9642 790.612 85.0197 786.028 Q88.0984 781.422 93.9086 781.422 Z" fill="#000000" fill-rule="evenodd" fill-opacity="1" /><path clip-path="url(#clip340)" d="M 0 0 M124.07 785.126 Q120.459 785.126 118.631 788.69 Q116.825 792.232 116.825 799.362 Q116.825 806.468 118.631 810.033 Q120.459 813.575 124.07 813.575 Q127.705 813.575 129.51 810.033 Q131.339 806.468 131.339 799.362 Q131.339 792.232 129.51 788.69 Q127.705 785.126 124.07 785.126 M124.07 781.422 Q129.881 781.422 132.936 786.028 Q136.015 790.612 136.015 799.362 Q136.015 808.089 132.936 812.695 Q129.881 817.278 124.07 817.278 Q118.26 817.278 115.182 812.695 Q112.126 808.089 112.126 799.362 Q112.126 790.612 115.182 786.028 Q118.26 781.422 124.07 781.422 Z" fill="#000000" fill-rule="evenodd" fill-opacity="1" /><path clip-path="url(#clip340)" d="M 0 0 M154.232 785.126 Q150.621 785.126 148.793 788.69 Q146.987 792.232 146.987 799.362 Q146.987 806.468 148.793 810.033 Q150.621 813.575 154.232 813.575 Q157.867 813.575 159.672 810.033 Q161.501 806.468 161.501 799.362 Q161.501 792.232 159.672 788.69 Q157.867 785.126 154.232 785.126 M154.232 781.422 Q160.042 781.422 163.098 786.028 Q166.177 790.612 166.177 799.362 Q166.177 808.089 163.098 812.695 Q160.042 817.278 154.232 817.278 Q148.422 817.278 145.343 812.695 Q142.288 808.089 142.288 799.362 Q142.288 790.612 145.343 786.028 Q148.422 781.422 154.232 781.422 Z" fill="#000000" fill-rule="evenodd" fill-opacity="1" /><path clip-path="url(#clip340)" d="M 0 0 M67.9133 474.779 Q71.2698 475.496 73.1448 477.765 Q75.0429 480.033 75.0429 483.366 Q75.0429 488.482 71.5244 491.283 Q68.0059 494.084 61.5245 494.084 Q59.3486 494.084 57.0338 493.644 Q54.7421 493.227 52.2884 492.371 L52.2884 487.857 Q54.2328 488.991 56.5477 489.57 Q58.8625 490.149 61.3856 490.149 Q65.7837 490.149 68.0754 488.413 Q70.3902 486.677 70.3902 483.366 Q70.3902 480.311 68.2374 478.598 Q66.1078 476.862 62.2884 476.862 L58.2606 476.862 L58.2606 473.019 L62.4735 473.019 Q65.9226 473.019 67.7513 471.654 Q69.58 470.265 69.58 467.672 Q69.58 465.01 67.6819 463.598 Q65.8069 462.163 62.2884 462.163 Q60.3671 462.163 58.168 462.58 Q55.969 462.996 53.3301 463.876 L53.3301 459.709 Q55.9921 458.968 58.3069 458.598 Q60.6449 458.228 62.705 458.228 Q68.0291 458.228 71.1309 460.658 Q74.2327 463.066 74.2327 467.186 Q74.2327 470.056 72.5892 472.047 Q70.9457 474.015 67.9133 474.779 Z" fill="#000000" fill-rule="evenodd" fill-opacity="1" /><path clip-path="url(#clip340)" d="M 0 0 M93.9086 461.931 Q90.2975 461.931 88.4688 465.496 Q86.6632 469.038 86.6632 476.167 Q86.6632 483.274 88.4688 486.839 Q90.2975 490.38 93.9086 490.38 Q97.5428 490.38 99.3483 486.839 Q101.177 483.274 101.177 476.167 Q101.177 469.038 99.3483 465.496 Q97.5428 461.931 93.9086 461.931 M93.9086 458.228 Q99.7187 458.228 102.774 462.834 Q105.853 467.417 105.853 476.167 Q105.853 484.894 102.774 489.501 Q99.7187 494.084 93.9086 494.084 Q88.0984 494.084 85.0197 489.501 Q81.9642 484.894 81.9642 476.167 Q81.9642 467.417 85.0197 462.834 Q88.0984 458.228 93.9086 458.228 Z" fill="#000000" fill-rule="evenodd" fill-opacity="1" /><path clip-path="url(#clip340)" d="M 0 0 M124.07 461.931 Q120.459 461.931 118.631 465.496 Q116.825 469.038 116.825 476.167 Q116.825 483.274 118.631 486.839 Q120.459 490.38 124.07 490.38 Q127.705 490.38 129.51 486.839 Q131.339 483.274 131.339 476.167 Q131.339 469.038 129.51 465.496 Q127.705 461.931 124.07 461.931 M124.07 458.228 Q129.881 458.228 132.936 462.834 Q136.015 467.417 136.015 476.167 Q136.015 484.894 132.936 489.501 Q129.881 494.084 124.07 494.084 Q118.26 494.084 115.182 489.501 Q112.126 484.894 112.126 476.167 Q112.126 467.417 115.182 462.834 Q118.26 458.228 124.07 458.228 Z" fill="#000000" fill-rule="evenodd" fill-opacity="1" /><path clip-path="url(#clip340)" d="M 0 0 M154.232 461.931 Q150.621 461.931 148.793 465.496 Q146.987 469.038 146.987 476.167 Q146.987 483.274 148.793 486.839 Q150.621 490.38 154.232 490.38 Q157.867 490.38 159.672 486.839 Q161.501 483.274 161.501 476.167 Q161.501 469.038 159.672 465.496 Q157.867 461.931 154.232 461.931 M154.232 458.228 Q160.042 458.228 163.098 462.834 Q166.177 467.417 166.177 476.167 Q166.177 484.894 163.098 489.501 Q160.042 494.084 154.232 494.084 Q148.422 494.084 145.343 489.501 Q142.288 484.894 142.288 476.167 Q142.288 467.417 145.343 462.834 Q148.422 458.228 154.232 458.228 Z" fill="#000000" fill-rule="evenodd" fill-opacity="1" /><path clip-path="url(#clip340)" d="M 0 0 M66.5939 139.732 L54.7884 158.181 L66.5939 158.181 L66.5939 139.732 M65.367 135.658 L71.2466 135.658 L71.2466 158.181 L76.1772 158.181 L76.1772 162.07 L71.2466 162.07 L71.2466 170.218 L66.5939 170.218 L66.5939 162.07 L50.9921 162.07 L50.9921 157.556 L65.367 135.658 Z" fill="#000000" fill-rule="evenodd" fill-opacity="1" /><path clip-path="url(#clip340)" d="M 0 0 M93.9086 138.737 Q90.2975 138.737 88.4688 142.302 Q86.6632 145.843 86.6632 152.973 Q86.6632 160.08 88.4688 163.644 Q90.2975 167.186 93.9086 167.186 Q97.5428 167.186 99.3483 163.644 Q101.177 160.08 101.177 152.973 Q101.177 145.843 99.3483 142.302 Q97.5428 138.737 93.9086 138.737 M93.9086 135.033 Q99.7187 135.033 102.774 139.64 Q105.853 144.223 105.853 152.973 Q105.853 161.7 102.774 166.306 Q99.7187 170.89 93.9086 170.89 Q88.0984 170.89 85.0197 166.306 Q81.9642 161.7 81.9642 152.973 Q81.9642 144.223 85.0197 139.64 Q88.0984 135.033 93.9086 135.033 Z" fill="#000000" fill-rule="evenodd" fill-opacity="1" /><path clip-path="url(#clip340)" d="M 0 0 M124.07 138.737 Q120.459 138.737 118.631 142.302 Q116.825 145.843 116.825 152.973 Q116.825 160.08 118.631 163.644 Q120.459 167.186 124.07 167.186 Q127.705 167.186 129.51 163.644 Q131.339 160.08 131.339 152.973 Q131.339 145.843 129.51 142.302 Q127.705 138.737 124.07 138.737 M124.07 135.033 Q129.881 135.033 132.936 139.64 Q136.015 144.223 136.015 152.973 Q136.015 161.7 132.936 166.306 Q129.881 170.89 124.07 170.89 Q118.26 170.89 115.182 166.306 Q112.126 161.7 112.126 152.973 Q112.126 144.223 115.182 139.64 Q118.26 135.033 124.07 135.033 Z" fill="#000000" fill-rule="evenodd" fill-opacity="1" /><path clip-path="url(#clip340)" d="M 0 0 M154.232 138.737 Q150.621 138.737 148.793 142.302 Q146.987 145.843 146.987 152.973 Q146.987 160.08 148.793 163.644 Q150.621 167.186 154.232 167.186 Q157.867 167.186 159.672 163.644 Q161.501 160.08 161.501 152.973 Q161.501 145.843 159.672 142.302 Q157.867 138.737 154.232 138.737 M154.232 135.033 Q160.042 135.033 163.098 139.64 Q166.177 144.223 166.177 152.973 Q166.177 161.7 163.098 166.306 Q160.042 170.89 154.232 170.89 Q148.422 170.89 145.343 166.306 Q142.288 161.7 142.288 152.973 Q142.288 144.223 145.343 139.64 Q148.422 135.033 154.232 135.033 Z" fill="#000000" fill-rule="evenodd" fill-opacity="1" /><path clip-path="url(#clip342)" d="
M320.462 1445.72 L320.462 1445.72 L417.374 1445.72 L417.374 1445.72 L320.462 1445.72 L320.462 1445.72  Z
  " fill="#009af9" fill-rule="evenodd" fill-opacity="1"/>
<polyline clip-path="url(#clip342)" style="stroke:#000000; stroke-width:4; stroke-opacity:1; fill:none" points="
  320.462,1445.72 320.462,1445.72 417.374,1445.72 320.462,1445.72 
  "/>
<path clip-path="url(#clip342)" d="
M1289.58 1445.72 L1289.58 1445.72 L1386.49 1445.72 L1386.49 1445.72 L1289.58 1445.72 L1289.58 1445.72  Z
  " fill="#009af9" fill-rule="evenodd" fill-opacity="1"/>
<polyline clip-path="url(#clip342)" style="stroke:#000000; stroke-width:4; stroke-opacity:1; fill:none" points="
  1289.58,1445.72 1289.58,1445.72 1386.49,1445.72 1289.58,1445.72 
  "/>
<path clip-path="url(#clip342)" d="
M805.021 1445.72 L805.021 1445.72 L901.933 1445.72 L901.933 1445.72 L805.021 1445.72 L805.021 1445.72  Z
  " fill="#009af9" fill-rule="evenodd" fill-opacity="1"/>
<polyline clip-path="url(#clip342)" style="stroke:#000000; stroke-width:4; stroke-opacity:1; fill:none" points="
  805.021,1445.72 805.021,1445.72 901.933,1445.72 805.021,1445.72 
  "/>
<path clip-path="url(#clip342)" d="
M1774.14 87.9763 L1774.14 1445.72 L1871.05 1445.72 L1871.05 87.9763 L1774.14 87.9763 L1774.14 87.9763  Z
  " fill="#009af9" fill-rule="evenodd" fill-opacity="1"/>
<polyline clip-path="url(#clip342)" style="stroke:#000000; stroke-width:4; stroke-opacity:1; fill:none" points="
  1774.14,87.9763 1774.14,1445.72 1871.05,1445.72 1871.05,87.9763 1774.14,87.9763 
  "/>
<path clip-path="url(#clip342)" d="
M562.742 1445.72 L562.742 1445.72 L659.654 1445.72 L659.654 1445.72 L562.742 1445.72 L562.742 1445.72  Z
  " fill="#009af9" fill-rule="evenodd" fill-opacity="1"/>
<polyline clip-path="url(#clip342)" style="stroke:#000000; stroke-width:4; stroke-opacity:1; fill:none" points="
  562.742,1445.72 562.742,1445.72 659.654,1445.72 562.742,1445.72 
  "/>
<path clip-path="url(#clip342)" d="
M1531.86 1445.72 L1531.86 1445.72 L1628.77 1445.72 L1628.77 1445.72 L1531.86 1445.72 L1531.86 1445.72  Z
  " fill="#009af9" fill-rule="evenodd" fill-opacity="1"/>
<polyline clip-path="url(#clip342)" style="stroke:#000000; stroke-width:4; stroke-opacity:1; fill:none" points="
  1531.86,1445.72 1531.86,1445.72 1628.77,1445.72 1531.86,1445.72 
  "/>
<path clip-path="url(#clip342)" d="
M1047.3 517.502 L1047.3 1445.72 L1144.21 1445.72 L1144.21 517.502 L1047.3 517.502 L1047.3 517.502  Z
  " fill="#009af9" fill-rule="evenodd" fill-opacity="1"/>
<polyline clip-path="url(#clip342)" style="stroke:#000000; stroke-width:4; stroke-opacity:1; fill:none" points="
  1047.3,517.502 1047.3,1445.72 1144.21,1445.72 1144.21,517.502 1047.3,517.502 
  "/>
<path clip-path="url(#clip342)" d="
M2016.42 1445.72 L2016.42 1445.72 L2113.33 1445.72 L2113.33 1445.72 L2016.42 1445.72 L2016.42 1445.72  Z
  " fill="#009af9" fill-rule="evenodd" fill-opacity="1"/>
<polyline clip-path="url(#clip342)" style="stroke:#000000; stroke-width:4; stroke-opacity:1; fill:none" points="
  2016.42,1445.72 2016.42,1445.72 2113.33,1445.72 2016.42,1445.72 
  "/>
<path clip-path="url(#clip342)" d="
M441.602 1445.72 L441.602 1445.72 L538.514 1445.72 L538.514 1445.72 L441.602 1445.72 L441.602 1445.72  Z
  " fill="#009af9" fill-rule="evenodd" fill-opacity="1"/>
<polyline clip-path="url(#clip342)" style="stroke:#000000; stroke-width:4; stroke-opacity:1; fill:none" points="
  441.602,1445.72 441.602,1445.72 538.514,1445.72 441.602,1445.72 
  "/>
<path clip-path="url(#clip342)" d="
M1410.72 1445.72 L1410.72 1445.72 L1507.63 1445.72 L1507.63 1445.72 L1410.72 1445.72 L1410.72 1445.72  Z
  " fill="#009af9" fill-rule="evenodd" fill-opacity="1"/>
<polyline clip-path="url(#clip342)" style="stroke:#000000; stroke-width:4; stroke-opacity:1; fill:none" points="
  1410.72,1445.72 1410.72,1445.72 1507.63,1445.72 1410.72,1445.72 
  "/>
<path clip-path="url(#clip342)" d="
M926.161 1445.72 L926.161 1445.72 L1023.07 1445.72 L1023.07 1445.72 L926.161 1445.72 L926.161 1445.72  Z
  " fill="#009af9" fill-rule="evenodd" fill-opacity="1"/>
<polyline clip-path="url(#clip342)" style="stroke:#000000; stroke-width:4; stroke-opacity:1; fill:none" points="
  926.161,1445.72 926.161,1445.72 1023.07,1445.72 926.161,1445.72 
  "/>
<path clip-path="url(#clip342)" d="
M1895.28 1445.72 L1895.28 1445.72 L1992.19 1445.72 L1992.19 1445.72 L1895.28 1445.72 L1895.28 1445.72  Z
  " fill="#009af9" fill-rule="evenodd" fill-opacity="1"/>
<polyline clip-path="url(#clip342)" style="stroke:#000000; stroke-width:4; stroke-opacity:1; fill:none" points="
  1895.28,1445.72 1895.28,1445.72 1992.19,1445.72 1895.28,1445.72 
  "/>
<path clip-path="url(#clip342)" d="
M683.882 1445.72 L683.882 1445.72 L780.793 1445.72 L780.793 1445.72 L683.882 1445.72 L683.882 1445.72  Z
  " fill="#009af9" fill-rule="evenodd" fill-opacity="1"/>
<polyline clip-path="url(#clip342)" style="stroke:#000000; stroke-width:4; stroke-opacity:1; fill:none" points="
  683.882,1445.72 683.882,1445.72 780.793,1445.72 683.882,1445.72 
  "/>
<path clip-path="url(#clip342)" d="
M1653 1445.72 L1653 1445.72 L1749.91 1445.72 L1749.91 1445.72 L1653 1445.72 L1653 1445.72  Z
  " fill="#009af9" fill-rule="evenodd" fill-opacity="1"/>
<polyline clip-path="url(#clip342)" style="stroke:#000000; stroke-width:4; stroke-opacity:1; fill:none" points="
  1653,1445.72 1653,1445.72 1749.91,1445.72 1653,1445.72 
  "/>
<path clip-path="url(#clip342)" d="
M1168.44 1445.72 L1168.44 1445.72 L1265.35 1445.72 L1265.35 1445.72 L1168.44 1445.72 L1168.44 1445.72  Z
  " fill="#009af9" fill-rule="evenodd" fill-opacity="1"/>
<polyline clip-path="url(#clip342)" style="stroke:#000000; stroke-width:4; stroke-opacity:1; fill:none" points="
  1168.44,1445.72 1168.44,1445.72 1265.35,1445.72 1168.44,1445.72 
  "/>
<path clip-path="url(#clip342)" d="
M2137.56 499.726 L2137.56 1445.72 L2234.47 1445.72 L2234.47 499.726 L2137.56 499.726 L2137.56 499.726  Z
  " fill="#009af9" fill-rule="evenodd" fill-opacity="1"/>
<polyline clip-path="url(#clip342)" style="stroke:#000000; stroke-width:4; stroke-opacity:1; fill:none" points="
  2137.56,499.726 2137.56,1445.72 2234.47,1445.72 2234.47,499.726 2137.56,499.726 
  "/>
</svg>
