<?xml version="1.0" encoding="UTF-8"?>
<svg xmlns="http://www.w3.org/2000/svg"
     xmlns:xlink="http://www.w3.org/1999/xlink"
     version="1.2"
     width="148.75mm" height="112.5mm" viewBox="0 0 148.75 112.5"
     stroke="none"
     fill="#000000"
     stroke-width="0.3"
     font-size="3.88"
>
<defs>
  <marker id="arrow" markerWidth="15" markerHeight="7" refX="5" refY="3.5" orient="auto" markerUnits="strokeWidth">
    <path d="M0,0 L15,3.5 L0,7 z" stroke="context-stroke" fill="context-stroke"/>
  </marker>
</defs>
<g stroke-width="0.35" stroke="#000000" id="img-9f46b6a2-1">
  <g transform="translate(129.37,100)">
    <path fill="none" d="M10.62,0 L-10.62,0 " class="primitive"/>
  </g>
</g>
<g stroke-width="0.35" stroke="#000000" id="img-9f46b6a2-2">
  <g transform="translate(140,100)">
    <path fill="none" d="M0,-3.75 L0,3.75 " class="primitive"/>
  </g>
</g>
<g stroke-width="0.35" stroke="#000000" id="img-9f46b6a2-3">
  <g transform="translate(129.37,81.25)">
    <path fill="none" d="M10.62,0 L-10.62,0 " class="primitive"/>
  </g>
</g>
<g stroke-width="0.35" stroke="#000000" id="img-9f46b6a2-4">
  <g transform="translate(140,81.25)">
    <path fill="none" d="M0,-3.75 L0,3.75 " class="primitive"/>
  </g>
</g>
<g stroke-width="0.35" stroke="#000000" id="img-9f46b6a2-5">
  <g transform="translate(129.37,62.5)">
    <path fill="none" d="M10.62,0 L-10.62,0 " class="primitive"/>
  </g>
</g>
<g stroke-width="0.35" stroke="#000000" id="img-9f46b6a2-6">
  <g transform="translate(140,62.5)">
    <path fill="none" d="M0,-3.75 L0,3.75 " class="primitive"/>
  </g>
</g>
<g stroke-width="0.35" stroke="#000000" id="img-9f46b6a2-7">
  <g transform="translate(129.37,43.75)">
    <path fill="none" d="M10.62,0 L-10.62,0 " class="primitive"/>
  </g>
</g>
<g stroke-width="0.35" stroke="#000000" id="img-9f46b6a2-8">
  <g transform="translate(140,43.75)">
    <path fill="none" d="M0,-3.75 L0,3.75 " class="primitive"/>
  </g>
</g>
<g stroke-width="0.35" stroke="#000000" id="img-9f46b6a2-9">
  <g transform="translate(129.37,25)">
    <path fill="none" d="M10.62,0 L-10.62,0 " class="primitive"/>
  </g>
</g>
<g stroke-width="0.35" stroke="#000000" id="img-9f46b6a2-10">
  <g transform="translate(140,25)">
    <path fill="none" d="M0,-3.75 L0,3.75 " class="primitive"/>
  </g>
</g>
<g stroke-width="0.35" stroke="#000000" id="img-9f46b6a2-11">
  <g transform="translate(129.37,6.25)">
    <path fill="none" d="M10.62,0 L-10.62,0 " class="primitive"/>
  </g>
</g>
<g stroke-width="0.35" stroke="#000000" id="img-9f46b6a2-12">
  <g transform="translate(140,6.25)">
    <path fill="none" d="M0,-3.75 L0,3.75 " class="primitive"/>
  </g>
</g>
<g stroke-width="0.35" stroke="#000000" id="img-9f46b6a2-13">
  <g transform="translate(108.12,100)">
    <path fill="none" d="M10.62,0 L-10.62,0 " class="primitive"/>
  </g>
</g>
<g stroke-width="0.35" stroke="#000000" id="img-9f46b6a2-14">
  <g transform="translate(108.12,81.25)">
    <path fill="none" d="M10.62,0 L-10.62,0 " class="primitive"/>
  </g>
</g>
<g stroke-width="0.35" stroke="#000000" id="img-9f46b6a2-15">
  <g transform="translate(108.12,62.5)">
    <path fill="none" d="M10.62,0 L-10.62,0 " class="primitive"/>
  </g>
</g>
<g stroke-width="0.35" stroke="#000000" id="img-9f46b6a2-16">
  <g transform="translate(108.12,43.75)">
    <path fill="none" d="M10.62,0 L-10.62,0 " class="primitive"/>
  </g>
</g>
<g stroke-width="0.35" stroke="#000000" id="img-9f46b6a2-17">
  <g transform="translate(108.12,25)">
    <path fill="none" d="M10.62,0 L-10.62,0 " class="primitive"/>
  </g>
</g>
<g stroke-width="0.35" stroke="#000000" id="img-9f46b6a2-18">
  <g transform="translate(76.25,6.25)">
    <path fill="none" d="M42.5,0 L-42.5,0 " class="primitive"/>
  </g>
</g>
<g stroke-width="0.35" stroke="#000000" id="img-9f46b6a2-19">
  <g transform="translate(118.75,48.44)">
    <path fill="none" d="M0,42.19 L0,-42.19 " class="primitive"/>
  </g>
</g>
<g stroke-width="0.35" stroke="#000000" id="img-9f46b6a2-20">
  <g transform="translate(23.12,6.25)">
    <path fill="none" d="M10.62,0 L-10.62,0 " class="primitive"/>
  </g>
</g>
<g stroke-width="0.35" stroke="#000000" id="img-9f46b6a2-21">
  <g transform="translate(86.87,100)">
    <path fill="none" d="M10.62,0 L-10.62,0 " class="primitive"/>
  </g>
</g>
<g stroke-width="0.35" stroke="#000000" id="img-9f46b6a2-22">
  <g transform="translate(86.87,81.25)">
    <path fill="none" d="M10.62,0 L-10.62,0 " class="primitive"/>
  </g>
</g>
<g stroke-width="0.35" stroke="#000000" id="img-9f46b6a2-23">
  <g transform="translate(86.87,62.5)">
    <path fill="none" d="M10.62,0 L-10.62,0 " class="primitive"/>
  </g>
</g>
<g stroke-width="0.35" stroke="#000000" id="img-9f46b6a2-24">
  <g transform="translate(86.87,43.75)">
    <path fill="none" d="M10.62,0 L-10.62,0 " class="primitive"/>
  </g>
</g>
<g stroke-width="0.35" stroke="#000000" id="img-9f46b6a2-25">
  <g transform="translate(65.62,25)">
    <path fill="none" d="M31.88,0 L-31.87,0 " class="primitive"/>
  </g>
</g>
<g stroke-width="0.35" stroke="#000000" id="img-9f46b6a2-26">
  <g transform="translate(97.5,57.81)">
    <path fill="none" d="M0,32.81 L0,-32.81 " class="primitive"/>
  </g>
</g>
<g stroke-width="0.35" stroke="#000000" id="img-9f46b6a2-27">
  <g transform="translate(23.12,25)">
    <path fill="none" d="M10.62,0 L-10.62,0 " class="primitive"/>
  </g>
</g>
<g stroke-width="0.35" stroke="#000000" id="img-9f46b6a2-28">
  <g transform="translate(65.62,100)">
    <path fill="none" d="M10.62,0 L-10.62,0 " class="primitive"/>
  </g>
</g>
<g stroke-width="0.35" stroke="#000000" id="img-9f46b6a2-29">
  <g transform="translate(65.62,81.25)">
    <path fill="none" d="M10.62,0 L-10.62,0 " class="primitive"/>
  </g>
</g>
<g stroke-width="0.35" stroke="#000000" id="img-9f46b6a2-30">
  <g transform="translate(65.62,62.5)">
    <path fill="none" d="M10.62,0 L-10.62,0 " class="primitive"/>
  </g>
</g>
<g stroke-width="0.35" stroke="#000000" id="img-9f46b6a2-31">
  <g transform="translate(55,43.75)">
    <path fill="none" d="M21.25,0 L-21.25,0 " class="primitive"/>
  </g>
</g>
<g stroke-width="0.35" stroke="#000000" id="img-9f46b6a2-32">
  <g transform="translate(76.25,67.19)">
    <path fill="none" d="M0,23.44 L0,-23.44 " class="primitive"/>
  </g>
</g>
<g stroke-width="0.35" stroke="#000000" id="img-9f46b6a2-33">
  <g transform="translate(23.12,43.75)">
    <path fill="none" d="M10.62,0 L-10.62,0 " class="primitive"/>
  </g>
</g>
<g stroke-width="0.35" stroke="#000000" id="img-9f46b6a2-34">
  <g transform="translate(33.75,100)">
    <path fill="none" d="M21.25,0 L-21.25,0 " class="primitive"/>
  </g>
</g>
<g stroke-width="0.35" stroke="#000000" id="img-9f46b6a2-35">
  <g transform="translate(33.75,81.25)">
    <path fill="none" d="M21.25,0 L-21.25,0 " class="primitive"/>
  </g>
</g>
<g stroke-width="0.35" stroke="#000000" id="img-9f46b6a2-36">
  <g transform="translate(44.37,62.5)">
    <path fill="none" d="M10.62,0 L-10.62,0 " class="primitive"/>
  </g>
</g>
<g stroke-width="0.35" stroke="#000000" id="img-9f46b6a2-37">
  <g transform="translate(55,76.56)">
    <path fill="none" d="M0,14.06 L0,-14.06 " class="primitive"/>
  </g>
</g>
<g stroke-width="0.35" stroke="#000000" id="img-9f46b6a2-38">
  <g transform="translate(23.12,62.5)">
    <path fill="none" d="M10.62,0 L-10.62,0 " class="primitive"/>
  </g>
</g>
<g stroke-width="0.35" stroke="#000000" fill="#FFFFFF" id="img-9f46b6a2-39">
  <g transform="translate(118.75,90.62)">
    <path d="M-7.5,-14.37 L7.5,-14.37 7.5,14.37 -7.5,14.37  z" class="primitive"/>
  </g>
</g>
<g fill="#000000" id="img-9f46b6a2-40">
  <g transform="translate(118.75,6.25)">
    <circle cx="0" cy="0" r="1.67" class="primitive"/>
  </g>
</g>
<g stroke-width="0.35" stroke="#000000" fill="#FFFFFF" id="img-9f46b6a2-41">
  <g transform="translate(33.75,6.25)">
    <path d="M-5,-5 L5,-5 5,5 -5,5  z" class="primitive"/>
  </g>
</g>
<g stroke-width="0.35" stroke="#000000" fill="#FFFFFF" id="img-9f46b6a2-42">
  <g transform="translate(97.5,90.62)">
    <path d="M-7.5,-14.37 L7.5,-14.37 7.5,14.37 -7.5,14.37  z" class="primitive"/>
  </g>
</g>
<g fill="#000000" id="img-9f46b6a2-43">
  <g transform="translate(97.5,25)">
    <circle cx="0" cy="0" r="1.67" class="primitive"/>
  </g>
</g>
<g stroke-width="0.35" stroke="#000000" fill="#FFFFFF" id="img-9f46b6a2-44">
  <g transform="translate(33.75,25)">
    <path d="M-5,-5 L5,-5 5,5 -5,5  z" class="primitive"/>
  </g>
</g>
<g stroke-width="0.35" stroke="#000000" fill="#FFFFFF" id="img-9f46b6a2-45">
  <g transform="translate(76.25,90.62)">
    <path d="M-7.5,-14.37 L7.5,-14.37 7.5,14.37 -7.5,14.37  z" class="primitive"/>
  </g>
</g>
<g fill="#000000" id="img-9f46b6a2-46">
  <g transform="translate(76.25,43.75)">
    <circle cx="0" cy="0" r="1.67" class="primitive"/>
  </g>
</g>
<g stroke-width="0.35" stroke="#000000" fill="#FFFFFF" id="img-9f46b6a2-47">
  <g transform="translate(33.75,43.75)">
    <path d="M-5,-5 L5,-5 5,5 -5,5  z" class="primitive"/>
  </g>
</g>
<g stroke-width="0.35" stroke="#000000" fill="#FFFFFF" id="img-9f46b6a2-48">
  <g transform="translate(55,90.62)">
    <path d="M-7.5,-14.37 L7.5,-14.37 7.5,14.37 -7.5,14.37  z" class="primitive"/>
  </g>
</g>
<g fill="#000000" id="img-9f46b6a2-49">
  <g transform="translate(55,62.5)">
    <circle cx="0" cy="0" r="1.67" class="primitive"/>
  </g>
</g>
<g stroke-width="0.35" stroke="#000000" fill="#FFFFFF" id="img-9f46b6a2-50">
  <g transform="translate(33.75,62.5)">
    <path d="M-5,-5 L5,-5 5,5 -5,5  z" class="primitive"/>
  </g>
</g>
<g font-family="Helvetica Neue" font-size="3.53" id="img-9f46b6a2-51">
  <g transform="translate(118.75,90.62)">
    <g class="primitive">
      <text text-anchor="middle" dy="0.35em">U(3)</text>
    </g>
  </g>
</g>
<g font-family="Helvetica Neue" font-size="5.64" id="img-9f46b6a2-52">
  <g transform="translate(33.75,6.25)">
    <g class="primitive">
      <text text-anchor="middle" dy="0.35em">H</text>
    </g>
  </g>
</g>
<g font-family="Helvetica Neue" font-size="3.53" id="img-9f46b6a2-53">
  <g transform="translate(97.5,90.62)">
    <g class="primitive">
      <text text-anchor="middle" dy="0.35em">U(2)</text>
    </g>
  </g>
</g>
<g font-family="Helvetica Neue" font-size="5.64" id="img-9f46b6a2-54">
  <g transform="translate(33.75,25)">
    <g class="primitive">
      <text text-anchor="middle" dy="0.35em">H</text>
    </g>
  </g>
</g>
<g font-family="Helvetica Neue" font-size="3.53" id="img-9f46b6a2-55">
  <g transform="translate(76.25,90.62)">
    <g class="primitive">
      <text text-anchor="middle" dy="0.35em">U(1)</text>
    </g>
  </g>
</g>
<g font-family="Helvetica Neue" font-size="5.64" id="img-9f46b6a2-56">
  <g transform="translate(33.75,43.75)">
    <g class="primitive">
      <text text-anchor="middle" dy="0.35em">H</text>
    </g>
  </g>
</g>
<g font-family="Helvetica Neue" font-size="3.53" id="img-9f46b6a2-57">
  <g transform="translate(55,90.62)">
    <g class="primitive">
      <text text-anchor="middle" dy="0.35em">U(0)</text>
    </g>
  </g>
</g>
<g font-family="Helvetica Neue" font-size="5.64" id="img-9f46b6a2-58">
  <g transform="translate(33.75,62.5)">
    <g class="primitive">
      <text text-anchor="middle" dy="0.35em">H</text>
    </g>
  </g>
</g>
</svg>
