<?xml version="1.0" encoding="UTF-8"?>
<svg xmlns="http://www.w3.org/2000/svg"
     xmlns:xlink="http://www.w3.org/1999/xlink"
     version="1.2"
     width="403.75mm" height="93.75mm" viewBox="0 0 403.75 93.75"
     stroke="none"
     fill="#000000"
     stroke-width="0.3"
     font-size="3.88"
>
<defs>
  <marker id="arrow" markerWidth="15" markerHeight="7" refX="5" refY="3.5" orient="auto" markerUnits="strokeWidth">
    <path d="M0,0 L15,3.5 L0,7 z" stroke="context-stroke" fill="context-stroke"/>
  </marker>
</defs>
<g stroke-width="0.35" stroke="#000000" id="img-8f5c353d-1">
  <g transform="translate(373.75,81.25)">
    <path fill="none" d="M21.25,0 L-21.25,0 " class="primitive"/>
  </g>
</g>
<g stroke-width="0.35" stroke="#000000" id="img-8f5c353d-2">
  <g transform="translate(395,81.25)">
    <path fill="none" d="M0,-3.75 L0,3.75 " class="primitive"/>
  </g>
</g>
<g stroke-width="0.35" stroke="#000000" id="img-8f5c353d-3">
  <g transform="translate(384.38,62.5)">
    <path fill="none" d="M10.62,0 L-10.62,0 " class="primitive"/>
  </g>
</g>
<g stroke-width="0.35" stroke="#000000" id="img-8f5c353d-4">
  <g transform="translate(395,62.5)">
    <path fill="none" d="M0,-3.75 L0,3.75 " class="primitive"/>
  </g>
</g>
<g stroke-width="0.35" stroke="#000000" id="img-8f5c353d-5">
  <g transform="translate(384.38,43.75)">
    <path fill="none" d="M10.62,0 L-10.62,0 " class="primitive"/>
  </g>
</g>
<g stroke-width="0.35" stroke="#000000" id="img-8f5c353d-6">
  <g transform="translate(395,43.75)">
    <path fill="none" d="M0,-3.75 L0,3.75 " class="primitive"/>
  </g>
</g>
<g stroke-width="0.35" stroke="#000000" id="img-8f5c353d-7">
  <g transform="translate(384.38,25)">
    <path fill="none" d="M10.62,0 L-10.62,0 " class="primitive"/>
  </g>
</g>
<g stroke-width="0.35" stroke="#000000" id="img-8f5c353d-8">
  <g transform="translate(395,25)">
    <path fill="none" d="M0,-3.75 L0,3.75 " class="primitive"/>
  </g>
</g>
<g stroke-width="0.35" stroke="#000000" id="img-8f5c353d-9">
  <g transform="translate(373.75,6.25)">
    <path fill="none" d="M21.25,0 L-21.25,0 " class="primitive"/>
  </g>
</g>
<g stroke-width="0.35" stroke="#000000" id="img-8f5c353d-10">
  <g transform="translate(395,6.25)">
    <path fill="none" d="M0,-3.75 L0,3.75 " class="primitive"/>
  </g>
</g>
<g stroke-width="0.35" stroke="#000000" id="img-8f5c353d-11">
  <g transform="translate(363.13,62.5)">
    <path fill="none" d="M10.62,0 L-10.62,0 " class="primitive"/>
  </g>
</g>
<g stroke-width="0.35" stroke="#000000" id="img-8f5c353d-12">
  <g transform="translate(363.13,43.75)">
    <path fill="none" d="M10.62,0 L-10.62,0 " class="primitive"/>
  </g>
</g>
<g stroke-width="0.35" stroke="#000000" id="img-8f5c353d-13">
  <g transform="translate(363.13,25)">
    <path fill="none" d="M10.62,0 L-10.62,0 " class="primitive"/>
  </g>
</g>
<g stroke-width="0.35" stroke="#000000" id="img-8f5c353d-14">
  <g transform="translate(373.75,43.75)">
    <path fill="none" d="M0,18.75 L0,-18.75 " class="primitive"/>
  </g>
</g>
<g stroke-width="0.35" stroke="#000000" id="img-8f5c353d-15">
  <g transform="translate(341.88,81.25)">
    <path fill="none" d="M10.62,0 L-10.62,0 " class="primitive"/>
  </g>
</g>
<g stroke-width="0.35" stroke="#000000" id="img-8f5c353d-16">
  <g transform="translate(331.25,62.5)">
    <path fill="none" d="M21.25,0 L-21.25,0 " class="primitive"/>
  </g>
</g>
<g stroke-width="0.35" stroke="#000000" id="img-8f5c353d-17">
  <g transform="translate(310,43.75)">
    <path fill="none" d="M42.5,0 L-42.5,0 " class="primitive"/>
  </g>
</g>
<g stroke-width="0.35" stroke="#000000" id="img-8f5c353d-18">
  <g transform="translate(278.12,25)">
    <path fill="none" d="M74.38,0 L-74.38,0 " class="primitive"/>
  </g>
</g>
<g stroke-width="0.35" stroke="#000000" id="img-8f5c353d-19">
  <g transform="translate(235.63,6.25)">
    <path fill="none" d="M116.88,0 L-116.88,0 " class="primitive"/>
  </g>
</g>
<g stroke-width="0.35" stroke="#000000" id="img-8f5c353d-20">
  <g transform="translate(352.5,43.75)">
    <path fill="none" d="M0,37.5 L0,-37.5 " class="primitive"/>
  </g>
</g>
<g stroke-width="0.35" stroke="#000000" id="img-8f5c353d-21">
  <g transform="translate(320.63,81.25)">
    <path fill="none" d="M10.62,0 L-10.62,0 " class="primitive"/>
  </g>
</g>
<g stroke-width="0.35" stroke="#000000" id="img-8f5c353d-22">
  <g transform="translate(288.75,81.25)">
    <path fill="none" d="M21.25,0 L-21.25,0 " class="primitive"/>
  </g>
</g>
<g stroke-width="0.35" stroke="#000000" id="img-8f5c353d-23">
  <g transform="translate(299.38,62.5)">
    <path fill="none" d="M10.63,0 L-10.62,0 " class="primitive"/>
  </g>
</g>
<g stroke-width="0.35" stroke="#000000" id="img-8f5c353d-24">
  <g transform="translate(310,71.88)">
    <path fill="none" d="M0,9.38 L0,-9.38 " class="primitive"/>
  </g>
</g>
<g stroke-width="0.35" stroke="#000000" id="img-8f5c353d-25">
  <g transform="translate(278.12,62.5)">
    <path fill="none" d="M10.62,0 L-10.62,0 " class="primitive"/>
  </g>
</g>
<g stroke-width="0.35" stroke="#000000" id="img-8f5c353d-26">
  <g transform="translate(235.63,81.25)">
    <path fill="none" d="M31.88,0 L-31.88,0 " class="primitive"/>
  </g>
</g>
<g stroke-width="0.35" stroke="#000000" id="img-8f5c353d-27">
  <g transform="translate(256.88,62.5)">
    <path fill="none" d="M10.62,0 L-10.63,0 " class="primitive"/>
  </g>
</g>
<g stroke-width="0.35" stroke="#000000" id="img-8f5c353d-28">
  <g transform="translate(256.88,43.75)">
    <path fill="none" d="M10.62,0 L-10.63,0 " class="primitive"/>
  </g>
</g>
<g stroke-width="0.35" stroke="#000000" id="img-8f5c353d-29">
  <g transform="translate(267.5,62.5)">
    <path fill="none" d="M0,18.75 L0,-18.75 " class="primitive"/>
  </g>
</g>
<g stroke-width="0.35" stroke="#000000" id="img-8f5c353d-30">
  <g transform="translate(225,62.5)">
    <path fill="none" d="M21.25,0 L-21.25,0 " class="primitive"/>
  </g>
</g>
<g stroke-width="0.35" stroke="#000000" id="img-8f5c353d-31">
  <g transform="translate(235.63,43.75)">
    <path fill="none" d="M10.62,0 L-10.62,0 " class="primitive"/>
  </g>
</g>
<g stroke-width="0.35" stroke="#000000" id="img-8f5c353d-32">
  <g transform="translate(246.25,53.12)">
    <path fill="none" d="M0,9.38 L0,-9.38 " class="primitive"/>
  </g>
</g>
<g stroke-width="0.35" stroke="#000000" id="img-8f5c353d-33">
  <g transform="translate(214.38,43.75)">
    <path fill="none" d="M10.63,0 L-10.62,0 " class="primitive"/>
  </g>
</g>
<g stroke-width="0.35" stroke="#000000" id="img-8f5c353d-34">
  <g transform="translate(161.25,81.25)">
    <path fill="none" d="M42.5,0 L-42.5,0 " class="primitive"/>
  </g>
</g>
<g stroke-width="0.35" stroke="#000000" id="img-8f5c353d-35">
  <g transform="translate(193.12,62.5)">
    <path fill="none" d="M10.62,0 L-10.62,0 " class="primitive"/>
  </g>
</g>
<g stroke-width="0.35" stroke="#000000" id="img-8f5c353d-36">
  <g transform="translate(193.12,43.75)">
    <path fill="none" d="M10.62,0 L-10.62,0 " class="primitive"/>
  </g>
</g>
<g stroke-width="0.35" stroke="#000000" id="img-8f5c353d-37">
  <g transform="translate(193.12,25)">
    <path fill="none" d="M10.62,0 L-10.62,0 " class="primitive"/>
  </g>
</g>
<g stroke-width="0.35" stroke="#000000" id="img-8f5c353d-38">
  <g transform="translate(203.75,53.12)">
    <path fill="none" d="M0,28.12 L0,-28.12 " class="primitive"/>
  </g>
</g>
<g stroke-width="0.35" stroke="#000000" id="img-8f5c353d-39">
  <g transform="translate(150.63,62.5)">
    <path fill="none" d="M31.88,0 L-31.88,0 " class="primitive"/>
  </g>
</g>
<g stroke-width="0.35" stroke="#000000" id="img-8f5c353d-40">
  <g transform="translate(171.88,43.75)">
    <path fill="none" d="M10.62,0 L-10.62,0 " class="primitive"/>
  </g>
</g>
<g stroke-width="0.35" stroke="#000000" id="img-8f5c353d-41">
  <g transform="translate(171.88,25)">
    <path fill="none" d="M10.62,0 L-10.62,0 " class="primitive"/>
  </g>
</g>
<g stroke-width="0.35" stroke="#000000" id="img-8f5c353d-42">
  <g transform="translate(182.5,43.75)">
    <path fill="none" d="M0,18.75 L0,-18.75 " class="primitive"/>
  </g>
</g>
<g stroke-width="0.35" stroke="#000000" id="img-8f5c353d-43">
  <g transform="translate(140,43.75)">
    <path fill="none" d="M21.25,0 L-21.25,0 " class="primitive"/>
  </g>
</g>
<g stroke-width="0.35" stroke="#000000" id="img-8f5c353d-44">
  <g transform="translate(150.63,25)">
    <path fill="none" d="M10.62,0 L-10.62,0 " class="primitive"/>
  </g>
</g>
<g stroke-width="0.35" stroke="#000000" id="img-8f5c353d-45">
  <g transform="translate(161.25,34.38)">
    <path fill="none" d="M0,9.38 L0,-9.38 " class="primitive"/>
  </g>
</g>
<g stroke-width="0.35" stroke="#000000" id="img-8f5c353d-46">
  <g transform="translate(129.38,25)">
    <path fill="none" d="M10.62,0 L-10.63,0 " class="primitive"/>
  </g>
</g>
<g stroke-width="0.35" stroke="#000000" id="img-8f5c353d-47">
  <g transform="translate(65.63,81.25)">
    <path fill="none" d="M53.12,0 L-53.13,0 " class="primitive"/>
  </g>
</g>
<g stroke-width="0.35" stroke="#000000" id="img-8f5c353d-48">
  <g transform="translate(108.13,62.5)">
    <path fill="none" d="M10.62,0 L-10.62,0 " class="primitive"/>
  </g>
</g>
<g stroke-width="0.35" stroke="#000000" id="img-8f5c353d-49">
  <g transform="translate(108.13,43.75)">
    <path fill="none" d="M10.62,0 L-10.62,0 " class="primitive"/>
  </g>
</g>
<g stroke-width="0.35" stroke="#000000" id="img-8f5c353d-50">
  <g transform="translate(108.13,25)">
    <path fill="none" d="M10.62,0 L-10.62,0 " class="primitive"/>
  </g>
</g>
<g stroke-width="0.35" stroke="#000000" id="img-8f5c353d-51">
  <g transform="translate(108.13,6.25)">
    <path fill="none" d="M10.62,0 L-10.62,0 " class="primitive"/>
  </g>
</g>
<g stroke-width="0.35" stroke="#000000" id="img-8f5c353d-52">
  <g transform="translate(118.75,43.75)">
    <path fill="none" d="M0,37.5 L0,-37.5 " class="primitive"/>
  </g>
</g>
<g stroke-width="0.35" stroke="#000000" id="img-8f5c353d-53">
  <g transform="translate(55,62.5)">
    <path fill="none" d="M42.5,0 L-42.5,0 " class="primitive"/>
  </g>
</g>
<g stroke-width="0.35" stroke="#000000" id="img-8f5c353d-54">
  <g transform="translate(86.88,43.75)">
    <path fill="none" d="M10.62,0 L-10.62,0 " class="primitive"/>
  </g>
</g>
<g stroke-width="0.35" stroke="#000000" id="img-8f5c353d-55">
  <g transform="translate(86.88,25)">
    <path fill="none" d="M10.62,0 L-10.62,0 " class="primitive"/>
  </g>
</g>
<g stroke-width="0.35" stroke="#000000" id="img-8f5c353d-56">
  <g transform="translate(86.88,6.25)">
    <path fill="none" d="M10.62,0 L-10.62,0 " class="primitive"/>
  </g>
</g>
<g stroke-width="0.35" stroke="#000000" id="img-8f5c353d-57">
  <g transform="translate(97.5,34.38)">
    <path fill="none" d="M0,28.12 L0,-28.12 " class="primitive"/>
  </g>
</g>
<g stroke-width="0.35" stroke="#000000" id="img-8f5c353d-58">
  <g transform="translate(44.38,43.75)">
    <path fill="none" d="M31.88,0 L-31.88,0 " class="primitive"/>
  </g>
</g>
<g stroke-width="0.35" stroke="#000000" id="img-8f5c353d-59">
  <g transform="translate(65.63,25)">
    <path fill="none" d="M10.62,0 L-10.63,0 " class="primitive"/>
  </g>
</g>
<g stroke-width="0.35" stroke="#000000" id="img-8f5c353d-60">
  <g transform="translate(65.63,6.25)">
    <path fill="none" d="M10.62,0 L-10.63,0 " class="primitive"/>
  </g>
</g>
<g stroke-width="0.35" stroke="#000000" id="img-8f5c353d-61">
  <g transform="translate(76.25,25)">
    <path fill="none" d="M0,18.75 L0,-18.75 " class="primitive"/>
  </g>
</g>
<g stroke-width="0.35" stroke="#000000" id="img-8f5c353d-62">
  <g transform="translate(33.75,25)">
    <path fill="none" d="M21.25,0 L-21.25,0 " class="primitive"/>
  </g>
</g>
<g stroke-width="0.35" stroke="#000000" id="img-8f5c353d-63">
  <g transform="translate(44.38,6.25)">
    <path fill="none" d="M10.62,0 L-10.62,0 " class="primitive"/>
  </g>
</g>
<g stroke-width="0.35" stroke="#000000" id="img-8f5c353d-64">
  <g transform="translate(55,15.62)">
    <path fill="none" d="M0,9.38 L0,-9.38 " class="primitive"/>
  </g>
</g>
<g stroke-width="0.35" stroke="#000000" id="img-8f5c353d-65">
  <g transform="translate(23.13,6.25)">
    <path fill="none" d="M10.63,0 L-10.63,0 " class="primitive"/>
  </g>
</g>
<g fill="#000000" id="img-8f5c353d-66">
  <g transform="translate(373.75,62.5)">
    <path d="M-0.5,0 L-3.78,-3.28 -3.28,-3.78 0,-0.5 3.28,-3.78 3.78,-3.28 0.5,0 3.78,3.28 3.28,3.78 0,0.5 -3.28,3.78 -3.78,3.28  z" class="primitive"/>
  </g>
</g>
<g fill="#000000" id="img-8f5c353d-67">
  <g transform="translate(373.75,25)">
    <path d="M-0.5,-0 L-3.78,-3.28 -3.28,-3.78 0,-0.5 3.28,-3.78 3.78,-3.28 0.5,-0 3.78,3.28 3.28,3.78 0,0.5 -3.28,3.78 -3.78,3.28  z" class="primitive"/>
  </g>
</g>
<g fill="#000000" id="img-8f5c353d-68">
  <g transform="translate(352.5,81.25)">
    <path d="M-0.5,0 L-3.78,-3.28 -3.28,-3.78 0,-0.5 3.28,-3.78 3.78,-3.28 0.5,0 3.78,3.28 3.28,3.78 0,0.5 -3.28,3.78 -3.78,3.28  z" class="primitive"/>
  </g>
</g>
<g fill="#000000" id="img-8f5c353d-69">
  <g transform="translate(352.5,6.25)">
    <path d="M-0.5,0 L-3.78,-3.28 -3.28,-3.78 0,-0.5 3.28,-3.78 3.78,-3.28 0.5,0 3.78,3.28 3.28,3.78 0,0.5 -3.28,3.78 -3.78,3.28  z" class="primitive"/>
  </g>
</g>
<g stroke-width="0.35" stroke="#000000" fill="#FFFFFF" id="img-8f5c353d-70">
  <g transform="translate(331.25,81.25)">
    <path d="M-5,-5 L5,-5 5,5 -5,5  z" class="primitive"/>
  </g>
</g>
<g fill="#000000" id="img-8f5c353d-71">
  <g transform="translate(310,81.25)">
    <circle cx="0" cy="0" r="1.67" class="primitive"/>
  </g>
</g>
<g stroke-width="0.35" stroke="#000000" fill="#FFFFFF" id="img-8f5c353d-72">
  <g transform="translate(310,62.5)">
    <path d="M-7.5,-5 L7.5,-5 7.5,5 -7.5,5  z" class="primitive"/>
  </g>
</g>
<g stroke-width="0.35" stroke="#000000" fill="#FFFFFF" id="img-8f5c353d-73">
  <g transform="translate(288.75,62.5)">
    <path d="M-5,-5 L5,-5 5,5 -5,5  z" class="primitive"/>
  </g>
</g>
<g fill="#000000" id="img-8f5c353d-74">
  <g transform="translate(267.5,81.25)">
    <circle cx="0" cy="0" r="1.67" class="primitive"/>
  </g>
</g>
<g stroke-width="0.35" stroke="#000000" fill="#FFFFFF" id="img-8f5c353d-75">
  <g transform="translate(267.5,43.75)">
    <path d="M-7.5,-5 L7.5,-5 7.5,5 -7.5,5  z" class="primitive"/>
  </g>
</g>
<g fill="#000000" id="img-8f5c353d-76">
  <g transform="translate(246.25,62.5)">
    <circle cx="0" cy="0" r="1.67" class="primitive"/>
  </g>
</g>
<g stroke-width="0.35" stroke="#000000" fill="#FFFFFF" id="img-8f5c353d-77">
  <g transform="translate(246.25,43.75)">
    <path d="M-7.5,-5 L7.5,-5 7.5,5 -7.5,5  z" class="primitive"/>
  </g>
</g>
<g stroke-width="0.35" stroke="#000000" fill="#FFFFFF" id="img-8f5c353d-78">
  <g transform="translate(225,43.75)">
    <path d="M-5,-5 L5,-5 5,5 -5,5  z" class="primitive"/>
  </g>
</g>
<g fill="#000000" id="img-8f5c353d-79">
  <g transform="translate(203.75,81.25)">
    <circle cx="0" cy="0" r="1.67" class="primitive"/>
  </g>
</g>
<g stroke-width="0.35" stroke="#000000" fill="#FFFFFF" id="img-8f5c353d-80">
  <g transform="translate(203.75,25)">
    <path d="M-7.5,-5 L7.5,-5 7.5,5 -7.5,5  z" class="primitive"/>
  </g>
</g>
<g fill="#000000" id="img-8f5c353d-81">
  <g transform="translate(182.5,62.5)">
    <circle cx="0" cy="0" r="1.67" class="primitive"/>
  </g>
</g>
<g stroke-width="0.35" stroke="#000000" fill="#FFFFFF" id="img-8f5c353d-82">
  <g transform="translate(182.5,25)">
    <path d="M-7.5,-5 L7.5,-5 7.5,5 -7.5,5  z" class="primitive"/>
  </g>
</g>
<g fill="#000000" id="img-8f5c353d-83">
  <g transform="translate(161.25,43.75)">
    <circle cx="0" cy="0" r="1.67" class="primitive"/>
  </g>
</g>
<g stroke-width="0.35" stroke="#000000" fill="#FFFFFF" id="img-8f5c353d-84">
  <g transform="translate(161.25,25)">
    <path d="M-7.5,-5 L7.5,-5 7.5,5 -7.5,5  z" class="primitive"/>
  </g>
</g>
<g stroke-width="0.35" stroke="#000000" fill="#FFFFFF" id="img-8f5c353d-85">
  <g transform="translate(140,25)">
    <path d="M-5,-5 L5,-5 5,5 -5,5  z" class="primitive"/>
  </g>
</g>
<g fill="#000000" id="img-8f5c353d-86">
  <g transform="translate(118.75,81.25)">
    <circle cx="0" cy="0" r="1.67" class="primitive"/>
  </g>
</g>
<g stroke-width="0.35" stroke="#000000" fill="#FFFFFF" id="img-8f5c353d-87">
  <g transform="translate(118.75,6.25)">
    <path d="M-7.5,-5 L7.5,-5 7.5,5 -7.5,5  z" class="primitive"/>
  </g>
</g>
<g fill="#000000" id="img-8f5c353d-88">
  <g transform="translate(97.5,62.5)">
    <circle cx="0" cy="0" r="1.67" class="primitive"/>
  </g>
</g>
<g stroke-width="0.35" stroke="#000000" fill="#FFFFFF" id="img-8f5c353d-89">
  <g transform="translate(97.5,6.25)">
    <path d="M-7.5,-5 L7.5,-5 7.5,5 -7.5,5  z" class="primitive"/>
  </g>
</g>
<g fill="#000000" id="img-8f5c353d-90">
  <g transform="translate(76.25,43.75)">
    <circle cx="0" cy="0" r="1.67" class="primitive"/>
  </g>
</g>
<g stroke-width="0.35" stroke="#000000" fill="#FFFFFF" id="img-8f5c353d-91">
  <g transform="translate(76.25,6.25)">
    <path d="M-7.5,-5 L7.5,-5 7.5,5 -7.5,5  z" class="primitive"/>
  </g>
</g>
<g fill="#000000" id="img-8f5c353d-92">
  <g transform="translate(55,25)">
    <circle cx="0" cy="0" r="1.67" class="primitive"/>
  </g>
</g>
<g stroke-width="0.35" stroke="#000000" fill="#FFFFFF" id="img-8f5c353d-93">
  <g transform="translate(55,6.25)">
    <path d="M-7.5,-5 L7.5,-5 7.5,5 -7.5,5  z" class="primitive"/>
  </g>
</g>
<g stroke-width="0.35" stroke="#000000" fill="#FFFFFF" id="img-8f5c353d-94">
  <g transform="translate(33.75,6.25)">
    <path d="M-5,-5 L5,-5 5,5 -5,5  z" class="primitive"/>
  </g>
</g>
<g font-family="Helvetica Neue" font-size="5.64" id="img-8f5c353d-95">
  <g transform="translate(331.25,81.25)">
    <g class="primitive">
      <text text-anchor="middle" dy="0.35em">H</text>
    </g>
  </g>
</g>
<g font-family="Helvetica Neue" font-size="3.53" id="img-8f5c353d-96">
  <g transform="translate(310,62.5)">
    <g class="primitive">
      <text text-anchor="middle" dy="0.35em">R(2)</text>
    </g>
  </g>
</g>
<g font-family="Helvetica Neue" font-size="5.64" id="img-8f5c353d-97">
  <g transform="translate(288.75,62.5)">
    <g class="primitive">
      <text text-anchor="middle" dy="0.35em">H</text>
    </g>
  </g>
</g>
<g font-family="Helvetica Neue" font-size="3.53" id="img-8f5c353d-98">
  <g transform="translate(267.5,43.75)">
    <g class="primitive">
      <text text-anchor="middle" dy="0.35em">R(3)</text>
    </g>
  </g>
</g>
<g font-family="Helvetica Neue" font-size="3.53" id="img-8f5c353d-99">
  <g transform="translate(246.25,43.75)">
    <g class="primitive">
      <text text-anchor="middle" dy="0.35em">R(2)</text>
    </g>
  </g>
</g>
<g font-family="Helvetica Neue" font-size="5.64" id="img-8f5c353d-100">
  <g transform="translate(225,43.75)">
    <g class="primitive">
      <text text-anchor="middle" dy="0.35em">H</text>
    </g>
  </g>
</g>
<g font-family="Helvetica Neue" font-size="3.53" id="img-8f5c353d-101">
  <g transform="translate(203.75,25)">
    <g class="primitive">
      <text text-anchor="middle" dy="0.35em">R(4)</text>
    </g>
  </g>
</g>
<g font-family="Helvetica Neue" font-size="3.53" id="img-8f5c353d-102">
  <g transform="translate(182.5,25)">
    <g class="primitive">
      <text text-anchor="middle" dy="0.35em">R(3)</text>
    </g>
  </g>
</g>
<g font-family="Helvetica Neue" font-size="3.53" id="img-8f5c353d-103">
  <g transform="translate(161.25,25)">
    <g class="primitive">
      <text text-anchor="middle" dy="0.35em">R(2)</text>
    </g>
  </g>
</g>
<g font-family="Helvetica Neue" font-size="5.64" id="img-8f5c353d-104">
  <g transform="translate(140,25)">
    <g class="primitive">
      <text text-anchor="middle" dy="0.35em">H</text>
    </g>
  </g>
</g>
<g font-family="Helvetica Neue" font-size="3.53" id="img-8f5c353d-105">
  <g transform="translate(118.75,6.25)">
    <g class="primitive">
      <text text-anchor="middle" dy="0.35em">R(5)</text>
    </g>
  </g>
</g>
<g font-family="Helvetica Neue" font-size="3.53" id="img-8f5c353d-106">
  <g transform="translate(97.5,6.25)">
    <g class="primitive">
      <text text-anchor="middle" dy="0.35em">R(4)</text>
    </g>
  </g>
</g>
<g font-family="Helvetica Neue" font-size="3.53" id="img-8f5c353d-107">
  <g transform="translate(76.25,6.25)">
    <g class="primitive">
      <text text-anchor="middle" dy="0.35em">R(3)</text>
    </g>
  </g>
</g>
<g font-family="Helvetica Neue" font-size="3.53" id="img-8f5c353d-108">
  <g transform="translate(55,6.25)">
    <g class="primitive">
      <text text-anchor="middle" dy="0.35em">R(2)</text>
    </g>
  </g>
</g>
<g font-family="Helvetica Neue" font-size="5.64" id="img-8f5c353d-109">
  <g transform="translate(33.75,6.25)">
    <g class="primitive">
      <text text-anchor="middle" dy="0.35em">H</text>
    </g>
  </g>
</g>
</svg>
