<?xml version="1.0" encoding="UTF-8"?>
<svg xmlns="http://www.w3.org/2000/svg"
     xmlns:xlink="http://www.w3.org/1999/xlink"
     version="1.2"
     width="240mm" height="80mm" viewBox="0 0 240 80"
     stroke="none"
     fill="#000000"
     stroke-width="0.3"
     font-size="3.88"
>
<defs>
  <marker id="arrow" markerWidth="15" markerHeight="7" refX="5" refY="3.5" orient="auto" markerUnits="strokeWidth">
    <path d="M0,0 L15,3.5 L0,7 z" stroke="context-stroke" fill="context-stroke"/>
  </marker>
</defs>
<g stroke-width="0.35" stroke="#3283A8" id="img-d5e41001-1">
  <g transform="translate(13.75,44.44)">
    <path fill="none" d="M6.32,0 L-6.32,0 " class="primitive"/>
  </g>
  <g transform="translate(32.69,54.44)">
    <path fill="none" d="M0,10 L0,-10 " class="primitive"/>
  </g>
  <g transform="translate(26.38,44.44)">
    <path fill="none" d="M6.32,0 L-6.32,0 " class="primitive"/>
  </g>
  <g transform="translate(20.06,57.78)">
    <path fill="none" d="M12.63,0 L-12.63,0 " class="primitive"/>
  </g>
  <g transform="translate(20.06,71.11)">
    <path fill="none" d="M12.63,0 L-12.63,0 " class="primitive"/>
  </g>
  <g transform="translate(13.75,31.11)">
    <path fill="none" d="M6.32,0 L-6.32,0 " class="primitive"/>
  </g>
  <g transform="translate(45.33,47.78)">
    <path fill="none" d="M0,16.67 L0,-16.67 " class="primitive"/>
  </g>
  <g transform="translate(32.69,31.11)">
    <path fill="none" d="M12.63,0 L-12.63,0 " class="primitive"/>
  </g>
  <g transform="translate(39.01,44.44)">
    <path fill="none" d="M6.32,0 L-6.32,0 " class="primitive"/>
  </g>
  <g transform="translate(39.01,57.78)">
    <path fill="none" d="M6.32,0 L-6.32,0 " class="primitive"/>
  </g>
  <g transform="translate(39.01,71.11)">
    <path fill="none" d="M6.32,0 L-6.32,0 " class="primitive"/>
  </g>
  <g transform="translate(13.75,17.78)">
    <path fill="none" d="M6.32,0 L-6.32,0 " class="primitive"/>
  </g>
  <g transform="translate(57.96,41.11)">
    <path fill="none" d="M0,23.33 L0,-23.33 " class="primitive"/>
  </g>
  <g transform="translate(39.01,17.78)">
    <path fill="none" d="M18.95,0 L-18.95,0 " class="primitive"/>
  </g>
  <g transform="translate(51.64,31.11)">
    <path fill="none" d="M6.32,0 L-6.32,0 " class="primitive"/>
  </g>
  <g transform="translate(51.64,44.44)">
    <path fill="none" d="M6.32,0 L-6.32,0 " class="primitive"/>
  </g>
  <g transform="translate(51.64,57.78)">
    <path fill="none" d="M6.32,0 L-6.32,0 " class="primitive"/>
  </g>
  <g transform="translate(51.64,71.11)">
    <path fill="none" d="M6.32,0 L-6.32,0 " class="primitive"/>
  </g>
  <g transform="translate(13.75,4.44)">
    <path fill="none" d="M6.32,0 L-6.32,0 " class="primitive"/>
  </g>
  <g transform="translate(70.59,34.44)">
    <path fill="none" d="M0,30 L0,-30 " class="primitive"/>
  </g>
  <g transform="translate(45.33,4.44)">
    <path fill="none" d="M25.26,0 L-25.26,0 " class="primitive"/>
  </g>
  <g transform="translate(64.27,17.78)">
    <path fill="none" d="M6.32,0 L-6.32,0 " class="primitive"/>
  </g>
  <g transform="translate(64.27,31.11)">
    <path fill="none" d="M6.32,0 L-6.32,0 " class="primitive"/>
  </g>
  <g transform="translate(64.27,44.44)">
    <path fill="none" d="M6.32,0 L-6.32,0 " class="primitive"/>
  </g>
  <g transform="translate(64.27,57.78)">
    <path fill="none" d="M6.32,0 L-6.32,0 " class="primitive"/>
  </g>
  <g transform="translate(64.27,71.11)">
    <path fill="none" d="M6.32,0 L-6.32,0 " class="primitive"/>
  </g>
  <g transform="translate(83.22,24.44)">
    <path fill="none" d="M0,6.67 L0,-6.67 " class="primitive"/>
  </g>
  <g transform="translate(76.9,17.78)">
    <path fill="none" d="M6.32,0 L-6.32,0 " class="primitive"/>
  </g>
  <g transform="translate(76.9,31.11)">
    <path fill="none" d="M6.32,0 L-6.32,0 " class="primitive"/>
  </g>
  <g transform="translate(95.85,24.44)">
    <path fill="none" d="M0,20 L0,-20 " class="primitive"/>
  </g>
  <g transform="translate(83.22,4.44)">
    <path fill="none" d="M12.63,0 L-12.63,0 " class="primitive"/>
  </g>
  <g transform="translate(89.54,17.78)">
    <path fill="none" d="M6.32,0 L-6.32,0 " class="primitive"/>
  </g>
  <g transform="translate(89.54,31.11)">
    <path fill="none" d="M6.32,0 L-6.32,0 " class="primitive"/>
  </g>
  <g transform="translate(83.22,44.44)">
    <path fill="none" d="M12.63,0 L-12.63,0 " class="primitive"/>
  </g>
  <g transform="translate(102.17,44.44)">
    <path fill="none" d="M6.32,0 L-6.32,0 " class="primitive"/>
  </g>
  <g transform="translate(121.11,37.78)">
    <path fill="none" d="M0,6.67 L0,-6.67 " class="primitive"/>
  </g>
  <g transform="translate(108.48,31.11)">
    <path fill="none" d="M12.63,0 L-12.63,0 " class="primitive"/>
  </g>
  <g transform="translate(114.8,44.44)">
    <path fill="none" d="M6.32,0 L-6.32,0 " class="primitive"/>
  </g>
  <g transform="translate(127.43,31.11)">
    <path fill="none" d="M6.32,0 L-6.32,0 " class="primitive"/>
  </g>
  <g transform="translate(146.38,31.11)">
    <path fill="none" d="M0,13.33 L0,-13.33 " class="primitive"/>
  </g>
  <g transform="translate(121.11,17.78)">
    <path fill="none" d="M25.26,0 L-25.26,0 " class="primitive"/>
  </g>
  <g transform="translate(140.06,31.11)">
    <path fill="none" d="M6.32,0 L-6.32,0 " class="primitive"/>
  </g>
  <g transform="translate(133.75,44.44)">
    <path fill="none" d="M12.63,0 L-12.63,0 " class="primitive"/>
  </g>
  <g transform="translate(159.01,24.44)">
    <path fill="none" d="M0,6.67 L0,-6.67 " class="primitive"/>
  </g>
  <g transform="translate(152.69,17.78)">
    <path fill="none" d="M6.32,0 L-6.32,0 " class="primitive"/>
  </g>
  <g transform="translate(152.69,31.11)">
    <path fill="none" d="M6.32,0 L-6.32,0 " class="primitive"/>
  </g>
  <g transform="translate(165.33,17.78)">
    <path fill="none" d="M6.32,0 L-6.32,0 " class="primitive"/>
  </g>
  <g transform="translate(184.27,24.44)">
    <path fill="none" d="M0,20 L0,-20 " class="primitive"/>
  </g>
  <g transform="translate(140.06,4.44)">
    <path fill="none" d="M44.21,0 L-44.21,0 " class="primitive"/>
  </g>
  <g transform="translate(177.96,17.78)">
    <path fill="none" d="M6.32,0 L-6.32,0 " class="primitive"/>
  </g>
  <g transform="translate(171.64,31.11)">
    <path fill="none" d="M12.63,0 L-12.63,0 " class="primitive"/>
  </g>
  <g transform="translate(165.33,44.44)">
    <path fill="none" d="M18.95,0 L-18.95,0 " class="primitive"/>
  </g>
  <g transform="translate(196.9,17.78)">
    <path fill="none" d="M0,13.33 L0,-13.33 " class="primitive"/>
  </g>
  <g transform="translate(190.59,4.44)">
    <path fill="none" d="M6.32,0 L-6.32,0 " class="primitive"/>
  </g>
  <g transform="translate(190.59,17.78)">
    <path fill="none" d="M6.32,0 L-6.32,0 " class="primitive"/>
  </g>
  <g transform="translate(190.59,31.11)">
    <path fill="none" d="M6.32,0 L-6.32,0 " class="primitive"/>
  </g>
  <g transform="translate(209.54,11.11)">
    <path fill="none" d="M0,6.67 L0,-6.67 " class="primitive"/>
  </g>
  <g transform="translate(203.22,4.44)">
    <path fill="none" d="M6.32,0 L-6.32,0 " class="primitive"/>
  </g>
  <g transform="translate(203.22,17.78)">
    <path fill="none" d="M6.32,0 L-6.32,0 " class="primitive"/>
  </g>
  <g transform="translate(215.85,4.44)">
    <path fill="none" d="M6.32,0 L-6.32,0 " class="primitive"/>
  </g>
  <g transform="translate(228.48,4.44)">
    <path fill="none" d="M6.32,0 L-6.32,0 " class="primitive"/>
  </g>
  <g transform="translate(222.17,17.78)">
    <path fill="none" d="M12.63,0 L-12.63,0 " class="primitive"/>
  </g>
  <g transform="translate(215.85,31.11)">
    <path fill="none" d="M18.95,0 L-18.95,0 " class="primitive"/>
  </g>
  <g transform="translate(209.54,44.44)">
    <path fill="none" d="M25.26,0 L-25.26,0 " class="primitive"/>
  </g>
  <g transform="translate(152.69,57.78)">
    <path fill="none" d="M82.11,0 L-82.11,0 " class="primitive"/>
  </g>
  <g transform="translate(152.69,71.11)">
    <path fill="none" d="M82.11,0 L-82.11,0 " class="primitive"/>
  </g>
</g>
<g stroke-width="0.35" stroke="#3283A8" fill="#FFFFFF" id="img-d5e41001-2">
  <g transform="translate(209.54,4.44)">
    <path d="M-4.46,-3.56 L4.46,-3.56 4.46,3.56 -4.46,3.56  z" class="primitive"/>
  </g>
</g>
<g stroke-width="0.35" stroke="#3283A8" fill="#FFFFFF" id="img-d5e41001-3">
  <g transform="translate(196.9,4.44)">
    <path d="M-4.46,-3.56 L4.46,-3.56 4.46,3.56 -4.46,3.56  z" class="primitive"/>
  </g>
</g>
<g stroke-width="0.35" stroke="#3283A8" fill="#FFFFFF" id="img-d5e41001-4">
  <g transform="translate(184.27,4.44)">
    <path d="M-4.46,-3.56 L4.46,-3.56 4.46,3.56 -4.46,3.56  z" class="primitive"/>
  </g>
</g>
<g stroke-width="0.35" stroke="#3283A8" fill="#FFFFFF" id="img-d5e41001-5">
  <g transform="translate(159.01,17.78)">
    <path d="M-4.46,-3.56 L4.46,-3.56 4.46,3.56 -4.46,3.56  z" class="primitive"/>
  </g>
</g>
<g stroke-width="0.35" stroke="#3283A8" fill="#FFFFFF" id="img-d5e41001-6">
  <g transform="translate(146.38,17.78)">
    <path d="M-4.46,-3.56 L4.46,-3.56 4.46,3.56 -4.46,3.56  z" class="primitive"/>
  </g>
</g>
<g stroke-width="0.35" stroke="#3283A8" fill="#FFFFFF" id="img-d5e41001-7">
  <g transform="translate(121.11,31.11)">
    <path d="M-4.46,-3.56 L4.46,-3.56 4.46,3.56 -4.46,3.56  z" class="primitive"/>
  </g>
</g>
<g stroke-width="0" fill="#3283A8" id="img-d5e41001-8">
  <g transform="translate(83.22,17.78)">
    <path d="M-0.3,-0 L-2.24,-2.33 -1.95,-2.69 -0,-0.36 1.95,-2.69 2.24,-2.33 0.3,-0 2.24,2.33 1.95,2.69 -0,0.36 -1.95,2.69 -2.24,2.33  z" class="primitive"/>
  </g>
  <g transform="translate(83.22,31.11)">
    <path d="M-0.3,0 L-2.24,-2.33 -1.95,-2.69 -0,-0.36 1.95,-2.69 2.24,-2.33 0.3,0 2.24,2.33 1.95,2.69 -0,0.36 -1.95,2.69 -2.24,2.33  z" class="primitive"/>
  </g>
  <g transform="translate(95.85,4.44)">
    <path d="M-0.3,0 L-2.24,-2.33 -1.95,-2.69 0,-0.36 1.95,-2.69 2.24,-2.33 0.3,0 2.24,2.33 1.95,2.69 0,0.36 -1.95,2.69 -2.24,2.33  z" class="primitive"/>
  </g>
  <g transform="translate(95.85,44.44)">
    <path d="M-0.3,-0 L-2.24,-2.33 -1.95,-2.69 0,-0.36 1.95,-2.69 2.24,-2.33 0.3,-0 2.24,2.33 1.95,2.69 0,0.36 -1.95,2.69 -2.24,2.33  z" class="primitive"/>
  </g>
</g>
<g stroke-width="0.35" stroke="#3283A8" fill="#FFFFFF" id="img-d5e41001-9">
  <g transform="translate(70.59,64.44)">
    <path d="M-4.46,-10.22 L4.46,-10.22 4.46,10.22 -4.46,10.22  z" class="primitive"/>
  </g>
</g>
<g stroke-width="0.35" stroke="#3283A8" fill="#FFFFFF" id="img-d5e41001-10">
  <g transform="translate(57.96,64.44)">
    <path d="M-4.46,-10.22 L4.46,-10.22 4.46,10.22 -4.46,10.22  z" class="primitive"/>
  </g>
</g>
<g stroke-width="0.35" stroke="#3283A8" fill="#FFFFFF" id="img-d5e41001-11">
  <g transform="translate(45.33,64.44)">
    <path d="M-4.46,-10.22 L4.46,-10.22 4.46,10.22 -4.46,10.22  z" class="primitive"/>
  </g>
</g>
<g stroke-width="0.35" stroke="#3283A8" fill="#FFFFFF" id="img-d5e41001-12">
  <g transform="translate(32.69,64.44)">
    <path d="M-4.46,-10.22 L4.46,-10.22 4.46,10.22 -4.46,10.22  z" class="primitive"/>
  </g>
</g>
<g stroke-width="0" fill="#3283A8" id="img-d5e41001-13">
  <g transform="translate(32.69,44.44)">
    <circle cx="0" cy="0" r="0.99" class="primitive"/>
  </g>
  <g transform="translate(45.33,31.11)">
    <circle cx="0" cy="0" r="0.99" class="primitive"/>
  </g>
  <g transform="translate(57.96,17.78)">
    <circle cx="0" cy="0" r="0.99" class="primitive"/>
  </g>
  <g transform="translate(70.59,4.44)">
    <circle cx="0" cy="0" r="0.99" class="primitive"/>
  </g>
  <g transform="translate(121.11,44.44)">
    <circle cx="0" cy="0" r="0.99" class="primitive"/>
  </g>
  <g transform="translate(146.38,44.44)">
    <circle cx="0" cy="0" r="0.99" class="primitive"/>
  </g>
  <g transform="translate(159.01,31.11)">
    <circle cx="0" cy="0" r="0.99" class="primitive"/>
  </g>
  <g transform="translate(184.27,44.44)">
    <circle cx="0" cy="0" r="0.99" class="primitive"/>
  </g>
  <g transform="translate(196.9,31.11)">
    <circle cx="0" cy="0" r="0.99" class="primitive"/>
  </g>
  <g transform="translate(209.54,17.78)">
    <circle cx="0" cy="0" r="0.99" class="primitive"/>
  </g>
</g>
<g stroke-width="0.35" stroke="#3283A8" fill="#FFFFFF" id="img-d5e41001-14">
  <g transform="translate(20.06,44.44)">
    <path d="M-2.97,-3.56 L2.97,-3.56 2.97,3.56 -2.97,3.56  z" class="primitive"/>
  </g>
  <g transform="translate(20.06,31.11)">
    <path d="M-2.97,-3.56 L2.97,-3.56 2.97,3.56 -2.97,3.56  z" class="primitive"/>
  </g>
  <g transform="translate(20.06,17.78)">
    <path d="M-2.97,-3.56 L2.97,-3.56 2.97,3.56 -2.97,3.56  z" class="primitive"/>
  </g>
  <g transform="translate(20.06,4.44)">
    <path d="M-2.97,-3.56 L2.97,-3.56 2.97,3.56 -2.97,3.56  z" class="primitive"/>
  </g>
  <g transform="translate(108.48,44.44)">
    <path d="M-2.97,-3.56 L2.97,-3.56 2.97,3.56 -2.97,3.56  z" class="primitive"/>
  </g>
  <g transform="translate(133.75,31.11)">
    <path d="M-2.97,-3.56 L2.97,-3.56 2.97,3.56 -2.97,3.56  z" class="primitive"/>
  </g>
  <g transform="translate(171.64,17.78)">
    <path d="M-2.97,-3.56 L2.97,-3.56 2.97,3.56 -2.97,3.56  z" class="primitive"/>
  </g>
  <g transform="translate(222.17,4.44)">
    <path d="M-2.97,-3.56 L2.97,-3.56 2.97,3.56 -2.97,3.56  z" class="primitive"/>
  </g>
</g>
<g font-family="Helvetica Neue" fill="#3283A8" font-size="3.53" id="img-d5e41001-15">
  <g transform="translate(32.69,64.44)">
    <g class="primitive">
      <text text-anchor="middle" dy="0.35em">U(0)</text>
    </g>
  </g>
  <g transform="translate(45.33,64.44)">
    <g class="primitive">
      <text text-anchor="middle" dy="0.35em">U(1)</text>
    </g>
  </g>
  <g transform="translate(57.96,64.44)">
    <g class="primitive">
      <text text-anchor="middle" dy="0.35em">U(2)</text>
    </g>
  </g>
  <g transform="translate(70.59,64.44)">
    <g class="primitive">
      <text text-anchor="middle" dy="0.35em">U(3)</text>
    </g>
  </g>
  <g transform="translate(121.11,31.11)">
    <g class="primitive">
      <text text-anchor="middle" dy="0.35em">R(2)†</text>
    </g>
  </g>
  <g transform="translate(146.38,17.78)">
    <g class="primitive">
      <text text-anchor="middle" dy="0.35em">R(3)†</text>
    </g>
  </g>
  <g transform="translate(159.01,17.78)">
    <g class="primitive">
      <text text-anchor="middle" dy="0.35em">R(2)†</text>
    </g>
  </g>
  <g transform="translate(184.27,4.44)">
    <g class="primitive">
      <text text-anchor="middle" dy="0.35em">R(4)†</text>
    </g>
  </g>
  <g transform="translate(196.9,4.44)">
    <g class="primitive">
      <text text-anchor="middle" dy="0.35em">R(3)†</text>
    </g>
  </g>
  <g transform="translate(209.54,4.44)">
    <g class="primitive">
      <text text-anchor="middle" dy="0.35em">R(2)†</text>
    </g>
  </g>
</g>
<g font-family="Helvetica Neue" fill="#3283A8" font-size="5.64" id="img-d5e41001-16">
  <g transform="translate(20.06,44.44)">
    <g class="primitive">
      <text text-anchor="middle" dy="0.35em">H</text>
    </g>
  </g>
  <g transform="translate(20.06,31.11)">
    <g class="primitive">
      <text text-anchor="middle" dy="0.35em">H</text>
    </g>
  </g>
  <g transform="translate(20.06,17.78)">
    <g class="primitive">
      <text text-anchor="middle" dy="0.35em">H</text>
    </g>
  </g>
  <g transform="translate(20.06,4.44)">
    <g class="primitive">
      <text text-anchor="middle" dy="0.35em">H</text>
    </g>
  </g>
  <g transform="translate(108.48,44.44)">
    <g class="primitive">
      <text text-anchor="middle" dy="0.35em">H</text>
    </g>
  </g>
  <g transform="translate(133.75,31.11)">
    <g class="primitive">
      <text text-anchor="middle" dy="0.35em">H</text>
    </g>
  </g>
  <g transform="translate(171.64,17.78)">
    <g class="primitive">
      <text text-anchor="middle" dy="0.35em">H</text>
    </g>
  </g>
  <g transform="translate(222.17,4.44)">
    <g class="primitive">
      <text text-anchor="middle" dy="0.35em">H</text>
    </g>
  </g>
</g>
</svg>
